<svg viewBox="0 0 480 231" xmlns="http://www.w3.org/2000/svg"><rect fill="#000" width="480" height="231" y="0" x="0"/><rect class="windowBackgroundWhite" width="480" height="109" y="122" x="0"/><image opacity="0.15" width="492" height="134" href="actionbarshadow.png" transform="matrix(1 0 0 1 -6 -4)"/><rect class="actionBarDefault" width="480" height="122"/><rect opacity=".2" width="480" height="38"/><path fill="#fff" d="M419.363,26.917h-2.619V14.265l-3.863,1.32v-2.219l6.146-2.262h0.336V26.917"/><path fill="#fff" d="M435.438,26.917H424.84V25.11l5.131-5.596c0.434-0.476,0.791-0.9,1.076-1.272c0.285-0.372,0.514-0.71,0.684-1.017c0.168-0.307,0.287-0.594,0.355-0.861c0.07-0.267,0.104-0.534,0.104-0.801c0-0.361-0.053-0.694-0.156-1.001c-0.105-0.307-0.256-0.572-0.455-0.796c-0.199-0.223-0.441-0.398-0.73-0.525c-0.289-0.126-0.621-0.189-0.996-0.189c-0.455,0-0.85,0.072-1.186,0.217s-0.613,0.345-0.832,0.601c-0.221,0.256-0.387,0.563-0.498,0.92c-0.113,0.357-0.168,0.749-0.168,1.174h-2.631c0-0.692,0.117-1.344,0.352-1.954c0.234-0.609,0.58-1.142,1.033-1.596c0.455-0.455,1.014-0.813,1.678-1.077c0.664-0.263,1.422-0.395,2.273-0.395c0.787,0,1.486,0.103,2.1,0.309s1.131,0.496,1.553,0.871c0.424,0.375,0.744,0.832,0.965,1.369c0.219,0.538,0.33,1.135,0.33,1.792c0,0.491-0.08,0.976-0.238,1.456c-0.16,0.48-0.379,0.958-0.66,1.434c-0.281,0.477-0.617,0.955-1.008,1.434c-0.389,0.48-0.814,0.962-1.277,1.445l-3.518,3.767h7.318V26.917"/><path fill="#fff" d="M437.666,16.418c0-0.418,0.133-0.767,0.4-1.044c0.268-0.277,0.643-0.417,1.127-0.417c0.49,0,0.869,0.139,1.135,0.417c0.268,0.278,0.4,0.626,0.4,1.044c0,0.412-0.133,0.752-0.4,1.023c-0.266,0.271-0.645,0.406-1.135,0.406c-0.238,0-0.453-0.036-0.645-0.108s-0.352-0.173-0.482-0.303c-0.129-0.13-0.229-0.281-0.297-0.455S437.666,16.621,437.666,16.418z M437.666,25.608c0-0.418,0.133-0.767,0.4-1.044s0.643-0.417,1.127-0.417c0.49,0,0.869,0.139,1.135,0.417c0.268,0.278,0.4,0.626,0.4,1.044c0,0.411-0.133,0.752-0.4,1.023c-0.266,0.271-0.645,0.406-1.135,0.406c-0.238,0-0.453-0.036-0.645-0.108c-0.191-0.072-0.352-0.173-0.482-0.303c-0.129-0.13-0.229-0.281-0.297-0.455C437.701,25.998,437.666,25.81,437.666,25.608"/><path fill="#fff" d="M446.357,17.836h1.559c0.455,0,0.848-0.06,1.18-0.179c0.332-0.119,0.609-0.283,0.834-0.492c0.223-0.209,0.389-0.462,0.498-0.758c0.107-0.296,0.162-0.624,0.162-0.985c0-0.75-0.197-1.333-0.59-1.748c-0.395-0.415-0.994-0.623-1.803-0.623c-0.346,0-0.668,0.053-0.963,0.157c-0.297,0.104-0.553,0.252-0.77,0.444c-0.215,0.191-0.385,0.422-0.508,0.692c-0.123,0.271-0.184,0.576-0.184,0.915h-2.631c0-0.62,0.125-1.194,0.373-1.721c0.25-0.527,0.596-0.983,1.039-1.369c0.445-0.386,0.975-0.688,1.592-0.904s1.289-0.325,2.018-0.325c0.752,0,1.438,0.096,2.057,0.287c0.621,0.191,1.154,0.475,1.598,0.85c0.443,0.375,0.787,0.843,1.033,1.402s0.367,1.207,0.367,1.943c0,0.317-0.049,0.639-0.15,0.963s-0.254,0.637-0.455,0.936c-0.201,0.3-0.455,0.581-0.758,0.844c-0.303,0.264-0.656,0.485-1.061,0.666c0.484,0.166,0.893,0.377,1.229,0.633c0.336,0.256,0.607,0.545,0.816,0.866c0.211,0.321,0.363,0.666,0.461,1.033c0.098,0.368,0.146,0.747,0.146,1.137c0,0.736-0.135,1.393-0.4,1.97c-0.268,0.578-0.637,1.063-1.109,1.456c-0.473,0.393-1.033,0.692-1.678,0.898c-0.646,0.206-1.344,0.308-2.096,0.308c-0.686,0-1.34-0.094-1.963-0.281c-0.625-0.188-1.176-0.467-1.65-0.839c-0.477-0.372-0.855-0.835-1.137-1.391s-0.422-1.198-0.422-1.927h2.629c0,0.346,0.063,0.664,0.184,0.953c0.123,0.289,0.297,0.536,0.52,0.741c0.225,0.206,0.494,0.364,0.813,0.476c0.318,0.112,0.672,0.168,1.061,0.168c0.816,0,1.457-0.216,1.928-0.649c0.469-0.433,0.703-1.061,0.703-1.883c0-0.447-0.068-0.833-0.207-1.158c-0.137-0.325-0.332-0.593-0.584-0.806s-0.557-0.37-0.914-0.471c-0.357-0.101-0.76-0.151-1.207-0.151h-1.559V17.836"/><path fill="#fff" d="M466.186,20.283c0,1.249-0.123,2.307-0.367,3.177c-0.246,0.87-0.592,1.577-1.039,2.121c-0.447,0.545-0.986,0.94-1.619,1.186c-0.631,0.245-1.336,0.368-2.115,0.368c-0.771,0-1.477-0.123-2.111-0.368c-0.635-0.246-1.18-0.641-1.633-1.186c-0.455-0.544-0.807-1.251-1.057-2.121c-0.248-0.87-0.373-1.928-0.373-3.177v-2.543c0-1.249,0.123-2.306,0.369-3.171c0.244-0.866,0.592-1.568,1.043-2.105c0.451-0.537,0.994-0.925,1.629-1.164c0.635-0.238,1.34-0.357,2.111-0.357c0.779,0,1.486,0.119,2.121,0.357c0.635,0.238,1.178,0.626,1.629,1.164c0.451,0.538,0.799,1.239,1.045,2.105c0.244,0.866,0.367,1.923,0.367,3.171V20.283z M463.557,17.338c0-0.801-0.057-1.474-0.168-2.019c-0.113-0.544-0.275-0.985-0.492-1.32s-0.482-0.577-0.797-0.725c-0.313-0.148-0.672-0.222-1.076-0.222s-0.764,0.074-1.076,0.222c-0.314,0.148-0.58,0.39-0.797,0.725s-0.381,0.776-0.492,1.32c-0.111,0.545-0.168,1.218-0.168,2.019v3.323c0,0.793,0.059,1.468,0.174,2.024s0.281,1.006,0.498,1.353c0.217,0.346,0.482,0.599,0.801,0.757c0.316,0.159,0.678,0.238,1.082,0.238c0.412,0,0.771-0.079,1.082-0.238c0.311-0.159,0.572-0.411,0.785-0.757c0.213-0.347,0.373-0.797,0.482-1.353c0.107-0.556,0.162-1.23,0.162-2.024V17.338"/><path fill="#fff" d="M331.178,30.07l13.936-17.269c-0.539-0.408-5.901-4.885-13.948-4.885s-13.405,4.477-13.945,4.885l13.937,17.269l0.009,0.013h0.002L331.178,30.07"/><polygon fill="#fff" points="348.583,30.08 370.75,30.08 370.75,7.913"/><polygon fill="#fff" points="394.5,9.5 394.5,7.917 389.75,7.917 389.75,9.5 385,9.5 385,30.083 399.25,30.083 399.25,9.5"/><g class="actionBarDefaultIcon"><path d="M28,88.667h28v-3.111H28V88.667z M28,80.889h28v-3.111H28V80.889z M28,70v3.111h28V70H28"/><path d="M449.297,82.981h-1.22l-0.433-0.417c1.514-1.76,2.424-4.045,2.424-6.53c0-5.542-4.492-10.034-10.034-10.034C434.493,66,430,70.492,430,76.034s4.493,10.034,10.034,10.034c2.486,0,4.77-0.911,6.53-2.424l0.416,0.433v1.22L454.699,93L457,90.699L449.297,82.981z M440.034,82.981c-3.845,0-6.947-3.103-6.947-6.947s3.103-6.947,6.947-6.947c3.844,0,6.946,3.103,6.946,6.947S443.878,82.981,440.034,82.981"/></g><g class="actionBarDefaultTitle"><path d="M125.578,71.994h-6.65v18.34h-3.677v-18.34h-6.592v-2.988h16.919V71.994"/><path d="M131.54,76.212c0.547-0.635,1.191-1.13,1.934-1.487s1.567-0.535,2.476-0.535c0.771,0,1.475,0.107,2.109,0.322s1.177,0.559,1.626,1.033s0.796,1.089,1.04,1.846s0.366,1.672,0.366,2.747v10.195h-3.56V80.109c0-1.094-0.237-1.868-0.71-2.322s-1.169-0.681-2.087-0.681c-0.742,0-1.379,0.171-1.912,0.513s-0.959,0.806-1.282,1.392v11.323h-3.56v-22.5h3.56V76.212"/><path d="M151.667,90.626c-1.172,0-2.227-0.195-3.164-0.586s-1.733-0.928-2.388-1.611s-1.157-1.494-1.509-2.432s-0.527-1.948-0.527-3.032v-0.586c0-1.25,0.186-2.38,0.557-3.391s0.879-1.87,1.523-2.578s1.404-1.255,2.278-1.641s1.814-0.579,2.82-0.579c1.152,0,2.153,0.193,3.003,0.579s1.553,0.925,2.109,1.619s0.972,1.519,1.245,2.476s0.41,2.007,0.41,3.149v1.523h-10.356c0.049,0.615,0.178,1.182,0.388,1.699s0.496,0.964,0.857,1.34s0.789,0.671,1.282,0.886s1.052,0.322,1.677,0.322c0.879,0,1.643-0.176,2.292-0.527s1.213-0.835,1.692-1.45l1.919,1.831c-0.254,0.381-0.569,0.75-0.945,1.106s-0.815,0.674-1.318,0.952s-1.072,0.503-1.707,0.674S152.458,90.626,151.667,90.626z M151.242,77.047c-0.977,0-1.765,0.342-2.366,1.025s-0.984,1.636-1.15,2.856h6.782v-0.264c-0.029-0.469-0.105-0.92-0.227-1.355s-0.31-0.82-0.564-1.157s-0.583-0.605-0.989-0.806S151.828,77.047,151.242,77.047"/><path d="M164.133,74.484l0.103,1.655c0.527-0.615,1.169-1.094,1.926-1.436s1.638-0.513,2.644-0.513c0.967,0,1.831,0.193,2.593,0.579s1.348,1.003,1.758,1.853c0.527-0.742,1.194-1.333,2-1.772s1.76-0.659,2.864-0.659c0.82,0,1.553,0.11,2.197,0.33s1.189,0.566,1.633,1.04s0.786,1.082,1.025,1.824s0.359,1.636,0.359,2.681v10.269h-3.56V80.05c0-0.586-0.066-1.067-0.198-1.443s-0.322-0.676-0.571-0.901s-0.547-0.381-0.894-0.469s-0.74-0.132-1.179-0.132c-0.811,0-1.472,0.217-1.985,0.652s-0.872,1.003-1.077,1.707c0,0.049,0.002,0.1,0.007,0.154s0.007,0.105,0.007,0.154v10.562h-3.56V80.094c0-0.557-0.066-1.025-0.198-1.406s-0.322-0.688-0.571-0.923s-0.549-0.403-0.901-0.505s-0.747-0.154-1.187-0.154c-0.762,0-1.389,0.156-1.882,0.469s-0.876,0.737-1.15,1.274v11.484h-3.56v-15.85H164.133"/><path d="M193.869,90.626c-1.172,0-2.227-0.195-3.164-0.586s-1.733-0.928-2.388-1.611s-1.157-1.494-1.509-2.432s-0.527-1.948-0.527-3.032v-0.586c0-1.25,0.186-2.38,0.557-3.391s0.879-1.87,1.523-2.578s1.404-1.255,2.278-1.641s1.814-0.579,2.82-0.579c1.152,0,2.153,0.193,3.003,0.579s1.553,0.925,2.109,1.619s0.972,1.519,1.245,2.476s0.41,2.007,0.41,3.149v1.523H189.87c0.049,0.615,0.178,1.182,0.388,1.699s0.496,0.964,0.857,1.34s0.789,0.671,1.282,0.886s1.052,0.322,1.677,0.322c0.879,0,1.643-0.176,2.292-0.527s1.213-0.835,1.692-1.45l1.919,1.831c-0.254,0.381-0.569,0.75-0.945,1.106s-0.815,0.674-1.318,0.952s-1.072,0.503-1.707,0.674S194.66,90.626,193.869,90.626z M193.444,77.047c-0.977,0-1.765,0.342-2.366,1.025s-0.984,1.636-1.15,2.856h6.782v-0.264c-0.029-0.469-0.105-0.92-0.227-1.355s-0.31-0.82-0.564-1.157s-0.583-0.605-0.989-0.806S194.03,77.047,193.444,77.047"/><path d="M214.509,82.409v7.925h-3.706V69.005h8.159c1.24,0,2.341,0.168,3.303,0.505s1.775,0.808,2.439,1.414s1.169,1.323,1.516,2.153s0.52,1.733,0.52,2.71c0,1.035-0.173,1.963-0.52,2.783s-0.852,1.514-1.516,2.08s-1.477,1.001-2.439,1.304s-2.063,0.454-3.303,0.454H214.509z M214.509,79.435h4.453c0.713,0,1.326-0.088,1.838-0.264s0.935-0.425,1.267-0.747s0.574-0.706,0.725-1.15s0.227-0.93,0.227-1.458c0-0.498-0.076-0.977-0.227-1.436s-0.393-0.867-0.725-1.223s-0.754-0.64-1.267-0.85s-1.125-0.315-1.838-0.315h-4.453V79.435"/><path d="M237.932,77.736c-0.234-0.039-0.471-0.068-0.71-0.088s-0.486-0.029-0.74-0.029c-0.859,0-1.558,0.166-2.095,0.498s-0.938,0.791-1.201,1.377v10.84h-3.56v-15.85h3.398l0.088,1.772c0.4-0.645,0.896-1.15,1.487-1.516s1.287-0.549,2.087-0.549c0.205,0,0.437,0.022,0.696,0.066s0.447,0.09,0.564,0.139L237.932,77.736"/><path d="M246.883,90.626c-1.172,0-2.227-0.195-3.164-0.586s-1.734-0.928-2.389-1.611s-1.157-1.494-1.509-2.432s-0.527-1.948-0.527-3.032v-0.586c0-1.25,0.186-2.38,0.557-3.391s0.879-1.87,1.524-2.578c0.645-0.708,1.402-1.255,2.277-1.641c0.873-0.386,1.814-0.579,2.82-0.579c1.152,0,2.152,0.193,3.002,0.579s1.553,0.925,2.109,1.619s0.973,1.519,1.246,2.476s0.41,2.007,0.41,3.149v1.523h-10.357c0.049,0.615,0.178,1.182,0.389,1.699c0.209,0.518,0.496,0.964,0.857,1.34s0.787,0.671,1.281,0.886c0.492,0.215,1.053,0.322,1.678,0.322c0.879,0,1.643-0.176,2.291-0.527c0.65-0.352,1.215-0.835,1.693-1.45l1.918,1.831c-0.254,0.381-0.568,0.75-0.945,1.106c-0.375,0.356-0.814,0.674-1.318,0.952c-0.502,0.278-1.07,0.503-1.705,0.674S247.674,90.626,246.883,90.626z M246.457,77.047c-0.977,0-1.766,0.342-2.365,1.025c-0.602,0.684-0.984,1.636-1.15,2.856h6.783v-0.264c-0.029-0.469-0.105-0.92-0.229-1.355c-0.121-0.435-0.309-0.82-0.563-1.157s-0.584-0.605-0.99-0.806C247.539,77.147,247.043,77.047,246.457,77.047"/><path d="M261.398,85.822l3.354-11.338h3.678l-5.494,15.85h-3.09l-5.537-15.85H258L261.398,85.822"/><path d="M270.656,70.368c0-0.547,0.174-1.001,0.521-1.362c0.346-0.361,0.842-0.542,1.486-0.542s1.143,0.181,1.494,0.542s0.527,0.815,0.527,1.362c0,0.537-0.176,0.984-0.527,1.34s-0.85,0.535-1.494,0.535s-1.141-0.178-1.486-0.535C270.83,71.352,270.656,70.905,270.656,70.368z M274.436,90.333h-3.559v-15.85h3.559V90.333"/><path d="M285.289,90.626c-1.172,0-2.227-0.195-3.164-0.586s-1.732-0.928-2.387-1.611s-1.158-1.494-1.51-2.432s-0.527-1.948-0.527-3.032v-0.586c0-1.25,0.186-2.38,0.557-3.391s0.879-1.87,1.523-2.578s1.404-1.255,2.279-1.641c0.873-0.386,1.813-0.579,2.818-0.579c1.152,0,2.154,0.193,3.004,0.579s1.553,0.925,2.109,1.619s0.971,1.519,1.244,2.476s0.41,2.007,0.41,3.149v1.523h-10.355c0.049,0.615,0.178,1.182,0.389,1.699c0.209,0.518,0.494,0.964,0.855,1.34s0.789,0.671,1.283,0.886c0.492,0.215,1.051,0.322,1.676,0.322c0.879,0,1.643-0.176,2.293-0.527c0.648-0.352,1.213-0.835,1.691-1.45l1.92,1.831c-0.254,0.381-0.57,0.75-0.945,1.106c-0.377,0.356-0.816,0.674-1.318,0.952c-0.504,0.278-1.072,0.503-1.707,0.674S286.08,90.626,285.289,90.626z M284.865,77.047c-0.977,0-1.766,0.342-2.365,1.025c-0.602,0.684-0.984,1.636-1.15,2.856h6.781v-0.264c-0.029-0.469-0.105-0.92-0.227-1.355c-0.123-0.435-0.311-0.82-0.564-1.157s-0.584-0.605-0.988-0.806C285.945,77.147,285.451,77.047,284.865,77.047"/><path d="M308.332,85.426l2.52-10.942h3.473l-4.322,15.85h-2.93l-3.398-10.884l-3.34,10.884h-2.93l-4.336-15.85h3.473l2.563,10.825l3.252-10.825h2.682L308.332,85.426"/></g><rect class="divider" x="108" y="230" width="372" height="1"/><circle class="avatar_backgroundRed" cx="53.098" cy="175.5" r="39"/><g class="avatar_text"><path d="M50.584,176.498h-7.592v5.688h8.874v2.564H39.781v-18.484h11.997v2.59h-8.785v5.104h7.592V176.498"/><path d="M64.143,179.989c0-0.373-0.055-0.705-0.165-0.997s-0.311-0.561-0.603-0.806s-0.694-0.48-1.206-0.705s-1.17-0.459-1.974-0.705c-0.88-0.262-1.693-0.563-2.438-0.901s-1.386-0.732-1.923-1.181s-0.958-0.965-1.263-1.549s-0.457-1.252-0.457-2.006c0-0.745,0.159-1.43,0.476-2.057s0.764-1.168,1.339-1.625s1.265-0.813,2.069-1.066s1.693-0.381,2.666-0.381c1.041,0,1.976,0.15,2.806,0.451s1.53,0.709,2.101,1.225s1.009,1.115,1.314,1.796s0.457,1.407,0.457,2.177h-3.199c0-0.449-0.07-0.861-0.209-1.238s-0.354-0.703-0.641-0.978s-0.652-0.489-1.092-0.641s-0.96-0.229-1.562-0.229c-0.567,0-1.058,0.063-1.473,0.19s-0.76,0.305-1.035,0.533s-0.478,0.5-0.609,0.813s-0.197,0.652-0.197,1.016c0,0.686,0.324,1.257,0.971,1.714s1.636,0.88,2.964,1.27c1.041,0.305,1.942,0.643,2.704,1.016s1.395,0.793,1.898,1.263s0.878,0.999,1.124,1.587s0.368,1.25,0.368,1.987c0,0.779-0.154,1.479-0.463,2.101s-0.749,1.151-1.32,1.587s-1.263,0.77-2.076,1.003s-1.718,0.349-2.717,0.349c-0.889,0-1.765-0.121-2.628-0.362s-1.638-0.605-2.323-1.092s-1.238-1.094-1.657-1.822s-0.628-1.583-0.628-2.564h3.212c0,0.584,0.104,1.085,0.311,1.504s0.491,0.762,0.851,1.028s0.785,0.461,1.276,0.584s1.02,0.184,1.587,0.184c1.117,0,1.957-0.227,2.52-0.679S64.143,180.734,64.143,179.989"/></g><g class="chats_name"><path d="M121.683,157.202h-7.592v5.688h8.874v2.564h-12.086V146.97h11.997v2.59h-8.785v5.104h7.592V157.202"/><path d="M129.795,161.544l2.907-9.826h3.187l-4.761,13.736h-2.679l-4.799-13.736h3.199L129.795,161.544"/><path d="M145.829,165.454c-0.084-0.161-0.154-0.351-0.209-0.571s-0.104-0.457-0.146-0.711c-0.203,0.211-0.43,0.411-0.679,0.597s-0.525,0.349-0.825,0.489s-0.626,0.25-0.978,0.33s-0.726,0.121-1.124,0.121c-0.686,0-1.316-0.104-1.892-0.311s-1.068-0.495-1.479-0.863s-0.732-0.802-0.965-1.301s-0.349-1.041-0.349-1.625c0-0.736,0.14-1.388,0.419-1.955s0.686-1.041,1.219-1.422s1.187-0.671,1.961-0.87s1.657-0.298,2.647-0.298h1.942v-0.901c0-0.711-0.199-1.28-0.597-1.708s-1.003-0.641-1.815-0.641c-0.364,0-0.694,0.049-0.99,0.146s-0.548,0.229-0.755,0.394s-0.368,0.362-0.482,0.59s-0.171,0.474-0.171,0.736h-3.085c0-0.542,0.133-1.064,0.4-1.568s0.646-0.952,1.136-1.346s1.085-0.709,1.784-0.946s1.479-0.355,2.342-0.355c0.77,0,1.481,0.1,2.133,0.298s1.214,0.495,1.688,0.889s0.842,0.884,1.104,1.473s0.394,1.276,0.394,2.063v6.094c0,1.236,0.173,2.222,0.521,2.958v0.216H145.829z M142.439,163.232c0.355,0,0.688-0.046,0.997-0.14s0.588-0.216,0.838-0.368s0.468-0.328,0.654-0.527s0.334-0.4,0.444-0.603v-2.59h-1.663c-1.143,0-2.001,0.199-2.577,0.597s-0.863,0.96-0.863,1.688c0,0.279,0.046,0.538,0.14,0.774s0.233,0.442,0.419,0.616s0.413,0.309,0.679,0.406S142.084,163.232,142.439,163.232"/><path d="M168.122,160.693c0-0.373-0.055-0.705-0.165-0.997s-0.311-0.561-0.603-0.806s-0.694-0.48-1.206-0.705s-1.17-0.459-1.974-0.705c-0.88-0.262-1.693-0.563-2.438-0.901s-1.386-0.732-1.923-1.181s-0.958-0.965-1.263-1.549s-0.457-1.252-0.457-2.006c0-0.745,0.159-1.43,0.476-2.057s0.764-1.168,1.339-1.625s1.265-0.813,2.069-1.066s1.693-0.381,2.666-0.381c1.041,0,1.976,0.15,2.806,0.451s1.53,0.709,2.101,1.225s1.009,1.115,1.314,1.796s0.457,1.407,0.457,2.177h-3.199c0-0.449-0.07-0.861-0.209-1.238s-0.354-0.703-0.641-0.978s-0.652-0.489-1.092-0.641s-0.96-0.229-1.562-0.229c-0.567,0-1.058,0.063-1.473,0.19s-0.76,0.305-1.035,0.533s-0.478,0.5-0.609,0.813s-0.197,0.652-0.197,1.016c0,0.686,0.324,1.257,0.971,1.714s1.636,0.88,2.964,1.27c1.041,0.305,1.942,0.643,2.704,1.016s1.395,0.793,1.898,1.263s0.878,0.999,1.124,1.587s0.368,1.25,0.368,1.987c0,0.779-0.154,1.479-0.463,2.101s-0.749,1.151-1.32,1.587s-1.263,0.77-2.076,1.003s-1.718,0.349-2.717,0.349c-0.889,0-1.765-0.121-2.628-0.362s-1.638-0.605-2.323-1.092s-1.238-1.094-1.657-1.822s-0.628-1.583-0.628-2.564h3.212c0,0.584,0.104,1.085,0.311,1.504s0.491,0.762,0.851,1.028s0.785,0.461,1.276,0.584s1.02,0.184,1.587,0.184c1.117,0,1.957-0.227,2.52-0.679S168.122,161.438,168.122,160.693"/><path d="M182.176,164.108c-0.432,0.508-0.965,0.901-1.6,1.181s-1.388,0.419-2.26,0.419c-0.677,0-1.293-0.095-1.847-0.286s-1.03-0.491-1.428-0.901s-0.707-0.939-0.927-1.587s-0.33-1.424-0.33-2.33v-8.887h3.085v8.912c0,0.5,0.059,0.912,0.178,1.238s0.277,0.588,0.476,0.787s0.43,0.338,0.692,0.419s0.538,0.121,0.825,0.121c0.795,0,1.439-0.144,1.93-0.432s0.859-0.681,1.104-1.181v-9.864h3.085v13.736h-2.907L182.176,164.108"/><path d="M191.202,151.718l0.089,1.435c0.457-0.533,1.014-0.948,1.669-1.244s1.42-0.444,2.292-0.444c0.838,0,1.587,0.167,2.247,0.501s1.168,0.87,1.523,1.606c0.457-0.643,1.035-1.155,1.733-1.536s1.525-0.571,2.482-0.571c0.711,0,1.346,0.095,1.904,0.286s1.03,0.491,1.416,0.901s0.681,0.938,0.889,1.581s0.311,1.417,0.311,2.323v8.899h-3.085v-8.912c0-0.508-0.057-0.925-0.171-1.25s-0.279-0.586-0.495-0.781s-0.474-0.33-0.774-0.406s-0.641-0.114-1.022-0.114c-0.703,0-1.276,0.188-1.72,0.565s-0.755,0.87-0.933,1.479c0,0.042,0.002,0.087,0.006,0.133s0.006,0.091,0.006,0.133v9.153h-3.085v-8.874c0-0.482-0.057-0.889-0.171-1.219s-0.279-0.597-0.495-0.8s-0.476-0.349-0.781-0.438s-0.647-0.133-1.028-0.133c-0.66,0-1.204,0.135-1.631,0.406s-0.76,0.639-0.997,1.104v9.953h-3.085v-13.736H191.202"/><path d="M213.825,151.718l0.089,1.435c0.457-0.533,1.014-0.948,1.669-1.244s1.42-0.444,2.292-0.444c0.838,0,1.587,0.167,2.247,0.501s1.168,0.87,1.523,1.606c0.457-0.643,1.035-1.155,1.733-1.536s1.525-0.571,2.482-0.571c0.711,0,1.346,0.095,1.904,0.286s1.03,0.491,1.416,0.901s0.681,0.938,0.889,1.581s0.311,1.417,0.311,2.323v8.899h-3.085v-8.912c0-0.508-0.057-0.925-0.171-1.25s-0.279-0.586-0.495-0.781s-0.474-0.33-0.774-0.406s-0.641-0.114-1.022-0.114c-0.703,0-1.276,0.188-1.72,0.565s-0.755,0.87-0.933,1.479c0,0.042,0.002,0.087,0.006,0.133s0.006,0.091,0.006,0.133v9.153h-3.085v-8.874c0-0.482-0.057-0.889-0.171-1.219s-0.279-0.597-0.495-0.8s-0.476-0.349-0.781-0.438s-0.647-0.133-1.028-0.133c-0.66,0-1.204,0.135-1.631,0.406s-0.76,0.639-0.997,1.104v9.953h-3.085v-13.736H213.825"/><path d="M239.597,165.708c-1.016,0-1.93-0.169-2.742-0.508s-1.502-0.804-2.069-1.396s-1.003-1.295-1.308-2.107s-0.457-1.688-0.457-2.628v-0.508c0-1.083,0.161-2.063,0.482-2.939s0.762-1.621,1.32-2.234s1.217-1.087,1.974-1.422s1.572-0.501,2.444-0.501c0.999,0,1.866,0.167,2.603,0.501s1.346,0.802,1.828,1.403s0.842,1.316,1.079,2.146s0.355,1.739,0.355,2.729v1.32h-8.976c0.042,0.533,0.154,1.024,0.336,1.473s0.43,0.836,0.743,1.162s0.684,0.582,1.111,0.768s0.912,0.279,1.454,0.279c0.762,0,1.424-0.152,1.987-0.457c0.563-0.305,1.051-0.724,1.466-1.257l1.663,1.587c-0.22,0.33-0.493,0.649-0.818,0.958c-0.326,0.309-0.707,0.584-1.143,0.825c-0.437,0.241-0.93,0.436-1.479,0.584C240.9,165.634,240.282,165.708,239.597,165.708z M239.229,153.939c-0.846,0-1.53,0.296-2.05,0.889s-0.853,1.417-0.997,2.476h5.878v-0.229c-0.025-0.406-0.091-0.798-0.196-1.174c-0.106-0.376-0.27-0.711-0.489-1.003s-0.506-0.525-0.857-0.698S239.736,153.939,239.229,153.939"/><path d="M254.691,154.536c-0.203-0.034-0.408-0.059-0.616-0.076c-0.207-0.017-0.421-0.025-0.641-0.025c-0.745,0-1.35,0.144-1.815,0.432s-0.813,0.686-1.041,1.193v9.395h-3.085v-13.736h2.945l0.076,1.536c0.347-0.559,0.776-0.997,1.289-1.314c0.512-0.317,1.114-0.476,1.809-0.476c0.178,0,0.379,0.019,0.604,0.057c0.224,0.038,0.387,0.078,0.488,0.121L254.691,154.536"/></g><g class="chats_message"><path d="M116.238,196.598h-4.008v6.902h-2.262v-17.063h5.648c1.922,0,3.4,0.438,4.436,1.313s1.553,2.148,1.553,3.82c0,1.063-0.287,1.988-0.861,2.777s-1.373,1.379-2.396,1.77l4.008,7.242v0.141h-2.414L116.238,196.598z M112.23,194.758h3.457c0.609,0,1.143-0.084,1.6-0.252s0.838-0.395,1.143-0.68s0.533-0.621,0.686-1.008s0.229-0.803,0.229-1.248c0-0.492-0.072-0.939-0.217-1.342s-0.369-0.748-0.674-1.037s-0.691-0.512-1.16-0.668s-1.027-0.234-1.676-0.234h-3.387V194.758"/><path d="M129.68,203.734c-0.883,0-1.682-0.152-2.396-0.457s-1.326-0.729-1.834-1.271s-0.898-1.189-1.172-1.939s-0.41-1.57-0.41-2.461v-0.492c0-1.031,0.154-1.953,0.463-2.766s0.721-1.496,1.236-2.051s1.105-0.979,1.77-1.271s1.355-0.439,2.074-0.439c0.906,0,1.688,0.158,2.344,0.475s1.197,0.752,1.623,1.307s0.74,1.211,0.943,1.969s0.305,1.582,0.305,2.473v0.973h-8.59c0.016,0.586,0.111,1.133,0.287,1.641s0.426,0.949,0.75,1.324s0.715,0.672,1.172,0.891s0.975,0.328,1.553,0.328c0.766,0,1.414-0.156,1.945-0.469s0.996-0.727,1.395-1.242l1.324,1.031c-0.203,0.313-0.449,0.615-0.738,0.908s-0.627,0.555-1.014,0.785s-0.83,0.414-1.33,0.551S130.313,203.734,129.68,203.734zM129.41,192.367c-0.438,0-0.84,0.08-1.207,0.24s-0.695,0.393-0.984,0.697s-0.529,0.684-0.721,1.137s-0.322,0.973-0.393,1.559h6.352v-0.164c-0.023-0.422-0.092-0.84-0.205-1.254s-0.289-0.785-0.527-1.113s-0.545-0.594-0.92-0.797S129.965,192.367,129.41,192.367"/><path d="M139.172,190.82l0.059,1.406c0.438-0.516,0.967-0.918,1.588-1.207s1.346-0.434,2.174-0.434c0.82,0,1.545,0.162,2.174,0.486s1.111,0.842,1.447,1.553c0.422-0.609,0.971-1.102,1.646-1.477s1.475-0.563,2.396-0.563c0.68,0,1.281,0.088,1.805,0.264s0.967,0.451,1.33,0.826s0.639,0.852,0.826,1.43s0.281,1.266,0.281,2.063v8.332h-2.168v-8.344c0-0.531-0.064-0.973-0.193-1.324s-0.311-0.633-0.545-0.844s-0.52-0.357-0.855-0.439s-0.707-0.123-1.113-0.123c-0.445,0-0.84,0.07-1.184,0.211s-0.639,0.33-0.885,0.568s-0.441,0.52-0.586,0.844s-0.236,0.67-0.275,1.037v8.414h-2.18v-8.332c0-0.492-0.064-0.912-0.193-1.26s-0.311-0.631-0.545-0.85s-0.518-0.379-0.85-0.48s-0.705-0.152-1.119-0.152c-0.773,0-1.395,0.168-1.863,0.504s-0.82,0.773-1.055,1.313v9.258h-2.168v-12.68H139.172"/><path d="M158.18,187.457c0-0.352,0.107-0.648,0.322-0.891s0.533-0.363,0.955-0.363s0.742,0.121,0.961,0.363s0.328,0.539,0.328,0.891s-0.109,0.645-0.328,0.879s-0.539,0.352-0.961,0.352s-0.74-0.117-0.955-0.352S158.18,187.809,158.18,187.457z M160.523,203.5h-2.168v-12.68h2.168V203.5"/><path d="M166.043,190.82l0.07,1.594c0.453-0.57,1-1.018,1.641-1.342s1.359-0.486,2.156-0.486c0.617,0,1.176,0.084,1.676,0.252s0.926,0.438,1.277,0.809s0.623,0.848,0.814,1.43s0.287,1.287,0.287,2.115v8.309h-2.168v-8.332c0-0.492-0.055-0.912-0.164-1.26s-0.271-0.631-0.486-0.85s-0.48-0.379-0.797-0.48s-0.682-0.152-1.096-0.152c-0.703,0-1.32,0.188-1.852,0.563s-0.945,0.867-1.242,1.477v9.035h-2.168v-12.68H166.043"/><path d="M176.707,197.055c0-0.969,0.119-1.85,0.357-2.643s0.576-1.473,1.014-2.039s0.963-1.006,1.576-1.318s1.299-0.469,2.057-0.469c0.773,0,1.449,0.131,2.027,0.393s1.078,0.639,1.5,1.131V185.5h2.168v18h-1.992l-0.105-1.359c-0.422,0.516-0.93,0.91-1.523,1.184s-1.293,0.41-2.098,0.41c-0.742,0-1.42-0.16-2.033-0.48s-1.139-0.768-1.576-1.342s-0.775-1.254-1.014-2.039s-0.357-1.643-0.357-2.572V197.055z M178.875,197.301c0,0.633,0.064,1.229,0.193,1.787s0.33,1.045,0.604,1.459s0.621,0.742,1.043,0.984s0.926,0.363,1.512,0.363c0.383,0,0.727-0.045,1.031-0.135s0.58-0.217,0.826-0.381s0.465-0.359,0.656-0.586s0.357-0.477,0.498-0.75v-5.824c-0.141-0.258-0.305-0.496-0.492-0.715s-0.404-0.408-0.65-0.568s-0.521-0.285-0.826-0.375s-0.645-0.135-1.02-0.135c-0.594,0-1.104,0.123-1.529,0.369s-0.775,0.58-1.049,1.002s-0.475,0.912-0.604,1.471s-0.193,1.154-0.193,1.787V197.301"/><path d="M198.152,200.137c0-0.234-0.035-0.455-0.105-0.662s-0.209-0.402-0.416-0.586s-0.502-0.354-0.885-0.51s-0.887-0.301-1.512-0.434c-0.703-0.148-1.336-0.324-1.898-0.527s-1.041-0.447-1.436-0.732s-0.697-0.623-0.908-1.014s-0.316-0.848-0.316-1.371c0-0.5,0.111-0.975,0.334-1.424s0.537-0.844,0.943-1.184s0.898-0.609,1.477-0.809s1.223-0.299,1.934-0.299c0.758,0,1.436,0.104,2.033,0.311s1.105,0.49,1.523,0.85s0.736,0.779,0.955,1.26s0.328,0.994,0.328,1.541h-2.18c0-0.258-0.059-0.518-0.176-0.779s-0.289-0.496-0.516-0.703s-0.504-0.375-0.832-0.504s-0.707-0.193-1.137-0.193c-0.453,0-0.838,0.053-1.154,0.158s-0.576,0.246-0.779,0.422s-0.352,0.375-0.445,0.598s-0.141,0.451-0.141,0.686s0.039,0.445,0.117,0.633s0.227,0.357,0.445,0.51s0.518,0.293,0.896,0.422s0.869,0.26,1.471,0.393c0.773,0.18,1.445,0.383,2.016,0.609s1.043,0.49,1.418,0.791s0.654,0.646,0.838,1.037s0.275,0.844,0.275,1.359c0,0.555-0.115,1.063-0.346,1.523s-0.561,0.855-0.99,1.184s-0.945,0.584-1.547,0.768s-1.27,0.275-2.004,0.275c-0.844,0-1.588-0.117-2.232-0.352s-1.186-0.545-1.623-0.932s-0.77-0.828-0.996-1.324s-0.34-1.006-0.34-1.529h2.168c0.023,0.445,0.131,0.818,0.322,1.119s0.432,0.545,0.721,0.732s0.605,0.32,0.949,0.398s0.688,0.117,1.031,0.117c0.445,0,0.836-0.047,1.172-0.141s0.619-0.223,0.85-0.387s0.404-0.357,0.521-0.58S198.152,200.395,198.152,200.137"/><path d="M211.125,190.82l0.059,1.406c0.438-0.516,0.967-0.918,1.588-1.207s1.346-0.434,2.174-0.434c0.82,0,1.545,0.162,2.174,0.486s1.111,0.842,1.447,1.553c0.422-0.609,0.971-1.102,1.646-1.477s1.475-0.563,2.396-0.563c0.68,0,1.281,0.088,1.805,0.264s0.967,0.451,1.33,0.826s0.639,0.852,0.826,1.43s0.281,1.266,0.281,2.063v8.332h-2.168v-8.344c0-0.531-0.064-0.973-0.193-1.324s-0.311-0.633-0.545-0.844s-0.52-0.357-0.855-0.439s-0.707-0.123-1.113-0.123c-0.445,0-0.84,0.07-1.184,0.211s-0.639,0.33-0.885,0.568s-0.441,0.52-0.586,0.844s-0.236,0.67-0.275,1.037v8.414h-2.18v-8.332c0-0.492-0.064-0.912-0.193-1.26s-0.311-0.631-0.545-0.85s-0.518-0.379-0.85-0.48s-0.705-0.152-1.119-0.152c-0.773,0-1.395,0.168-1.863,0.504s-0.82,0.773-1.055,1.313v9.258h-2.168v-12.68H211.125"/><path d="M235.383,203.734c-0.883,0-1.682-0.152-2.396-0.457s-1.326-0.729-1.834-1.271s-0.898-1.189-1.172-1.939s-0.41-1.57-0.41-2.461v-0.492c0-1.031,0.154-1.953,0.463-2.766s0.721-1.496,1.236-2.051s1.105-0.979,1.77-1.271s1.355-0.439,2.074-0.439c0.906,0,1.688,0.158,2.344,0.475s1.197,0.752,1.623,1.307s0.74,1.211,0.943,1.969s0.305,1.582,0.305,2.473v0.973h-8.59c0.016,0.586,0.111,1.133,0.287,1.641s0.426,0.949,0.75,1.324s0.715,0.672,1.172,0.891s0.975,0.328,1.553,0.328c0.766,0,1.414-0.156,1.945-0.469s0.996-0.727,1.395-1.242l1.324,1.031c-0.203,0.313-0.449,0.615-0.738,0.908s-0.627,0.555-1.014,0.785s-0.83,0.414-1.33,0.551S236.016,203.734,235.383,203.734zM235.113,192.367c-0.438,0-0.84,0.08-1.207,0.24s-0.695,0.393-0.984,0.697s-0.529,0.684-0.721,1.137s-0.322,0.973-0.393,1.559h6.352v-0.164c-0.023-0.422-0.092-0.84-0.205-1.254s-0.289-0.785-0.527-1.113s-0.545-0.594-0.92-0.797S235.668,192.367,235.113,192.367"/><path d="M248.203,197.043c0-0.922,0.135-1.775,0.404-2.561s0.652-1.467,1.148-2.045s1.1-1.031,1.811-1.359s1.508-0.492,2.391-0.492c0.898,0,1.705,0.164,2.42,0.492s1.322,0.781,1.822,1.359s0.883,1.26,1.148,2.045s0.398,1.639,0.398,2.561v0.258c0,0.922-0.133,1.775-0.398,2.561s-0.648,1.465-1.148,2.039s-1.105,1.023-1.816,1.348s-1.512,0.486-2.402,0.486s-1.691-0.162-2.402-0.486s-1.316-0.773-1.816-1.348s-0.885-1.254-1.154-2.039s-0.404-1.639-0.404-2.561V197.043z M250.383,197.301c0,0.633,0.074,1.23,0.223,1.793s0.373,1.057,0.674,1.482s0.676,0.764,1.125,1.014s0.975,0.375,1.576,0.375c0.594,0,1.117-0.125,1.57-0.375s0.828-0.588,1.125-1.014s0.521-0.92,0.674-1.482s0.229-1.16,0.229-1.793v-0.258c0-0.625-0.076-1.221-0.229-1.787s-0.379-1.063-0.68-1.488s-0.678-0.766-1.131-1.02s-0.98-0.381-1.582-0.381c-0.594,0-1.113,0.127-1.559,0.381s-0.818,0.594-1.119,1.02s-0.525,0.922-0.674,1.488s-0.223,1.162-0.223,1.787V197.301"/><path d="M263.531,203.5v-11.004h-2.004v-1.676h2.004v-1.336c0-0.68,0.096-1.283,0.287-1.811s0.467-0.971,0.826-1.33s0.797-0.631,1.313-0.814s1.098-0.275,1.746-0.275c0.5,0,0.996,0.066,1.488,0.199l-0.117,1.758c-0.164-0.031-0.35-0.057-0.557-0.076s-0.412-0.029-0.615-0.029c-0.703,0-1.246,0.205-1.629,0.615s-0.574,0.998-0.574,1.764v1.336h2.707v1.676h-2.707V203.5H263.531"/><path d="M284.566,203.5c-0.078-0.156-0.141-0.354-0.188-0.592s-0.086-0.486-0.117-0.744c-0.203,0.211-0.432,0.412-0.686,0.604s-0.531,0.359-0.832,0.504s-0.627,0.258-0.979,0.34s-0.723,0.123-1.113,0.123c-0.648,0-1.236-0.098-1.764-0.293s-0.977-0.461-1.348-0.797s-0.658-0.732-0.861-1.189s-0.305-0.947-0.305-1.471c0-0.68,0.133-1.279,0.398-1.799s0.646-0.955,1.143-1.307s1.096-0.617,1.799-0.797s1.488-0.27,2.355-0.27h2.156v-0.996c0-0.758-0.227-1.361-0.68-1.811s-1.121-0.674-2.004-0.674c-0.406,0-0.777,0.055-1.113,0.164s-0.623,0.256-0.861,0.439s-0.424,0.396-0.557,0.639s-0.199,0.496-0.199,0.762h-2.18c0-0.453,0.119-0.902,0.357-1.348s0.576-0.846,1.014-1.201s0.967-0.645,1.588-0.867s1.314-0.334,2.08-0.334c0.688,0,1.322,0.088,1.904,0.264s1.08,0.441,1.494,0.797s0.738,0.799,0.973,1.33s0.352,1.152,0.352,1.863v5.895c0,0.43,0.037,0.881,0.111,1.354s0.186,0.881,0.334,1.225v0.188H284.566z M280.969,201.848c0.391,0,0.758-0.055,1.102-0.164s0.656-0.252,0.938-0.428s0.525-0.377,0.732-0.604s0.369-0.461,0.486-0.703v-2.602h-1.805c-1.242,0-2.199,0.193-2.871,0.58s-1.008,0.971-1.008,1.752c0,0.305,0.051,0.59,0.152,0.855s0.256,0.494,0.463,0.686s0.461,0.344,0.762,0.457S280.57,201.848,280.969,201.848"/><path d="M308.625,198.086c-0.094,0.805-0.291,1.553-0.592,2.244s-0.717,1.289-1.248,1.793s-1.18,0.898-1.945,1.184s-1.66,0.428-2.684,0.428c-1.008,0-1.922-0.188-2.742-0.563s-1.521-0.908-2.104-1.6s-1.031-1.521-1.348-2.49s-0.475-2.051-0.475-3.246v-1.711c0-1.195,0.16-2.279,0.48-3.252s0.777-1.805,1.371-2.496s1.314-1.227,2.162-1.605s1.799-0.568,2.854-0.568c0.961,0,1.813,0.141,2.555,0.422s1.373,0.674,1.893,1.178s0.932,1.105,1.236,1.805s0.5,1.471,0.586,2.314h-2.262c-0.086-0.594-0.219-1.129-0.398-1.605s-0.428-0.883-0.744-1.219s-0.709-0.594-1.178-0.773s-1.031-0.27-1.688-0.27c-0.758,0-1.424,0.146-1.998,0.439s-1.055,0.703-1.441,1.23s-0.678,1.164-0.873,1.91s-0.293,1.568-0.293,2.467v1.734c0,0.836,0.088,1.621,0.264,2.355s0.443,1.377,0.803,1.928s0.816,0.984,1.371,1.301s1.211,0.475,1.969,0.475c0.719,0,1.324-0.086,1.816-0.258s0.9-0.42,1.225-0.744s0.576-0.723,0.756-1.195s0.316-1.01,0.41-1.611H308.625"/><path d="M313.523,192.355c0.453-0.555,0.996-0.988,1.629-1.301s1.34-0.469,2.121-0.469c0.617,0,1.176,0.084,1.676,0.252s0.926,0.438,1.277,0.809s0.623,0.848,0.814,1.43s0.287,1.287,0.287,2.115v8.309h-2.168v-8.332c0-0.492-0.055-0.912-0.164-1.26s-0.271-0.631-0.486-0.85s-0.48-0.379-0.797-0.48s-0.682-0.152-1.096-0.152c-0.703,0-1.32,0.188-1.852,0.563s-0.945,0.867-1.242,1.477v9.035h-2.168v-18h2.168V192.355"/><path d="M324.586,187.457c0-0.352,0.107-0.648,0.322-0.891s0.533-0.363,0.955-0.363s0.742,0.121,0.961,0.363s0.328,0.539,0.328,0.891s-0.109,0.645-0.328,0.879s-0.539,0.352-0.961,0.352s-0.74-0.117-0.955-0.352S324.586,187.809,324.586,187.457z M326.93,203.5h-2.168v-12.68h2.168V203.5"/><path d="M332.449,190.82l0.07,1.594c0.453-0.57,1-1.018,1.641-1.342s1.359-0.486,2.156-0.486c0.617,0,1.176,0.084,1.676,0.252s0.926,0.438,1.277,0.809s0.623,0.848,0.814,1.43s0.287,1.287,0.287,2.115v8.309h-2.168v-8.332c0-0.492-0.055-0.912-0.164-1.26s-0.271-0.631-0.486-0.85s-0.48-0.379-0.797-0.48s-0.682-0.152-1.096-0.152c-0.703,0-1.32,0.188-1.852,0.563s-0.945,0.867-1.242,1.477v9.035h-2.168v-12.68H332.449"/><path d="M348.902,203.734c-0.883,0-1.682-0.152-2.396-0.457s-1.326-0.729-1.834-1.271s-0.898-1.189-1.172-1.939s-0.41-1.57-0.41-2.461v-0.492c0-1.031,0.154-1.953,0.463-2.766s0.721-1.496,1.236-2.051s1.105-0.979,1.77-1.271s1.355-0.439,2.074-0.439c0.906,0,1.688,0.158,2.344,0.475s1.197,0.752,1.623,1.307s0.74,1.211,0.943,1.969s0.305,1.582,0.305,2.473v0.973h-8.59c0.016,0.586,0.111,1.133,0.287,1.641s0.426,0.949,0.75,1.324s0.715,0.672,1.172,0.891s0.975,0.328,1.553,0.328c0.766,0,1.414-0.156,1.945-0.469s0.996-0.727,1.395-1.242l1.324,1.031c-0.203,0.313-0.449,0.615-0.738,0.908s-0.627,0.555-1.014,0.785s-0.83,0.414-1.33,0.551S349.535,203.734,348.902,203.734zM348.633,192.367c-0.438,0-0.84,0.08-1.207,0.24s-0.695,0.393-0.984,0.697s-0.529,0.684-0.721,1.137s-0.322,0.973-0.393,1.559h6.352v-0.164c-0.023-0.422-0.092-0.84-0.205-1.254s-0.289-0.785-0.527-1.113s-0.545-0.594-0.92-0.797S349.188,192.367,348.633,192.367"/><path d="M363.738,200.137c0-0.234-0.035-0.455-0.105-0.662s-0.209-0.402-0.416-0.586s-0.502-0.354-0.885-0.51s-0.887-0.301-1.512-0.434c-0.703-0.148-1.336-0.324-1.898-0.527s-1.041-0.447-1.436-0.732s-0.697-0.623-0.908-1.014s-0.316-0.848-0.316-1.371c0-0.5,0.111-0.975,0.334-1.424s0.537-0.844,0.943-1.184s0.898-0.609,1.477-0.809s1.223-0.299,1.934-0.299c0.758,0,1.436,0.104,2.033,0.311s1.105,0.49,1.523,0.85s0.736,0.779,0.955,1.26s0.328,0.994,0.328,1.541h-2.18c0-0.258-0.059-0.518-0.176-0.779s-0.289-0.496-0.516-0.703s-0.504-0.375-0.832-0.504s-0.707-0.193-1.137-0.193c-0.453,0-0.838,0.053-1.154,0.158s-0.576,0.246-0.779,0.422s-0.352,0.375-0.445,0.598s-0.141,0.451-0.141,0.686s0.039,0.445,0.117,0.633s0.227,0.357,0.445,0.51s0.518,0.293,0.896,0.422s0.869,0.26,1.471,0.393c0.773,0.18,1.445,0.383,2.016,0.609s1.043,0.49,1.418,0.791s0.654,0.646,0.838,1.037s0.275,0.844,0.275,1.359c0,0.555-0.115,1.063-0.346,1.523s-0.561,0.855-0.99,1.184s-0.945,0.584-1.547,0.768s-1.27,0.275-2.004,0.275c-0.844,0-1.588-0.117-2.232-0.352s-1.186-0.545-1.623-0.932s-0.77-0.828-0.996-1.324s-0.34-1.006-0.34-1.529h2.168c0.023,0.445,0.131,0.818,0.322,1.119s0.432,0.545,0.721,0.732s0.605,0.32,0.949,0.398s0.688,0.117,1.031,0.117c0.445,0,0.836-0.047,1.172-0.141s0.619-0.223,0.85-0.387s0.404-0.357,0.521-0.58S363.738,200.395,363.738,200.137"/><path d="M368.824,202.363c0-0.375,0.111-0.688,0.334-0.938s0.557-0.375,1.002-0.375s0.783,0.125,1.014,0.375s0.346,0.563,0.346,0.938c0,0.359-0.115,0.66-0.346,0.902s-0.568,0.363-1.014,0.363s-0.779-0.121-1.002-0.363S368.824,202.723,368.824,202.363z M373.945,202.363c0-0.375,0.111-0.688,0.334-0.938s0.557-0.375,1.002-0.375s0.783,0.125,1.014,0.375s0.346,0.563,0.346,0.938c0,0.359-0.115,0.66-0.346,0.902s-0.568,0.363-1.014,0.363s-0.779-0.121-1.002-0.363S373.945,202.723,373.945,202.363z M378.809,202.363c0-0.375,0.111-0.688,0.334-0.938s0.557-0.375,1.002-0.375s0.783,0.125,1.014,0.375s0.346,0.563,0.346,0.938c0,0.359-0.115,0.66-0.346,0.902s-0.568,0.363-1.014,0.363s-0.779-0.121-1.002-0.363S378.809,202.723,378.809,202.363"/></g><g class="chats_sentCheck"><path d="M376.689,161.866l-5.285-5.286l-1.801,1.788l7.086,7.086l15.213-15.212l-1.787-1.788L376.689,161.866"/><polygon points="398.741,148.454 385.315,161.866 384.109,160.66 382.315,162.454 385.315,165.454,400.528,150.242"/></g><g class="chats_date"><path d="M418.248,166.5h-9.316v-1.299l4.658-5.176c0.43-0.475,0.786-0.895,1.069-1.26s0.508-0.698,0.674-1.001s0.281-0.586,0.347-0.85s0.098-0.532,0.098-0.806c0-0.352-0.056-0.682-0.166-0.991s-0.271-0.578-0.479-0.806s-0.466-0.409-0.771-0.542s-0.657-0.2-1.055-0.2c-0.481,0-0.9,0.072-1.255,0.215s-0.649,0.342-0.884,0.596s-0.41,0.558-0.527,0.913s-0.176,0.747-0.176,1.177h-1.807c0-0.599,0.1-1.166,0.298-1.699s0.493-1,0.884-1.396s0.876-0.711,1.455-0.942s1.25-0.347,2.012-0.347c0.671,0,1.271,0.091,1.802,0.273s0.979,0.441,1.348,0.776s0.649,0.737,0.845,1.206s0.293,0.986,0.293,1.553c0,0.417-0.071,0.836-0.215,1.26s-0.335,0.845-0.576,1.265s-0.524,0.836-0.85,1.25s-0.667,0.819-1.025,1.216l-3.818,4.141h7.139V166.5"/><path d="M429.078,160.436c0,1.166-0.104,2.147-0.313,2.944s-0.506,1.442-0.894,1.934s-0.856,0.845-1.406,1.06s-1.17,0.322-1.86,0.322c-0.684,0-1.302-0.107-1.855-0.322s-1.025-0.568-1.416-1.06s-0.693-1.136-0.908-1.934s-0.322-1.779-0.322-2.944v-2.168c0-1.166,0.105-2.142,0.317-2.93s0.513-1.422,0.903-1.904s0.861-0.827,1.411-1.035s1.167-0.313,1.851-0.313c0.69,0,1.312,0.104,1.865,0.313s1.025,0.553,1.416,1.035s0.69,1.117,0.898,1.904s0.313,1.764,0.313,2.93V160.436z M427.271,157.965c0-0.801-0.057-1.481-0.171-2.041s-0.285-1.014-0.513-1.362s-0.51-0.601-0.845-0.757s-0.721-0.234-1.157-0.234c-0.43,0-0.813,0.078-1.147,0.234s-0.615,0.409-0.84,0.757s-0.396,0.802-0.513,1.362s-0.176,1.24-0.176,2.041v2.754c0,0.794,0.059,1.476,0.176,2.046s0.291,1.037,0.522,1.401s0.515,0.631,0.85,0.801s0.718,0.254,1.147,0.254c0.442,0,0.83-0.084,1.162-0.254s0.61-0.436,0.835-0.801s0.393-0.832,0.503-1.401s0.166-1.251,0.166-2.046V157.965"/><path d="M431.52,165.553c0-0.313,0.093-0.573,0.278-0.781s0.464-0.313,0.835-0.313s0.652,0.104,0.845,0.313s0.288,0.469,0.288,0.781c0,0.299-0.096,0.55-0.288,0.752s-0.474,0.303-0.845,0.303s-0.649-0.101-0.835-0.303S431.52,165.852,431.52,165.553z M431.529,156.93c0-0.313,0.093-0.573,0.278-0.781s0.464-0.313,0.835-0.313s0.652,0.104,0.845,0.313s0.288,0.469,0.288,0.781c0,0.299-0.096,0.55-0.288,0.752s-0.474,0.303-0.845,0.303s-0.649-0.101-0.835-0.303S431.529,157.229,431.529,156.93"/><path d="M443.863,161.725h1.973v1.475h-1.973v3.301h-1.816v-3.301h-6.475v-1.064l6.367-9.854h1.924V161.725zM437.623,161.725h4.424v-6.973l-0.215,0.391L437.623,161.725"/><path d="M456.383,160.436c0,1.166-0.104,2.147-0.313,2.944s-0.506,1.442-0.894,1.934s-0.856,0.845-1.406,1.06s-1.17,0.322-1.86,0.322c-0.684,0-1.302-0.107-1.855-0.322s-1.025-0.568-1.416-1.06s-0.693-1.136-0.908-1.934s-0.322-1.779-0.322-2.944v-2.168c0-1.166,0.105-2.142,0.317-2.93s0.513-1.422,0.903-1.904s0.861-0.827,1.411-1.035s1.167-0.313,1.851-0.313c0.69,0,1.312,0.104,1.865,0.313s1.025,0.553,1.416,1.035s0.69,1.117,0.898,1.904s0.313,1.764,0.313,2.93V160.436z M454.576,157.965c0-0.801-0.057-1.481-0.171-2.041s-0.285-1.014-0.513-1.362s-0.51-0.601-0.845-0.757s-0.721-0.234-1.157-0.234c-0.43,0-0.813,0.078-1.147,0.234s-0.615,0.409-0.84,0.757s-0.396,0.802-0.513,1.362s-0.176,1.24-0.176,2.041v2.754c0,0.794,0.059,1.476,0.176,2.046s0.291,1.037,0.522,1.401s0.515,0.631,0.85,0.801s0.718,0.254,1.147,0.254c0.442,0,0.83-0.084,1.162-0.254s0.61-0.436,0.835-0.801s0.393-0.832,0.503-1.401s0.166-1.251,0.166-2.046V157.965"/></g></svg>
