<svg viewBox="0 665 480 189" xmlns="http://www.w3.org/2000/svg"><rect y="665.334" width="480" height="188.666"/><rect class="windowBackgroundGray" y="665.334" width="480" height="188.666"/><rect class="windowBackgroundWhite" y="755" width="480" height="99"/><rect class="player_seekBarBackground" y="710.001" width="480" height="44.999"/><image opacity="0.05" width="480" height="9" href="player_seekBarBackground-shadow.png"  transform="matrix(0.9999 0 0 0.9999 0.0298 701.334)"/><g class="player_button"><path d="M223.026,787.035v37l31.994-18.5L223.026,787.035z"/><path d="M134.75,791h4.666v28h-4.666V791z M142.916,805l19.834,14v-28L142.916,805z"/><path d="M342.5,819h-4.666v-28h4.666V819z M334.334,805L314.5,791v28L334.334,805z"/><path d="M416.676,800.547l-7.77-7.756l-2.115,2.115l7.755,7.754L416.676,800.547z M422.541,792.791l3.061,3.061l-18.811,18.824l2.115,2.115l18.824-18.813l3.061,3.063v-8.25H422.541L422.541,792.791z M423.036,806.906l-2.115,2.114l4.694,4.694l-3.074,3.074h8.25v-8.25l-3.061,3.061L423.036,806.906z"/></g><path class="player_buttonActive" d="M51.181,797.43H66.32v4.543l6.056-6.055l-6.056-6.057v4.541H48.152v9.084h3.028L51.181,797.43L51.181,797.43z M66.319,812.57H51.181v-4.543l-6.056,6.057l6.056,6.055v-4.541h18.167v-9.084H66.32L66.319,812.57L66.319,812.57z"/><g class="player_time"><path d="M25.088,734.542c0,1.049-0.094,1.933-0.281,2.649c-0.188,0.719-0.455,1.299-0.805,1.738c-0.348,0.443-0.77,0.763-1.266,0.954c-0.494,0.193-1.053,0.29-1.674,0.29c-0.615,0-1.172-0.097-1.67-0.29c-0.498-0.191-0.923-0.511-1.274-0.954c-0.352-0.439-0.624-1.021-0.817-1.738c-0.193-0.719-0.29-1.603-0.29-2.649v-1.951c0-1.049,0.095-1.928,0.286-2.637c0.189-0.709,0.461-1.28,0.813-1.714c0.352-0.436,0.775-0.744,1.27-0.934c0.496-0.188,1.051-0.279,1.666-0.279c0.621,0,1.181,0.094,1.679,0.279c0.498,0.188,0.923,0.498,1.274,0.934c0.351,0.434,0.621,1.005,0.809,1.714s0.281,1.588,0.281,2.637L25.088,734.542L25.088,734.542z M23.462,732.318c0-0.723-0.052-1.333-0.153-1.837c-0.104-0.506-0.257-0.912-0.462-1.228c-0.205-0.313-0.458-0.541-0.761-0.682c-0.301-0.143-0.648-0.211-1.041-0.211c-0.387,0-0.73,0.068-1.033,0.211c-0.301,0.141-0.553,0.368-0.756,0.682c-0.201,0.313-0.355,0.722-0.461,1.228c-0.106,0.504-0.158,1.114-0.158,1.837v2.479c0,0.715,0.053,1.329,0.158,1.842c0.105,0.515,0.262,0.935,0.471,1.263c0.207,0.326,0.463,0.566,0.764,0.721c0.303,0.151,0.646,0.229,1.033,0.229c0.398,0,0.747-0.074,1.046-0.229c0.299-0.153,0.55-0.395,0.751-0.721c0.203-0.328,0.354-0.748,0.453-1.263c0.099-0.513,0.149-1.127,0.149-1.842V732.318z"/><path d="M27.285,739.147c0-0.281,0.084-0.518,0.25-0.703c0.168-0.188,0.418-0.281,0.752-0.281s0.588,0.094,0.76,0.281c0.174,0.188,0.26,0.422,0.26,0.703c0,0.27-0.086,0.493-0.26,0.677c-0.172,0.182-0.426,0.271-0.76,0.271s-0.584-0.091-0.752-0.271C27.369,739.643,27.285,739.417,27.285,739.147z M27.294,731.387c0-0.279,0.083-0.516,0.251-0.703c0.166-0.188,0.417-0.279,0.751-0.279s0.587,0.094,0.761,0.279c0.172,0.188,0.259,0.424,0.259,0.703c0,0.271-0.087,0.495-0.259,0.679c-0.174,0.182-0.427,0.271-0.761,0.271s-0.585-0.091-0.751-0.271C27.377,731.882,27.294,731.656,27.294,731.387z"/><path d="M39.555,734.542c0,1.049-0.094,1.933-0.281,2.649c-0.188,0.719-0.455,1.299-0.805,1.738c-0.348,0.443-0.77,0.763-1.266,0.954c-0.494,0.193-1.053,0.29-1.674,0.29c-0.615,0-1.172-0.097-1.67-0.29c-0.498-0.191-0.923-0.511-1.274-0.954c-0.352-0.439-0.624-1.021-0.817-1.738c-0.193-0.719-0.29-1.603-0.29-2.649v-1.951c0-1.049,0.095-1.928,0.286-2.637c0.189-0.709,0.461-1.28,0.813-1.714c0.352-0.436,0.775-0.744,1.27-0.934c0.496-0.188,1.051-0.279,1.666-0.279c0.621,0,1.181,0.094,1.679,0.279c0.498,0.188,0.923,0.498,1.274,0.934c0.351,0.434,0.621,1.005,0.809,1.714s0.281,1.588,0.281,2.637L39.555,734.542L39.555,734.542z M37.929,732.318c0-0.723-0.052-1.333-0.153-1.837c-0.104-0.506-0.257-0.912-0.462-1.228c-0.205-0.313-0.458-0.541-0.761-0.682c-0.301-0.143-0.648-0.211-1.041-0.211c-0.387,0-0.73,0.068-1.033,0.211c-0.301,0.141-0.553,0.368-0.756,0.682c-0.201,0.313-0.355,0.722-0.461,1.228c-0.106,0.504-0.158,1.114-0.158,1.837v2.479c0,0.715,0.053,1.329,0.158,1.842c0.105,0.515,0.262,0.935,0.471,1.263c0.207,0.326,0.463,0.566,0.764,0.721c0.303,0.151,0.646,0.229,1.033,0.229c0.398,0,0.747-0.074,1.046-0.229c0.299-0.153,0.55-0.395,0.751-0.721c0.203-0.328,0.354-0.748,0.453-1.263c0.099-0.513,0.149-1.127,0.149-1.842V732.318z"/><path d="M49.662,734.542c0,1.049-0.094,1.933-0.281,2.649c-0.188,0.719-0.455,1.299-0.805,1.738c-0.348,0.443-0.77,0.763-1.266,0.954c-0.494,0.193-1.053,0.29-1.674,0.29c-0.615,0-1.172-0.097-1.67-0.29c-0.498-0.191-0.923-0.511-1.274-0.954c-0.352-0.439-0.624-1.021-0.817-1.738c-0.193-0.719-0.29-1.603-0.29-2.649v-1.951c0-1.049,0.095-1.928,0.286-2.637c0.189-0.709,0.461-1.28,0.813-1.714c0.352-0.436,0.775-0.744,1.27-0.934c0.496-0.188,1.051-0.279,1.666-0.279c0.621,0,1.181,0.094,1.679,0.279c0.498,0.188,0.923,0.498,1.274,0.934c0.351,0.434,0.621,1.005,0.809,1.714s0.281,1.588,0.281,2.637L49.662,734.542L49.662,734.542z M48.036,732.318c0-0.723-0.052-1.333-0.153-1.837c-0.104-0.506-0.257-0.912-0.462-1.228c-0.205-0.313-0.458-0.541-0.761-0.682c-0.301-0.143-0.648-0.211-1.041-0.211c-0.387,0-0.73,0.068-1.033,0.211c-0.301,0.141-0.553,0.368-0.756,0.682c-0.201,0.313-0.355,0.722-0.461,1.228c-0.106,0.504-0.158,1.114-0.158,1.837v2.479c0,0.715,0.053,1.329,0.158,1.842c0.105,0.515,0.262,0.935,0.471,1.263c0.207,0.326,0.463,0.566,0.764,0.721c0.303,0.151,0.646,0.229,1.033,0.229c0.398,0,0.747-0.074,1.046-0.229c0.299-0.153,0.55-0.395,0.751-0.721c0.203-0.328,0.354-0.748,0.453-1.263c0.099-0.513,0.149-1.127,0.149-1.842V732.318z"/></g><g class="player_duration"><path d="M435.948,740h-1.636v-10.837l-3.277,1.204v-1.479l4.658-1.749h0.255V740L435.948,740z"/><path d="M440.826,739.147c0-0.281,0.084-0.518,0.25-0.703c0.168-0.188,0.418-0.281,0.752-0.281s0.588,0.094,0.76,0.281c0.174,0.188,0.26,0.422,0.26,0.703c0,0.27-0.086,0.493-0.26,0.677c-0.172,0.182-0.426,0.271-0.76,0.271s-0.584-0.091-0.752-0.271C440.91,739.643,440.826,739.417,440.826,739.147z M440.835,731.387c0-0.279,0.083-0.516,0.251-0.703c0.166-0.188,0.417-0.279,0.751-0.279s0.587,0.094,0.761,0.279c0.172,0.188,0.261,0.424,0.261,0.703c0,0.271-0.089,0.495-0.261,0.679c-0.174,0.182-0.427,0.271-0.761,0.271s-0.585-0.091-0.751-0.271C440.918,731.882,440.835,731.656,440.835,731.387z"/><path d="M453.456,740h-8.385v-1.169l4.19-4.658c0.389-0.428,0.707-0.806,0.963-1.134s0.457-0.629,0.605-0.9c0.15-0.271,0.254-0.525,0.313-0.766c0.061-0.236,0.09-0.479,0.09-0.725c0-0.316-0.052-0.613-0.149-0.895c-0.1-0.276-0.243-0.52-0.431-0.725c-0.188-0.205-0.419-0.367-0.694-0.488c-0.275-0.119-0.592-0.18-0.949-0.18c-0.434,0-0.81,0.063-1.13,0.191c-0.318,0.13-0.584,0.31-0.795,0.536c-0.211,0.229-0.369,0.503-0.475,0.821c-0.105,0.32-0.158,0.673-0.158,1.06h-1.626c0-0.539,0.089-1.049,0.269-1.527c0.18-0.48,0.443-0.899,0.795-1.258c0.354-0.357,0.788-0.641,1.312-0.849c0.521-0.208,1.125-0.313,1.811-0.313c0.604,0,1.146,0.082,1.622,0.245c0.479,0.163,0.881,0.396,1.213,0.698c0.33,0.304,0.584,0.663,0.762,1.085c0.176,0.422,0.264,0.89,0.264,1.397c0,0.375-0.064,0.753-0.193,1.134s-0.302,0.761-0.519,1.138c-0.217,0.379-0.472,0.754-0.767,1.125c-0.293,0.373-0.601,0.737-0.923,1.097l-3.437,3.727h6.425L453.456,740L453.456,740z"/><path d="M461.551,727.194v1.38h-0.147c-0.779,0-1.441,0.117-1.986,0.352c-0.545,0.235-0.993,0.547-1.345,0.938c-0.354,0.391-0.618,0.837-0.8,1.341c-0.184,0.504-0.298,1.023-0.345,1.563c0.354-0.402,0.766-0.696,1.234-0.884c0.473-0.184,0.979-0.274,1.525-0.274c0.639,0,1.188,0.121,1.646,0.362c0.459,0.244,0.839,0.563,1.138,0.959c0.301,0.396,0.521,0.847,0.663,1.351c0.146,0.504,0.216,1.02,0.216,1.547c0,0.607-0.085,1.18-0.255,1.71s-0.422,0.99-0.756,1.379c-0.334,0.391-0.747,0.698-1.239,0.924c-0.49,0.227-1.063,0.338-1.714,0.338c-0.689,0-1.295-0.144-1.811-0.431c-0.518-0.287-0.945-0.663-1.287-1.13c-0.344-0.465-0.6-0.991-0.771-1.577s-0.256-1.175-0.256-1.768v-0.766c0-0.598,0.036-1.193,0.11-1.788c0.072-0.595,0.2-1.163,0.382-1.705c0.183-0.542,0.423-1.047,0.728-1.512c0.301-0.467,0.68-0.871,1.133-1.213c0.455-0.345,0.994-0.611,1.617-0.807c0.625-0.191,1.347-0.289,2.167-0.289L461.551,727.194L461.551,727.194z M459.415,732.96c-0.287,0-0.563,0.046-0.826,0.136c-0.264,0.094-0.505,0.216-0.726,0.374s-0.412,0.347-0.58,0.56c-0.166,0.215-0.294,0.442-0.382,0.688v0.6c0,0.572,0.067,1.08,0.206,1.517c0.139,0.438,0.32,0.803,0.555,1.099c0.229,0.298,0.496,0.521,0.795,0.674c0.299,0.15,0.609,0.229,0.932,0.229c0.375,0,0.709-0.07,1.002-0.216c0.293-0.144,0.541-0.345,0.742-0.604c0.203-0.262,0.356-0.569,0.462-0.929c0.106-0.356,0.158-0.75,0.158-1.178c0-0.381-0.048-0.748-0.146-1.104c-0.098-0.354-0.241-0.668-0.437-0.938c-0.191-0.273-0.437-0.491-0.729-0.655S459.808,732.96,459.415,732.96z"/></g><rect class="player_progressBackground" x="66" y="730" width="348" height="4"/><path class="player_progress" d="M184,723c-4.282,0-7.859,2.992-8.77,7H66v4h109.23c0.91,4.008,4.487,7,8.77,7
	c4.971,0,9-4.029,9-9S188.971,723,184,723z"/></svg>
