<svg xmlns="http://www.w3.org/2000/svg" viewBox="0 0 480 239"><rect class="windowBackgroundWhite" width="480" height="239"/><rect class="actionBarActionModeDefaultTop" width="480" height="38"/><rect opacity="0.2" width="480" height="38"/><path d="M419.363,26.917h-2.619V14.266l-3.863,1.319v-2.219l6.146-2.263h0.336V26.917" fill="#fff"/><path d="M435.438,26.917H424.84v-1.808l5.131-5.596c0.436-0.476,0.791-0.899,1.076-1.271s0.514-0.71,0.686-1.018c0.168-0.307,0.285-0.594,0.354-0.86c0.07-0.267,0.104-0.534,0.104-0.802c0-0.36-0.055-0.693-0.156-1c-0.105-0.308-0.256-0.572-0.455-0.797c-0.199-0.223-0.441-0.397-0.73-0.524c-0.289-0.126-0.621-0.189-0.996-0.189c-0.453,0-0.85,0.072-1.186,0.218c-0.336,0.145-0.613,0.345-0.832,0.601c-0.221,0.256-0.387,0.563-0.498,0.92c-0.113,0.356-0.168,0.749-0.168,1.174h-2.631c0-0.692,0.117-1.344,0.352-1.954c0.234-0.609,0.58-1.142,1.033-1.596c0.455-0.455,1.014-0.813,1.678-1.077c0.664-0.263,1.424-0.396,2.273-0.396c0.787,0,1.486,0.104,2.1,0.31c0.614,0.206,1.133,0.496,1.555,0.871c0.424,0.375,0.743,0.832,0.965,1.369c0.219,0.538,0.33,1.135,0.33,1.792c0,0.49-0.08,0.976-0.238,1.456c-0.16,0.479-0.379,0.958-0.66,1.434c-0.281,0.478-0.617,0.955-1.008,1.435c-0.389,0.479-0.814,0.961-1.277,1.444l-3.518,3.767h7.317v2.099" fill="#fff"/><path d="M437.666,16.418c0-0.418,0.133-0.768,0.4-1.044c0.267-0.276,0.643-0.417,1.127-0.417c0.488,0,0.867,0.139,1.135,0.417s0.398,0.626,0.398,1.044c0,0.412-0.133,0.752-0.398,1.023s-0.646,0.406-1.135,0.406c-0.238,0-0.453-0.037-0.646-0.108c-0.19-0.072-0.352-0.173-0.48-0.304c-0.129-0.129-0.229-0.28-0.299-0.455C437.701,16.807,437.666,16.621,437.666,16.418z M437.666,25.607c0-0.418,0.133-0.767,0.4-1.043c0.267-0.277,0.643-0.418,1.127-0.418c0.488,0,0.867,0.14,1.135,0.418c0.268,0.277,0.398,0.625,0.398,1.043c0,0.412-0.133,0.752-0.398,1.023s-0.646,0.406-1.135,0.406c-0.238,0-0.453-0.036-0.646-0.107c-0.189-0.072-0.352-0.174-0.48-0.304s-0.229-0.281-0.299-0.455C437.701,25.998,437.666,25.811,437.666,25.607" fill="#fff"/><path d="M446.357,17.836h1.559c0.455,0,0.848-0.061,1.18-0.179c0.332-0.119,0.609-0.283,0.834-0.492s0.391-0.462,0.498-0.758c0.107-0.296,0.162-0.624,0.162-0.985c0-0.75-0.197-1.333-0.59-1.748c-0.395-0.415-0.994-0.623-1.803-0.623c-0.348,0-0.668,0.053-0.963,0.157c-0.299,0.104-0.555,0.252-0.771,0.444c-0.215,0.19-0.385,0.422-0.508,0.691c-0.123,0.271-0.186,0.576-0.186,0.915h-2.631c0-0.62,0.125-1.194,0.373-1.721c0.25-0.527,0.598-0.983,1.039-1.369c0.445-0.386,0.977-0.688,1.592-0.903c0.617-0.217,1.289-0.326,2.02-0.326c0.752,0,1.438,0.097,2.057,0.287c0.621,0.191,1.154,0.476,1.6,0.851c0.441,0.375,0.785,0.843,1.031,1.401c0.246,0.56,0.367,1.207,0.367,1.943c0,0.317-0.049,0.639-0.148,0.963c-0.103,0.324-0.254,0.637-0.455,0.936c-0.201,0.301-0.455,0.582-0.758,0.845c-0.305,0.265-0.656,0.485-1.063,0.666c0.484,0.166,0.893,0.377,1.229,0.633c0.336,0.256,0.605,0.545,0.814,0.866c0.211,0.32,0.363,0.666,0.461,1.033c0.1,0.367,0.146,0.746,0.146,1.137c0,0.736-0.137,1.393-0.4,1.97c-0.268,0.578-0.637,1.063-1.109,1.456c-0.472,0.393-1.031,0.692-1.678,0.898c-0.646,0.205-1.344,0.308-2.096,0.308c-0.688,0-1.34-0.094-1.963-0.28c-0.625-0.188-1.177-0.468-1.65-0.84c-0.477-0.371-0.854-0.835-1.137-1.391c-0.282-0.557-0.422-1.198-0.422-1.928h2.629c0,0.347,0.063,0.664,0.184,0.953c0.123,0.289,0.297,0.537,0.521,0.742c0.225,0.205,0.494,0.363,0.813,0.476c0.319,0.113,0.672,0.168,1.063,0.168c0.814,0,1.457-0.216,1.928-0.649c0.469-0.433,0.703-1.061,0.703-1.883c0-0.447-0.068-0.833-0.207-1.158c-0.137-0.324-0.332-0.593-0.584-0.806s-0.559-0.37-0.914-0.472c-0.357-0.101-0.76-0.15-1.207-0.15h-1.559L446.357,17.836" fill="#fff"/><path d="M466.186,20.283c0,1.249-0.121,2.307-0.365,3.177c-0.246,0.87-0.594,1.577-1.039,2.121c-0.447,0.545-0.986,0.94-1.619,1.187c-0.631,0.244-1.336,0.367-2.115,0.367c-0.771,0-1.477-0.123-2.111-0.367c-0.635-0.246-1.18-0.642-1.633-1.187c-0.455-0.544-0.807-1.251-1.057-2.121c-0.248-0.87-0.373-1.928-0.373-3.177V17.74c0-1.249,0.123-2.307,0.369-3.172c0.244-0.865,0.592-1.567,1.043-2.104s0.994-0.925,1.629-1.164c0.635-0.237,1.34-0.356,2.111-0.356c0.777,0,1.484,0.119,2.119,0.356c0.637,0.238,1.18,0.626,1.631,1.164c0.449,0.538,0.799,1.239,1.045,2.104c0.244,0.867,0.365,1.924,0.365,3.172V20.283L466.186,20.283z M463.557,17.338c0-0.801-0.057-1.474-0.168-2.02c-0.111-0.543-0.273-0.984-0.49-1.319c-0.219-0.335-0.482-0.577-0.799-0.726c-0.313-0.147-0.672-0.222-1.074-0.222c-0.404,0-0.766,0.074-1.076,0.222c-0.314,0.148-0.58,0.391-0.797,0.726c-0.219,0.335-0.383,0.776-0.492,1.319c-0.111,0.546-0.168,1.219-0.168,2.02v3.323c0,0.793,0.059,1.468,0.174,2.024s0.281,1.006,0.498,1.353c0.217,0.346,0.48,0.599,0.801,0.757c0.316,0.159,0.678,0.238,1.082,0.238c0.412,0,0.771-0.079,1.082-0.238c0.313-0.159,0.572-0.411,0.785-0.757c0.213-0.347,0.373-0.797,0.48-1.353c0.107-0.557,0.162-1.23,0.162-2.024V17.338" fill="#fff"/><path d="M331.178,30.07l13.938-17.27c-0.539-0.408-5.901-4.885-13.948-4.885s-13.405,4.477-13.945,4.885l13.938,17.27l0.009,0.013h0.002L331.178,30.07" fill="#fff"/><polygon points="348.583,30.08 370.75,30.08 370.75,7.913" fill="#fff"/><polygon points="394.5,9.5 394.5,7.917 389.75,7.917 389.75,9.5 385,9.5 385,30.083 399.25,30.083 399.25,9.5" fill="#fff"/><g class="actionBarWhiteSelector"><circle opacity=".5" cx="40" cy="80" r="27"/><path opacity=".5" d="M30.334,68.332c-7.381,0-13.813,4.012-17.275,9.964C13.024,78.86,13,79.427,13,80c0,14.134,10.863,25.724,24.694,26.895c7.394-2.933,12.63-10.135,12.63-18.573C50.324,77.282,41.374,68.332,30.334,68.332z"/></g><path class="windowBackgroundWhiteGrayText6" d="M54.334,78.5H36.079l8.385-8.385L42.334,68l-12,12l12,12l2.115-2.115l-8.37-8.385h18.255V78.5z"/><image width="278" height="81" href="channel_image.png"  transform="matrix(0.9999 0 0 0.9999 101.6851 158.0005)"/></svg>