<svg  xmlns="http://www.w3.org/2000/svg" viewBox="0 0 480 109"><rect width="480" height="109"/><rect class="windowBackgroundWhite" width="480" height="109"/><circle class="avatar_backgroundGreen" cx="53" cy="54" r="39"/><rect class="divider" x="108" y="108" width="372" height="1"/><g class="chats_date"><path d="M421.619,43.596c0.977,0,1.781-0.132,2.412-0.396s1.131-0.615,1.5-1.055c0.367-0.439,0.625-0.944,0.775-1.514s0.238-1.161,0.264-1.772c-0.377,0.449-0.828,0.811-1.352,1.084c-0.525,0.273-1.1,0.41-1.725,0.41c-0.703,0-1.311-0.139-1.82-0.415c-0.512-0.276-0.932-0.638-1.26-1.084c-0.33-0.446-0.574-0.952-0.732-1.519c-0.16-0.566-0.24-1.139-0.24-1.719c0-0.678,0.094-1.314,0.283-1.914s0.467-1.121,0.836-1.567c0.367-0.446,0.826-0.798,1.377-1.055c0.549-0.257,1.186-0.386,1.908-0.386c0.814,0,1.508,0.164,2.08,0.493s1.041,0.763,1.406,1.304s0.631,1.154,0.801,1.841s0.254,1.392,0.254,2.114v0.654c0,0.619-0.031,1.245-0.092,1.88c-0.063,0.635-0.18,1.25-0.352,1.846c-0.174,0.596-0.414,1.153-0.723,1.675c-0.311,0.521-0.715,0.975-1.217,1.362s-1.111,0.693-1.83,0.918c-0.721,0.225-1.572,0.337-2.555,0.337h-0.176v-1.523H421.619z M423.787,38.859c0.307,0,0.602-0.049,0.889-0.146s0.551-0.234,0.791-0.41s0.457-0.381,0.65-0.615c0.191-0.234,0.346-0.488,0.463-0.762v-0.723c0-0.645-0.074-1.216-0.225-1.714s-0.35-0.917-0.6-1.255c-0.252-0.338-0.541-0.596-0.869-0.771c-0.33-0.176-0.674-0.264-1.031-0.264c-0.424,0-0.797,0.084-1.123,0.254s-0.6,0.402-0.824,0.698s-0.396,0.646-0.514,1.05s-0.176,0.844-0.176,1.318c0,0.424,0.053,0.835,0.156,1.235s0.262,0.757,0.475,1.069c0.211,0.313,0.479,0.563,0.801,0.752S423.352,38.859,423.787,38.859z"/><path d="M431.004,44.162c0-0.313,0.094-0.572,0.279-0.781s0.463-0.313,0.834-0.313s0.652,0.104,0.846,0.313c0.191,0.209,0.287,0.469,0.287,0.781c0,0.299-0.096,0.551-0.287,0.752c-0.193,0.201-0.475,0.303-0.846,0.303s-0.648-0.102-0.834-0.303S431.004,44.461,431.004,44.162z M431.014,35.539c0-0.313,0.094-0.572,0.279-0.781s0.463-0.313,0.834-0.313s0.652,0.104,0.846,0.313c0.191,0.209,0.287,0.469,0.287,0.781c0,0.299-0.096,0.551-0.287,0.752c-0.193,0.201-0.475,0.303-0.846,0.303s-0.648-0.102-0.834-0.303S431.014,35.838,431.014,35.539z"/><path d="M438.348,37.121h1.289c0.469,0,0.879-0.063,1.23-0.186s0.645-0.295,0.879-0.513s0.41-0.476,0.527-0.771s0.176-0.62,0.176-0.972c0-0.814-0.205-1.434-0.615-1.86s-1.035-0.64-1.875-0.64c-0.385,0-0.734,0.057-1.049,0.171c-0.316,0.114-0.586,0.276-0.811,0.488s-0.4,0.469-0.523,0.771s-0.186,0.64-0.186,1.011h-1.807c0-0.547,0.104-1.059,0.313-1.533s0.504-0.891,0.889-1.245s0.846-0.635,1.383-0.84s1.133-0.308,1.791-0.308c0.645,0,1.23,0.086,1.758,0.259s0.979,0.427,1.354,0.762c0.373,0.335,0.664,0.753,0.873,1.255s0.313,1.084,0.313,1.748c0,0.268-0.043,0.547-0.131,0.84s-0.223,0.58-0.4,0.859c-0.18,0.279-0.41,0.542-0.693,0.786s-0.621,0.448-1.012,0.61c0.469,0.15,0.861,0.347,1.178,0.591c0.314,0.244,0.566,0.517,0.756,0.815s0.322,0.615,0.4,0.947s0.117,0.658,0.117,0.977c0,0.664-0.113,1.255-0.342,1.772s-0.543,0.952-0.947,1.304s-0.879,0.62-1.426,0.806s-1.143,0.278-1.787,0.278c-0.619,0-1.201-0.086-1.748-0.259s-1.025-0.427-1.436-0.762s-0.734-0.749-0.971-1.24c-0.238-0.491-0.357-1.054-0.357-1.685h1.816c0,0.371,0.063,0.708,0.186,1.011s0.303,0.563,0.537,0.781s0.518,0.386,0.85,0.503s0.707,0.176,1.123,0.176s0.791-0.054,1.123-0.161s0.615-0.272,0.85-0.493s0.414-0.498,0.537-0.83s0.186-0.719,0.186-1.162s-0.072-0.826-0.215-1.152s-0.346-0.594-0.609-0.806s-0.582-0.37-0.953-0.474s-0.787-0.156-1.25-0.156h-1.289V37.121z"/><path d="M455.867,39.045c0,1.166-0.104,2.146-0.313,2.944s-0.506,1.442-0.893,1.934c-0.389,0.491-0.857,0.845-1.406,1.06c-0.551,0.215-1.172,0.322-1.861,0.322c-0.684,0-1.303-0.107-1.855-0.322s-1.025-0.568-1.416-1.06s-0.693-1.136-0.908-1.934s-0.322-1.778-0.322-2.944v-2.168c0-1.166,0.105-2.143,0.318-2.93c0.211-0.787,0.512-1.422,0.902-1.904s0.861-0.826,1.412-1.035c0.549-0.209,1.166-0.313,1.85-0.313c0.689,0,1.313,0.104,1.865,0.313s1.025,0.553,1.416,1.035s0.689,1.117,0.898,1.904s0.313,1.764,0.313,2.93V39.045zM454.061,36.574c0-0.801-0.057-1.48-0.17-2.041c-0.115-0.561-0.285-1.014-0.514-1.362s-0.51-0.601-0.844-0.757c-0.336-0.156-0.723-0.234-1.158-0.234c-0.43,0-0.813,0.078-1.146,0.234c-0.336,0.156-0.615,0.408-0.84,0.757s-0.396,0.802-0.514,1.362s-0.176,1.24-0.176,2.041v2.754c0,0.795,0.059,1.477,0.176,2.046s0.291,1.036,0.523,1.401c0.23,0.365,0.514,0.631,0.85,0.801c0.334,0.17,0.717,0.254,1.146,0.254c0.443,0,0.83-0.084,1.162-0.254s0.611-0.436,0.836-0.801s0.391-0.832,0.502-1.401s0.166-1.251,0.166-2.046V36.574z"/></g><g class="chats_secretName"><path d="M133.864,37.374v6.868h-3.213V25.758h7.072c1.074,0,2.029,0.146,2.862,0.438c0.833,0.293,1.538,0.701,2.114,1.226c0.575,0.524,1.014,1.147,1.313,1.866s0.45,1.502,0.45,2.349c0,0.897-0.15,1.701-0.45,2.412s-0.738,1.312-1.313,1.803c-0.576,0.491-1.281,0.868-2.114,1.13s-1.788,0.394-2.862,0.394H133.864z M133.864,34.797h3.859c0.617,0,1.148-0.076,1.593-0.229s0.811-0.368,1.099-0.647c0.287-0.279,0.496-0.611,0.628-0.997c0.132-0.385,0.196-0.806,0.196-1.263c0-0.432-0.064-0.847-0.196-1.244s-0.341-0.751-0.628-1.06c-0.288-0.31-0.654-0.555-1.099-0.736c-0.444-0.183-0.976-0.273-1.593-0.273h-3.859V34.797z"/><path d="M155.04,44.242c-0.085-0.16-0.154-0.352-0.21-0.571s-0.104-0.457-0.146-0.711c-0.203,0.212-0.43,0.411-0.68,0.597s-0.525,0.35-0.825,0.488c-0.3,0.141-0.626,0.25-0.978,0.33c-0.352,0.081-0.726,0.121-1.123,0.121c-0.686,0-1.316-0.104-1.893-0.311c-0.575-0.208-1.068-0.496-1.479-0.863c-0.41-0.369-0.732-0.803-0.965-1.302s-0.35-1.041-0.35-1.625c0-0.736,0.141-1.388,0.42-1.955s0.686-1.041,1.219-1.422s1.187-0.671,1.961-0.87c0.774-0.198,1.656-0.298,2.646-0.298h1.943v-0.901c0-0.711-0.199-1.28-0.598-1.707c-0.397-0.428-1.002-0.642-1.814-0.642c-0.364,0-0.694,0.049-0.99,0.146c-0.297,0.098-0.549,0.229-0.756,0.395c-0.207,0.164-0.368,0.361-0.482,0.59s-0.172,0.475-0.172,0.736h-3.084c0-0.541,0.133-1.064,0.399-1.568c0.267-0.503,0.646-0.951,1.136-1.346c0.491-0.393,1.086-0.709,1.784-0.945s1.479-0.355,2.343-0.355c0.77,0,1.48,0.1,2.133,0.299c0.651,0.198,1.214,0.494,1.688,0.889c0.475,0.393,0.843,0.884,1.105,1.473c0.262,0.588,0.393,1.275,0.393,2.063v6.094c0,1.236,0.174,2.222,0.521,2.958v0.216H155.04z M151.649,42.021c0.355,0,0.688-0.046,0.997-0.14s0.589-0.216,0.838-0.368s0.468-0.328,0.653-0.526c0.187-0.199,0.335-0.4,0.445-0.604v-2.59h-1.664c-1.143,0-2.001,0.199-2.576,0.597c-0.576,0.397-0.863,0.96-0.863,1.688c0,0.279,0.046,0.537,0.139,0.774c0.094,0.237,0.233,0.442,0.42,0.616c0.186,0.173,0.412,0.309,0.679,0.406C150.983,41.972,151.293,42.021,151.649,42.021z"/><path d="M169.219,42.896c-0.432,0.508-0.965,0.901-1.6,1.181s-1.388,0.419-2.26,0.419c-0.677,0-1.293-0.096-1.847-0.285c-0.554-0.191-1.03-0.491-1.429-0.902c-0.397-0.41-0.706-0.939-0.926-1.586c-0.221-0.648-0.33-1.424-0.33-2.33v-8.887h3.084v8.912c0,0.5,0.06,0.912,0.178,1.238c0.119,0.325,0.277,0.588,0.477,0.787c0.199,0.198,0.43,0.338,0.691,0.418c0.263,0.081,0.538,0.121,0.826,0.121c0.795,0,1.438-0.145,1.93-0.432c0.49-0.287,0.858-0.682,1.104-1.181v-9.864h3.086v13.736h-2.908L169.219,42.896z"/><path d="M178.627,44.242h-3.086v-19.5h3.086V44.242z"/><path d="M203.42,44.242h-3.211l-8.24-13.114v13.114h-3.211V25.758h3.211l8.266,13.165V25.758h3.186V44.242z"/><path d="M212.967,44.496c-1.016,0-1.93-0.17-2.742-0.508s-1.502-0.805-2.068-1.396c-0.567-0.592-1.004-1.295-1.309-2.107s-0.457-1.688-0.457-2.628v-0.508c0-1.083,0.161-2.063,0.482-2.938c0.322-0.877,0.762-1.621,1.32-2.234c0.559-0.614,1.217-1.088,1.975-1.422c0.758-0.335,1.572-0.502,2.443-0.502c0.999,0,1.867,0.167,2.604,0.502c0.736,0.334,1.346,0.801,1.828,1.402s0.842,1.316,1.078,2.146c0.237,0.829,0.355,1.739,0.355,2.729v1.32h-8.975c0.042,0.533,0.154,1.023,0.336,1.473s0.43,0.836,0.742,1.162c0.313,0.325,0.684,0.582,1.111,0.768s0.912,0.279,1.453,0.279c0.762,0,1.424-0.152,1.987-0.457s1.052-0.724,1.466-1.257l1.664,1.587c-0.221,0.33-0.494,0.649-0.819,0.959c-0.325,0.309-0.706,0.584-1.143,0.824c-0.437,0.242-0.929,0.437-1.479,0.584C214.271,44.422,213.653,44.496,212.967,44.496z M212.6,32.728c-0.847,0-1.53,0.296-2.051,0.889s-0.853,1.417-0.996,2.476h5.877v-0.229c-0.025-0.406-0.09-0.798-0.196-1.174c-0.106-0.377-0.269-0.711-0.489-1.004c-0.22-0.291-0.506-0.524-0.856-0.697C213.538,32.814,213.108,32.728,212.6,32.728z"/><path d="M232.938,39.989l2.184-9.483h3.008l-3.744,13.736h-2.539l-2.945-9.433l-2.895,9.433h-2.539l-3.758-13.736h3.008l2.223,9.382l2.818-9.382h2.322L232.938,39.989z"/><path d="M243.094,30.506l0.088,1.435c0.457-0.533,1.014-0.948,1.67-1.244s1.42-0.444,2.291-0.444c0.838,0,1.588,0.167,2.248,0.502c0.66,0.334,1.168,0.869,1.523,1.605c0.457-0.643,1.035-1.155,1.732-1.536c0.699-0.381,1.525-0.571,2.482-0.571c0.711,0,1.346,0.096,1.904,0.285c0.559,0.191,1.029,0.491,1.416,0.902c0.385,0.41,0.68,0.938,0.889,1.58c0.207,0.643,0.311,1.418,0.311,2.323v8.899h-3.086V35.33c0-0.508-0.057-0.925-0.17-1.25c-0.115-0.326-0.279-0.586-0.496-0.781c-0.215-0.195-0.475-0.33-0.773-0.406c-0.301-0.076-0.643-0.114-1.023-0.114c-0.701,0-1.275,0.188-1.719,0.565c-0.445,0.376-0.756,0.869-0.934,1.479c0,0.043,0.002,0.087,0.006,0.133c0.004,0.047,0.006,0.092,0.006,0.134v9.153h-3.084v-8.874c0-0.482-0.057-0.889-0.172-1.219c-0.113-0.33-0.279-0.597-0.494-0.8c-0.217-0.203-0.477-0.35-0.781-0.438c-0.305-0.09-0.648-0.134-1.029-0.134c-0.66,0-1.203,0.136-1.631,0.406s-0.76,0.64-0.996,1.104v9.953h-3.085V30.506H243.094z"/><path d="M271.023,44.242c-0.084-0.16-0.154-0.352-0.209-0.571c-0.057-0.22-0.104-0.457-0.146-0.711c-0.203,0.212-0.43,0.411-0.68,0.597s-0.525,0.35-0.824,0.488c-0.301,0.141-0.627,0.25-0.979,0.33c-0.352,0.081-0.725,0.121-1.123,0.121c-0.686,0-1.316-0.104-1.893-0.311c-0.574-0.208-1.068-0.496-1.479-0.863c-0.41-0.369-0.732-0.803-0.965-1.302s-0.35-1.041-0.35-1.625c0-0.736,0.141-1.388,0.42-1.955s0.686-1.041,1.219-1.422s1.188-0.671,1.961-0.87c0.775-0.198,1.656-0.298,2.646-0.298h1.943v-0.901c0-0.711-0.199-1.28-0.598-1.707c-0.396-0.428-1.002-0.642-1.814-0.642c-0.363,0-0.693,0.049-0.99,0.146c-0.297,0.098-0.549,0.229-0.756,0.395c-0.207,0.164-0.367,0.361-0.482,0.59c-0.113,0.229-0.172,0.475-0.172,0.736h-3.084c0-0.541,0.133-1.064,0.4-1.568c0.266-0.503,0.645-0.951,1.135-1.346c0.492-0.393,1.086-0.709,1.785-0.945c0.697-0.236,1.479-0.355,2.342-0.355c0.77,0,1.48,0.1,2.133,0.299c0.652,0.198,1.215,0.494,1.688,0.889c0.475,0.393,0.844,0.884,1.105,1.473c0.262,0.588,0.393,1.275,0.393,2.063v6.094c0,1.236,0.174,2.222,0.521,2.958v0.216H271.023z M267.633,42.021c0.355,0,0.688-0.046,0.998-0.14c0.309-0.094,0.588-0.216,0.838-0.368c0.248-0.152,0.467-0.328,0.652-0.526c0.188-0.199,0.336-0.4,0.445-0.604v-2.59h-1.664c-1.143,0-2,0.199-2.576,0.597s-0.863,0.96-0.863,1.688c0,0.279,0.047,0.537,0.139,0.774c0.094,0.237,0.234,0.442,0.42,0.616c0.186,0.173,0.412,0.309,0.68,0.406C266.967,41.972,267.277,42.021,267.633,42.021z"/><path d="M279.744,30.506l0.09,1.587c0.482-0.584,1.063-1.036,1.738-1.358c0.678-0.322,1.432-0.482,2.26-0.482c0.66,0,1.26,0.091,1.797,0.273c0.537,0.182,0.996,0.476,1.377,0.882s0.676,0.935,0.883,1.587s0.311,1.443,0.311,2.374v8.874h-3.084v-8.899c0-0.474-0.053-0.874-0.158-1.2c-0.107-0.325-0.262-0.59-0.465-0.793s-0.455-0.35-0.754-0.438c-0.301-0.09-0.646-0.134-1.035-0.134c-0.635,0-1.188,0.152-1.656,0.457c-0.471,0.305-0.846,0.716-1.125,1.231v9.775h-3.084V30.506H279.744z"/></g><path class="chats_secretIcon" d="M110.5,43h10c1.375,0,2.5-1.013,2.5-2.25V35c0-1.237-1.125-2.25-2.5-2.25V29.5c0-2.496-2.251-4.5-5-4.5c-2.774,0-5,2.025-5,4.5v3.25c-1.375,0-2.5,1.013-2.5,2.25v5.75C108,41.987,109.125,43,110.5,43zM112.5,29.5c0-1.485,1.35-2.7,3-2.7s3,1.215,3,2.7v3.25h-6V29.5z"/><g class="chats_message"><path d="M119.075,77.078h-7.148l-1.605,4.453H108l6.516-17.063h1.969l6.527,17.063h-2.309L119.075,77.078zM112.606,75.227h5.801l-2.906-7.98L112.606,75.227z"/><path d="M127.02,68.852l0.07,1.594c0.453-0.57,1-1.018,1.641-1.342s1.359-0.486,2.156-0.486c0.617,0,1.176,0.084,1.676,0.252s0.926,0.438,1.277,0.809s0.623,0.848,0.814,1.43s0.287,1.287,0.287,2.115v8.309h-2.168v-8.332c0-0.492-0.055-0.912-0.164-1.26s-0.271-0.631-0.486-0.85s-0.48-0.379-0.797-0.48s-0.682-0.152-1.096-0.152c-0.703,0-1.32,0.188-1.852,0.563s-0.945,0.867-1.242,1.477v9.035h-2.168v-12.68H127.02z"/><path d="M142.36,78.355l2.953-9.504h2.32l-5.098,14.637c-0.117,0.313-0.27,0.652-0.457,1.02s-0.432,0.709-0.732,1.025s-0.662,0.582-1.084,0.797s-0.918,0.322-1.488,0.322c-0.086,0-0.188-0.008-0.305-0.023s-0.234-0.033-0.352-0.053s-0.227-0.039-0.328-0.059s-0.18-0.037-0.234-0.053v-1.758c0.031,0.008,0.074,0.014,0.129,0.018s0.111,0.008,0.17,0.012s0.113,0.008,0.164,0.012s0.092,0.006,0.123,0.006c0.367,0,0.691-0.035,0.973-0.105s0.531-0.186,0.75-0.346s0.408-0.373,0.568-0.639s0.307-0.594,0.439-0.984l0.48-1.289l-4.523-12.539h2.367L142.36,78.355z"/><path d="M155.52,65.488c0-0.352,0.107-0.648,0.322-0.891s0.533-0.363,0.955-0.363s0.742,0.121,0.961,0.363s0.328,0.539,0.328,0.891s-0.109,0.645-0.328,0.879s-0.539,0.352-0.961,0.352s-0.74-0.117-0.955-0.352S155.52,65.84,155.52,65.488zM157.864,81.531h-2.168v-12.68h2.168V81.531z"/><path d="M160.805,75.086c0-0.969,0.119-1.85,0.357-2.643s0.576-1.473,1.014-2.039s0.963-1.006,1.576-1.318s1.299-0.469,2.057-0.469c0.773,0,1.449,0.131,2.027,0.393s1.078,0.639,1.5,1.131v-6.609h2.168v18h-1.992l-0.105-1.359c-0.422,0.516-0.93,0.91-1.523,1.184s-1.293,0.41-2.098,0.41c-0.742,0-1.42-0.16-2.033-0.48s-1.139-0.768-1.576-1.342s-0.775-1.254-1.014-2.039s-0.357-1.643-0.357-2.572V75.086z M162.973,75.332c0,0.633,0.064,1.229,0.193,1.787s0.33,1.045,0.604,1.459s0.621,0.742,1.043,0.984s0.926,0.363,1.512,0.363c0.383,0,0.727-0.045,1.031-0.135s0.58-0.217,0.826-0.381s0.465-0.359,0.656-0.586s0.357-0.477,0.498-0.75V72.25c-0.141-0.258-0.305-0.496-0.492-0.715s-0.404-0.408-0.65-0.568s-0.521-0.285-0.826-0.375s-0.645-0.135-1.02-0.135c-0.594,0-1.104,0.123-1.529,0.369s-0.775,0.58-1.049,1.002s-0.475,0.912-0.604,1.471s-0.193,1.154-0.193,1.787V75.332z"/><path d="M180.129,81.766c-0.883,0-1.682-0.152-2.396-0.457s-1.326-0.729-1.834-1.271s-0.898-1.189-1.172-1.939s-0.41-1.57-0.41-2.461v-0.492c0-1.031,0.154-1.953,0.463-2.766s0.721-1.496,1.236-2.051s1.105-0.979,1.77-1.271s1.355-0.439,2.074-0.439c0.906,0,1.688,0.158,2.344,0.475s1.197,0.752,1.623,1.307s0.74,1.211,0.943,1.969s0.305,1.582,0.305,2.473v0.973h-8.59c0.016,0.586,0.111,1.133,0.287,1.641s0.426,0.949,0.75,1.324s0.715,0.672,1.172,0.891s0.975,0.328,1.553,0.328c0.766,0,1.414-0.156,1.945-0.469s0.996-0.727,1.395-1.242l1.324,1.031c-0.203,0.313-0.449,0.615-0.738,0.908s-0.627,0.555-1.014,0.785s-0.83,0.414-1.33,0.551S180.762,81.766,180.129,81.766zM179.86,70.398c-0.438,0-0.84,0.08-1.207,0.24s-0.695,0.393-0.984,0.697s-0.529,0.684-0.721,1.137s-0.322,0.973-0.393,1.559h6.352v-0.164c-0.023-0.422-0.092-0.84-0.205-1.254s-0.289-0.785-0.527-1.113s-0.545-0.594-0.92-0.797S180.415,70.398,179.86,70.398z"/><path d="M195.411,81.531c-0.078-0.156-0.141-0.354-0.188-0.592s-0.086-0.486-0.117-0.744c-0.203,0.211-0.432,0.412-0.686,0.604s-0.531,0.359-0.832,0.504s-0.627,0.258-0.979,0.34s-0.723,0.123-1.113,0.123c-0.648,0-1.236-0.098-1.764-0.293s-0.977-0.461-1.348-0.797s-0.658-0.732-0.861-1.189s-0.305-0.947-0.305-1.471c0-0.68,0.133-1.279,0.398-1.799s0.646-0.955,1.143-1.307s1.096-0.617,1.799-0.797s1.488-0.27,2.355-0.27h2.156v-0.996c0-0.758-0.227-1.361-0.68-1.811s-1.121-0.674-2.004-0.674c-0.406,0-0.777,0.055-1.113,0.164s-0.623,0.256-0.861,0.439s-0.424,0.396-0.557,0.639s-0.199,0.496-0.199,0.762h-2.18c0-0.453,0.119-0.902,0.357-1.348s0.576-0.846,1.014-1.201s0.967-0.645,1.588-0.867s1.314-0.334,2.08-0.334c0.688,0,1.322,0.088,1.904,0.264s1.08,0.441,1.494,0.797s0.738,0.799,0.973,1.33s0.352,1.152,0.352,1.863v5.895c0,0.43,0.037,0.881,0.111,1.354s0.186,0.881,0.334,1.225v0.188H195.411z M191.813,79.879c0.391,0,0.758-0.055,1.102-0.164s0.656-0.252,0.938-0.428s0.525-0.377,0.732-0.604s0.369-0.461,0.486-0.703v-2.602h-1.805c-1.242,0-2.199,0.193-2.871,0.58s-1.008,0.971-1.008,1.752c0,0.305,0.051,0.59,0.152,0.855s0.256,0.494,0.463,0.686s0.461,0.344,0.762,0.457S191.415,79.879,191.813,79.879z"/><path d="M208.02,78.168c0-0.234-0.035-0.455-0.105-0.662s-0.209-0.402-0.416-0.586s-0.502-0.354-0.885-0.51s-0.887-0.301-1.512-0.434c-0.703-0.148-1.336-0.324-1.898-0.527s-1.041-0.447-1.436-0.732s-0.697-0.623-0.908-1.014s-0.316-0.848-0.316-1.371c0-0.5,0.111-0.975,0.334-1.424s0.537-0.844,0.943-1.184s0.898-0.609,1.477-0.809s1.223-0.299,1.934-0.299c0.758,0,1.436,0.104,2.033,0.311s1.105,0.49,1.523,0.85s0.736,0.779,0.955,1.26s0.328,0.994,0.328,1.541h-2.18c0-0.258-0.059-0.518-0.176-0.779s-0.289-0.496-0.516-0.703s-0.504-0.375-0.832-0.504s-0.707-0.193-1.137-0.193c-0.453,0-0.838,0.053-1.154,0.158s-0.576,0.246-0.779,0.422s-0.352,0.375-0.445,0.598s-0.141,0.451-0.141,0.686s0.039,0.445,0.117,0.633s0.227,0.357,0.445,0.51s0.518,0.293,0.896,0.422s0.869,0.26,1.471,0.393c0.773,0.18,1.445,0.383,2.016,0.609s1.043,0.49,1.418,0.791s0.654,0.646,0.838,1.037s0.275,0.844,0.275,1.359c0,0.555-0.115,1.063-0.346,1.523s-0.561,0.855-0.99,1.184s-0.945,0.584-1.547,0.768s-1.27,0.275-2.004,0.275c-0.844,0-1.588-0.117-2.232-0.352s-1.186-0.545-1.623-0.932s-0.77-0.828-0.996-1.324s-0.34-1.006-0.34-1.529h2.168c0.023,0.445,0.131,0.818,0.322,1.119s0.432,0.545,0.721,0.732s0.605,0.32,0.949,0.398s0.688,0.117,1.031,0.117c0.445,0,0.836-0.047,1.172-0.141s0.619-0.223,0.85-0.387s0.404-0.357,0.521-0.58S208.02,78.426,208.02,78.168z"/><path d="M215.555,76.727c0.008-0.563,0.047-1.043,0.117-1.441s0.184-0.762,0.34-1.09s0.361-0.646,0.615-0.955s0.568-0.654,0.943-1.037c0.266-0.273,0.521-0.533,0.768-0.779s0.461-0.5,0.645-0.762s0.33-0.545,0.439-0.85s0.164-0.656,0.164-1.055c0-0.82-0.215-1.463-0.645-1.928s-1.055-0.697-1.875-0.697c-0.344,0-0.674,0.045-0.99,0.135s-0.598,0.23-0.844,0.422s-0.443,0.434-0.592,0.727s-0.223,0.643-0.223,1.049h-2.168c0.008-0.664,0.137-1.258,0.387-1.781s0.59-0.967,1.02-1.33s0.936-0.641,1.518-0.832s1.213-0.287,1.893-0.287c0.75,0,1.416,0.104,1.998,0.311s1.072,0.504,1.471,0.891s0.701,0.855,0.908,1.406s0.311,1.166,0.311,1.846c0,0.531-0.082,1.027-0.246,1.488s-0.385,0.9-0.662,1.318s-0.592,0.813-0.943,1.184s-0.715,0.732-1.09,1.084c-0.43,0.398-0.719,0.848-0.867,1.348s-0.223,1.039-0.223,1.617H215.555zM215.461,80.441c0-0.352,0.107-0.646,0.322-0.885s0.533-0.357,0.955-0.357s0.742,0.119,0.961,0.357s0.328,0.533,0.328,0.885s-0.109,0.643-0.328,0.873s-0.539,0.346-0.961,0.346s-0.74-0.115-0.955-0.346S215.461,80.793,215.461,80.441z"/></g><g class="avatar_text"><path d="M39.483,55.557v7.396h-3.459V43.047h7.615c1.157,0,2.186,0.157,3.083,0.472s1.656,0.755,2.276,1.319c0.619,0.565,1.092,1.235,1.415,2.01c0.323,0.775,0.485,1.618,0.485,2.529c0,0.967-0.162,1.832-0.485,2.598s-0.796,1.413-1.415,1.941c-0.62,0.529-1.379,0.935-2.276,1.217c-0.897,0.283-1.926,0.424-3.083,0.424H39.483z M39.483,52.781h4.156c0.665,0,1.237-0.082,1.716-0.246s0.872-0.396,1.183-0.697c0.31-0.301,0.535-0.658,0.677-1.073s0.212-0.868,0.212-1.36c0-0.465-0.07-0.911-0.212-1.34c-0.142-0.428-0.367-0.809-0.677-1.142c-0.311-0.333-0.704-0.597-1.183-0.793s-1.051-0.294-1.716-0.294h-4.156V52.781z"/><path d="M69.711,62.953h-3.459L57.379,48.83v14.123H53.92V43.047h3.459l8.9,14.178V43.047h3.432V62.953z"/></g></svg>