<svg xmlns="http://www.w3.org/2000/svg" viewBox="0 0 480 124"><rect class="windowBackgroundWhite" width="480" height="124"/><rect width="480" height="109" class="chats_pinnedOverlay"/><circle class="avatar_backgroundRed" cx="53" cy="54" r="39"/><rect class="divider" x="108" y="108" width="372" height="1"/><g class="chats_pinnedIcon"><path d="M429.979,88.021c-6.629-6.628-6.629-17.413,0-24.042c6.628-6.628,17.412-6.628,24.041,0s6.629,17.414,0,24.042S436.607,94.649,429.979,88.021z M452.606,65.393c-5.849-5.848-15.365-5.848-21.213,0c-5.85,5.849-5.85,15.365,0,21.213c5.848,5.849,15.365,5.849,21.213,0C458.455,80.758,458.455,71.242,452.606,65.393z"/><path d="M444.121,78.121l4.331-4.331c0.781-0.781,0.781-2.047,0-2.828l-1.414-1.415c-0.781-0.781-2.048-0.781-2.828,0l-4.332,4.331h-2.828l2.828,2.829l-4.861,4.861c-0.328,0.329-0.363,0.823-0.138,1.207c0.035,0.076,0.078,0.147,0.138,0.208c0.061,0.06,0.133,0.103,0.208,0.138c0.384,0.226,0.878,0.191,1.206-0.138l4.861-4.861l2.829,2.829V78.121z"/></g><g class="avatar_text"><path d="M65.26,57.826c0-0.401-0.06-0.759-0.178-1.073c-0.119-0.314-0.335-0.604-0.649-0.868c-0.314-0.264-0.747-0.517-1.299-0.759c-0.552-0.241-1.261-0.494-2.126-0.759c-0.948-0.282-1.823-0.606-2.625-0.971c-0.803-0.364-1.492-0.788-2.071-1.271c-0.579-0.483-1.032-1.039-1.36-1.668s-0.492-1.349-0.492-2.16c0-0.802,0.171-1.54,0.513-2.215c0.342-0.674,0.822-1.258,1.442-1.75c0.619-0.492,1.362-0.875,2.229-1.148c0.865-0.273,1.822-0.41,2.871-0.41c1.121,0,2.128,0.162,3.021,0.485c0.893,0.324,1.647,0.764,2.263,1.319c0.615,0.556,1.087,1.201,1.415,1.935c0.328,0.734,0.492,1.516,0.492,2.345H65.26c0-0.483-0.075-0.927-0.226-1.333c-0.15-0.405-0.381-0.756-0.69-1.053c-0.311-0.296-0.702-0.526-1.176-0.69c-0.475-0.164-1.035-0.246-1.682-0.246c-0.611,0-1.14,0.068-1.586,0.205c-0.447,0.137-0.818,0.328-1.114,0.574s-0.515,0.538-0.656,0.875c-0.142,0.337-0.212,0.702-0.212,1.094c0,0.738,0.349,1.354,1.046,1.846s1.761,0.948,3.192,1.367c1.121,0.328,2.092,0.693,2.912,1.094c0.82,0.401,1.502,0.854,2.044,1.36s0.945,1.076,1.21,1.709c0.264,0.634,0.396,1.347,0.396,2.14c0,0.839-0.166,1.593-0.499,2.263s-0.807,1.24-1.422,1.709c-0.615,0.47-1.36,0.83-2.235,1.08s-1.851,0.376-2.926,0.376c-0.957,0-1.9-0.13-2.83-0.39s-1.764-0.651-2.502-1.176c-0.738-0.524-1.333-1.178-1.784-1.962c-0.451-0.784-0.677-1.704-0.677-2.762h3.459c0,0.629,0.111,1.169,0.335,1.62s0.528,0.82,0.916,1.107s0.845,0.497,1.374,0.629c0.528,0.132,1.098,0.198,1.709,0.198c1.203,0,2.107-0.244,2.714-0.731C64.957,59.273,65.26,58.628,65.26,57.826z"/><path d="M50.658,54.066h-8.176v6.125h9.557v2.762H39.023V43.047h12.92v2.789h-9.461v5.496h8.176V54.066z"/></g><g class="chats_message"><path d="M115.91,74.629h-4.008v6.902h-2.262V64.469h5.648c1.922,0,3.4,0.438,4.436,1.313s1.553,2.148,1.553,3.82c0,1.063-0.287,1.988-0.861,2.777s-1.373,1.379-2.396,1.77l4.008,7.242v0.141h-2.414L115.91,74.629z M111.902,72.789h3.457c0.609,0,1.143-0.084,1.6-0.252s0.838-0.395,1.143-0.68s0.533-0.621,0.686-1.008s0.229-0.803,0.229-1.248c0-0.492-0.072-0.939-0.217-1.342s-0.369-0.748-0.674-1.037s-0.691-0.512-1.16-0.668s-1.027-0.234-1.676-0.234h-3.387V72.789z"/><path d="M129.352,81.766c-0.883,0-1.682-0.152-2.396-0.457s-1.326-0.729-1.834-1.271s-0.898-1.189-1.172-1.939s-0.41-1.57-0.41-2.461v-0.492c0-1.031,0.154-1.953,0.463-2.766s0.721-1.496,1.236-2.051s1.105-0.979,1.77-1.271s1.355-0.439,2.074-0.439c0.906,0,1.688,0.158,2.344,0.475s1.197,0.752,1.623,1.307s0.74,1.211,0.943,1.969s0.305,1.582,0.305,2.473v0.973h-8.59c0.016,0.586,0.111,1.133,0.287,1.641s0.426,0.949,0.75,1.324s0.715,0.672,1.172,0.891s0.975,0.328,1.553,0.328c0.766,0,1.414-0.156,1.945-0.469s0.996-0.727,1.395-1.242l1.324,1.031c-0.203,0.313-0.449,0.615-0.738,0.908s-0.627,0.555-1.014,0.785s-0.83,0.414-1.33,0.551S129.984,81.766,129.352,81.766zM129.082,70.398c-0.438,0-0.84,0.08-1.207,0.24s-0.695,0.393-0.984,0.697s-0.529,0.684-0.721,1.137s-0.322,0.973-0.393,1.559h6.352v-0.164c-0.023-0.422-0.092-0.84-0.205-1.254s-0.289-0.785-0.527-1.113s-0.545-0.594-0.92-0.797S129.637,70.398,129.082,70.398z"/><path d="M138.844,68.852l0.059,1.406c0.438-0.516,0.967-0.918,1.588-1.207s1.346-0.434,2.174-0.434c0.82,0,1.545,0.162,2.174,0.486s1.111,0.842,1.447,1.553c0.422-0.609,0.971-1.102,1.646-1.477s1.475-0.563,2.396-0.563c0.68,0,1.281,0.088,1.805,0.264s0.967,0.451,1.33,0.826s0.639,0.852,0.826,1.43s0.281,1.266,0.281,2.063v8.332h-2.168v-8.344c0-0.531-0.064-0.973-0.193-1.324s-0.311-0.633-0.545-0.844s-0.52-0.357-0.855-0.439s-0.707-0.123-1.113-0.123c-0.445,0-0.84,0.07-1.184,0.211s-0.639,0.33-0.885,0.568s-0.441,0.52-0.586,0.844s-0.236,0.67-0.275,1.037v8.414h-2.18v-8.332c0-0.492-0.064-0.912-0.193-1.26s-0.311-0.631-0.545-0.85s-0.518-0.379-0.85-0.48s-0.705-0.152-1.119-0.152c-0.773,0-1.395,0.168-1.863,0.504s-0.82,0.773-1.055,1.313v9.258h-2.168v-12.68H138.844z"/><path d="M157.852,65.488c0-0.352,0.107-0.648,0.322-0.891s0.533-0.363,0.955-0.363s0.742,0.121,0.961,0.363s0.328,0.539,0.328,0.891s-0.109,0.645-0.328,0.879s-0.539,0.352-0.961,0.352s-0.74-0.117-0.955-0.352S157.852,65.84,157.852,65.488z M160.195,81.531h-2.168v-12.68h2.168V81.531z"/><path d="M165.715,68.852l0.07,1.594c0.453-0.57,1-1.018,1.641-1.342s1.359-0.486,2.156-0.486c0.617,0,1.176,0.084,1.676,0.252s0.926,0.438,1.277,0.809s0.623,0.848,0.814,1.43s0.287,1.287,0.287,2.115v8.309h-2.168v-8.332c0-0.492-0.055-0.912-0.164-1.26s-0.271-0.631-0.486-0.85s-0.48-0.379-0.797-0.48s-0.682-0.152-1.096-0.152c-0.703,0-1.32,0.188-1.852,0.563s-0.945,0.867-1.242,1.477v9.035h-2.168v-12.68H165.715z"/><path d="M176.379,75.086c0-0.969,0.119-1.85,0.357-2.643s0.576-1.473,1.014-2.039s0.963-1.006,1.576-1.318s1.299-0.469,2.057-0.469c0.773,0,1.449,0.131,2.027,0.393s1.078,0.639,1.5,1.131v-6.609h2.168v18h-1.992l-0.105-1.359c-0.422,0.516-0.93,0.91-1.523,1.184s-1.293,0.41-2.098,0.41c-0.742,0-1.42-0.16-2.033-0.48s-1.139-0.768-1.576-1.342s-0.775-1.254-1.014-2.039s-0.357-1.643-0.357-2.572V75.086z M178.547,75.332c0,0.633,0.064,1.229,0.193,1.787s0.33,1.045,0.604,1.459s0.621,0.742,1.043,0.984s0.926,0.363,1.512,0.363c0.383,0,0.727-0.045,1.031-0.135s0.58-0.217,0.826-0.381s0.465-0.359,0.656-0.586s0.357-0.477,0.498-0.75V72.25c-0.141-0.258-0.305-0.496-0.492-0.715s-0.404-0.408-0.65-0.568s-0.521-0.285-0.826-0.375s-0.645-0.135-1.02-0.135c-0.594,0-1.104,0.123-1.529,0.369s-0.775,0.58-1.049,1.002s-0.475,0.912-0.604,1.471s-0.193,1.154-0.193,1.787V75.332z"/><path d="M197.824,78.168c0-0.234-0.035-0.455-0.105-0.662s-0.209-0.402-0.416-0.586s-0.502-0.354-0.885-0.51s-0.887-0.301-1.512-0.434c-0.703-0.148-1.336-0.324-1.898-0.527s-1.041-0.447-1.436-0.732s-0.697-0.623-0.908-1.014s-0.316-0.848-0.316-1.371c0-0.5,0.111-0.975,0.334-1.424s0.537-0.844,0.943-1.184s0.898-0.609,1.477-0.809s1.223-0.299,1.934-0.299c0.758,0,1.436,0.104,2.033,0.311s1.105,0.49,1.523,0.85s0.736,0.779,0.955,1.26s0.328,0.994,0.328,1.541h-2.18c0-0.258-0.059-0.518-0.176-0.779s-0.289-0.496-0.516-0.703s-0.504-0.375-0.832-0.504s-0.707-0.193-1.137-0.193c-0.453,0-0.838,0.053-1.154,0.158s-0.576,0.246-0.779,0.422s-0.352,0.375-0.445,0.598s-0.141,0.451-0.141,0.686s0.039,0.445,0.117,0.633s0.227,0.357,0.445,0.51s0.518,0.293,0.896,0.422s0.869,0.26,1.471,0.393c0.773,0.18,1.445,0.383,2.016,0.609s1.043,0.49,1.418,0.791s0.654,0.646,0.838,1.037s0.275,0.844,0.275,1.359c0,0.555-0.115,1.063-0.346,1.523s-0.561,0.855-0.99,1.184s-0.945,0.584-1.547,0.768s-1.27,0.275-2.004,0.275c-0.844,0-1.588-0.117-2.232-0.352s-1.186-0.545-1.623-0.932s-0.77-0.828-0.996-1.324s-0.34-1.006-0.34-1.529h2.168c0.023,0.445,0.131,0.818,0.322,1.119s0.432,0.545,0.721,0.732s0.605,0.32,0.949,0.398s0.688,0.117,1.031,0.117c0.445,0,0.836-0.047,1.172-0.141s0.619-0.223,0.85-0.387s0.404-0.357,0.521-0.58S197.824,78.426,197.824,78.168z"/><path d="M210.797,68.852l0.059,1.406c0.438-0.516,0.967-0.918,1.588-1.207s1.346-0.434,2.174-0.434c0.82,0,1.545,0.162,2.174,0.486s1.111,0.842,1.447,1.553c0.422-0.609,0.971-1.102,1.646-1.477s1.475-0.563,2.396-0.563c0.68,0,1.281,0.088,1.805,0.264s0.967,0.451,1.33,0.826s0.639,0.852,0.826,1.43s0.281,1.266,0.281,2.063v8.332h-2.168v-8.344c0-0.531-0.064-0.973-0.193-1.324s-0.311-0.633-0.545-0.844s-0.52-0.357-0.855-0.439s-0.707-0.123-1.113-0.123c-0.445,0-0.84,0.07-1.184,0.211s-0.639,0.33-0.885,0.568s-0.441,0.52-0.586,0.844s-0.236,0.67-0.275,1.037v8.414h-2.18v-8.332c0-0.492-0.064-0.912-0.193-1.26s-0.311-0.631-0.545-0.85s-0.518-0.379-0.85-0.48s-0.705-0.152-1.119-0.152c-0.773,0-1.395,0.168-1.863,0.504s-0.82,0.773-1.055,1.313v9.258h-2.168v-12.68H210.797z"/><path d="M235.055,81.766c-0.883,0-1.682-0.152-2.396-0.457s-1.326-0.729-1.834-1.271s-0.898-1.189-1.172-1.939s-0.41-1.57-0.41-2.461v-0.492c0-1.031,0.154-1.953,0.463-2.766s0.721-1.496,1.236-2.051s1.105-0.979,1.77-1.271s1.355-0.439,2.074-0.439c0.906,0,1.688,0.158,2.344,0.475s1.197,0.752,1.623,1.307s0.74,1.211,0.943,1.969S240,73.949,240,74.84v0.973h-8.59c0.016,0.586,0.111,1.133,0.287,1.641s0.426,0.949,0.75,1.324s0.715,0.672,1.172,0.891s0.975,0.328,1.553,0.328c0.766,0,1.414-0.156,1.945-0.469s0.996-0.727,1.395-1.242l1.324,1.031c-0.203,0.313-0.449,0.615-0.738,0.908s-0.627,0.555-1.014,0.785s-0.83,0.414-1.33,0.551S235.688,81.766,235.055,81.766z M234.785,70.398c-0.438,0-0.84,0.08-1.207,0.24s-0.695,0.393-0.984,0.697s-0.529,0.684-0.721,1.137s-0.322,0.973-0.393,1.559h6.352v-0.164c-0.023-0.422-0.092-0.84-0.205-1.254s-0.289-0.785-0.527-1.113s-0.545-0.594-0.92-0.797S235.34,70.398,234.785,70.398z"/><path d="M247.875,75.074c0-0.922,0.135-1.775,0.404-2.561s0.652-1.467,1.148-2.045s1.1-1.031,1.811-1.359s1.508-0.492,2.391-0.492c0.898,0,1.705,0.164,2.42,0.492s1.322,0.781,1.822,1.359s0.883,1.26,1.148,2.045s0.398,1.639,0.398,2.561v0.258c0,0.922-0.133,1.775-0.398,2.561s-0.648,1.465-1.148,2.039s-1.105,1.023-1.816,1.348s-1.512,0.486-2.402,0.486s-1.691-0.162-2.402-0.486s-1.316-0.773-1.816-1.348s-0.885-1.254-1.154-2.039s-0.404-1.639-0.404-2.561V75.074z M250.055,75.332c0,0.633,0.074,1.23,0.223,1.793s0.373,1.057,0.674,1.482s0.676,0.764,1.125,1.014s0.975,0.375,1.576,0.375c0.594,0,1.117-0.125,1.57-0.375s0.828-0.588,1.125-1.014s0.521-0.92,0.674-1.482s0.229-1.16,0.229-1.793v-0.258c0-0.625-0.076-1.221-0.229-1.787s-0.379-1.063-0.68-1.488s-0.678-0.766-1.131-1.02s-0.98-0.381-1.582-0.381c-0.594,0-1.113,0.127-1.559,0.381s-0.818,0.594-1.119,1.02s-0.525,0.922-0.674,1.488s-0.223,1.162-0.223,1.787V75.332z"/><path d="M263.203,81.531V70.527h-2.004v-1.676h2.004v-1.336c0-0.68,0.096-1.283,0.287-1.811s0.467-0.971,0.826-1.33s0.797-0.631,1.313-0.814s1.098-0.275,1.746-0.275c0.5,0,0.996,0.066,1.488,0.199l-0.117,1.758c-0.164-0.031-0.35-0.057-0.557-0.076s-0.412-0.029-0.615-0.029c-0.703,0-1.246,0.205-1.629,0.615s-0.574,0.998-0.574,1.764v1.336h2.707v1.676h-2.707v11.004H263.203z"/><path d="M284.238,81.531c-0.078-0.156-0.141-0.354-0.188-0.592s-0.086-0.486-0.117-0.744c-0.203,0.211-0.432,0.412-0.686,0.604s-0.531,0.359-0.832,0.504s-0.627,0.258-0.979,0.34s-0.723,0.123-1.113,0.123c-0.648,0-1.236-0.098-1.764-0.293s-0.977-0.461-1.348-0.797s-0.658-0.732-0.861-1.189s-0.305-0.947-0.305-1.471c0-0.68,0.133-1.279,0.398-1.799s0.646-0.955,1.143-1.307s1.096-0.617,1.799-0.797s1.488-0.27,2.355-0.27h2.156v-0.996c0-0.758-0.227-1.361-0.68-1.811s-1.121-0.674-2.004-0.674c-0.406,0-0.777,0.055-1.113,0.164s-0.623,0.256-0.861,0.439s-0.424,0.396-0.557,0.639s-0.199,0.496-0.199,0.762h-2.18c0-0.453,0.119-0.902,0.357-1.348s0.576-0.846,1.014-1.201s0.967-0.645,1.588-0.867s1.314-0.334,2.08-0.334c0.688,0,1.322,0.088,1.904,0.264s1.08,0.441,1.494,0.797s0.738,0.799,0.973,1.33s0.352,1.152,0.352,1.863v5.895c0,0.43,0.037,0.881,0.111,1.354s0.186,0.881,0.334,1.225v0.188H284.238z M280.641,79.879c0.391,0,0.758-0.055,1.102-0.164s0.656-0.252,0.938-0.428s0.525-0.377,0.732-0.604s0.369-0.461,0.486-0.703v-2.602h-1.805c-1.242,0-2.199,0.193-2.871,0.58s-1.008,0.971-1.008,1.752c0,0.305,0.051,0.59,0.152,0.855s0.256,0.494,0.463,0.686s0.461,0.344,0.762,0.457S280.242,79.879,280.641,79.879z"/><path d="M308.297,76.117c-0.094,0.805-0.291,1.553-0.592,2.244s-0.717,1.289-1.248,1.793s-1.18,0.898-1.945,1.184s-1.66,0.428-2.684,0.428c-1.008,0-1.922-0.188-2.742-0.563s-1.521-0.908-2.104-1.6s-1.031-1.521-1.348-2.49s-0.475-2.051-0.475-3.246v-1.711c0-1.195,0.16-2.279,0.48-3.252s0.777-1.805,1.371-2.496s1.314-1.227,2.162-1.605s1.799-0.568,2.854-0.568c0.961,0,1.813,0.141,2.555,0.422s1.373,0.674,1.893,1.178s0.932,1.105,1.236,1.805s0.5,1.471,0.586,2.314h-2.262c-0.086-0.594-0.219-1.129-0.398-1.605s-0.428-0.883-0.744-1.219s-0.709-0.594-1.178-0.773s-1.031-0.27-1.688-0.27c-0.758,0-1.424,0.146-1.998,0.439s-1.055,0.703-1.441,1.23s-0.678,1.164-0.873,1.91s-0.293,1.568-0.293,2.467v1.734c0,0.836,0.088,1.621,0.264,2.355s0.443,1.377,0.803,1.928s0.816,0.984,1.371,1.301s1.211,0.475,1.969,0.475c0.719,0,1.324-0.086,1.816-0.258s0.9-0.42,1.225-0.744s0.576-0.723,0.756-1.195s0.316-1.01,0.41-1.611H308.297z"/><path d="M313.195,70.387c0.453-0.555,0.996-0.988,1.629-1.301s1.34-0.469,2.121-0.469c0.617,0,1.176,0.084,1.676,0.252s0.926,0.438,1.277,0.809s0.623,0.848,0.814,1.43S321,72.395,321,73.223v8.309h-2.168v-8.332c0-0.492-0.055-0.912-0.164-1.26s-0.271-0.631-0.486-0.85s-0.48-0.379-0.797-0.48s-0.682-0.152-1.096-0.152c-0.703,0-1.32,0.188-1.852,0.563s-0.945,0.867-1.242,1.477v9.035h-2.168v-18h2.168V70.387z"/><path d="M324.258,65.488c0-0.352,0.107-0.648,0.322-0.891s0.533-0.363,0.955-0.363s0.742,0.121,0.961,0.363s0.328,0.539,0.328,0.891s-0.109,0.645-0.328,0.879s-0.539,0.352-0.961,0.352s-0.74-0.117-0.955-0.352S324.258,65.84,324.258,65.488z M326.602,81.531h-2.168v-12.68h2.168V81.531z"/><path d="M332.121,68.852l0.07,1.594c0.453-0.57,1-1.018,1.641-1.342s1.359-0.486,2.156-0.486c0.617,0,1.176,0.084,1.676,0.252s0.926,0.438,1.277,0.809s0.623,0.848,0.814,1.43s0.287,1.287,0.287,2.115v8.309h-2.168v-8.332c0-0.492-0.055-0.912-0.164-1.26s-0.271-0.631-0.486-0.85s-0.48-0.379-0.797-0.48s-0.682-0.152-1.096-0.152c-0.703,0-1.32,0.188-1.852,0.563s-0.945,0.867-1.242,1.477v9.035h-2.168v-12.68H332.121z"/><path d="M348.574,81.766c-0.883,0-1.682-0.152-2.396-0.457s-1.326-0.729-1.834-1.271s-0.898-1.189-1.172-1.939s-0.41-1.57-0.41-2.461v-0.492c0-1.031,0.154-1.953,0.463-2.766s0.721-1.496,1.236-2.051s1.105-0.979,1.77-1.271s1.355-0.439,2.074-0.439c0.906,0,1.688,0.158,2.344,0.475s1.197,0.752,1.623,1.307s0.74,1.211,0.943,1.969s0.305,1.582,0.305,2.473v0.973h-8.59c0.016,0.586,0.111,1.133,0.287,1.641s0.426,0.949,0.75,1.324s0.715,0.672,1.172,0.891s0.975,0.328,1.553,0.328c0.766,0,1.414-0.156,1.945-0.469s0.996-0.727,1.395-1.242l1.324,1.031c-0.203,0.313-0.449,0.615-0.738,0.908s-0.627,0.555-1.014,0.785s-0.83,0.414-1.33,0.551S349.207,81.766,348.574,81.766zM348.305,70.398c-0.438,0-0.84,0.08-1.207,0.24s-0.695,0.393-0.984,0.697s-0.529,0.684-0.721,1.137s-0.322,0.973-0.393,1.559h6.352v-0.164c-0.023-0.422-0.092-0.84-0.205-1.254s-0.289-0.785-0.527-1.113s-0.545-0.594-0.92-0.797S348.859,70.398,348.305,70.398z"/><path d="M363.41,78.168c0-0.234-0.035-0.455-0.105-0.662s-0.209-0.402-0.416-0.586s-0.502-0.354-0.885-0.51s-0.887-0.301-1.512-0.434c-0.703-0.148-1.336-0.324-1.898-0.527s-1.041-0.447-1.436-0.732s-0.697-0.623-0.908-1.014s-0.316-0.848-0.316-1.371c0-0.5,0.111-0.975,0.334-1.424s0.537-0.844,0.943-1.184s0.898-0.609,1.477-0.809s1.223-0.299,1.934-0.299c0.758,0,1.436,0.104,2.033,0.311s1.105,0.49,1.523,0.85s0.736,0.779,0.955,1.26s0.328,0.994,0.328,1.541h-2.18c0-0.258-0.059-0.518-0.176-0.779s-0.289-0.496-0.516-0.703s-0.504-0.375-0.832-0.504s-0.707-0.193-1.137-0.193c-0.453,0-0.838,0.053-1.154,0.158s-0.576,0.246-0.779,0.422s-0.352,0.375-0.445,0.598s-0.141,0.451-0.141,0.686s0.039,0.445,0.117,0.633s0.227,0.357,0.445,0.51s0.518,0.293,0.896,0.422s0.869,0.26,1.471,0.393c0.773,0.18,1.445,0.383,2.016,0.609s1.043,0.49,1.418,0.791s0.654,0.646,0.838,1.037s0.275,0.844,0.275,1.359c0,0.555-0.115,1.063-0.346,1.523s-0.561,0.855-0.99,1.184s-0.945,0.584-1.547,0.768s-1.27,0.275-2.004,0.275c-0.844,0-1.588-0.117-2.232-0.352s-1.186-0.545-1.623-0.932s-0.77-0.828-0.996-1.324s-0.34-1.006-0.34-1.529h2.168c0.023,0.445,0.131,0.818,0.322,1.119s0.432,0.545,0.721,0.732s0.605,0.32,0.949,0.398s0.688,0.117,1.031,0.117c0.445,0,0.836-0.047,1.172-0.141s0.619-0.223,0.85-0.387s0.404-0.357,0.521-0.58S363.41,78.426,363.41,78.168z"/><path d="M368.496,80.395c0-0.375,0.111-0.688,0.334-0.938s0.557-0.375,1.002-0.375s0.783,0.125,1.014,0.375s0.346,0.563,0.346,0.938c0,0.359-0.115,0.66-0.346,0.902s-0.568,0.363-1.014,0.363s-0.779-0.121-1.002-0.363S368.496,80.754,368.496,80.395z M373.617,80.395c0-0.375,0.111-0.688,0.334-0.938s0.557-0.375,1.002-0.375s0.783,0.125,1.014,0.375s0.346,0.563,0.346,0.938c0,0.359-0.115,0.66-0.346,0.902s-0.568,0.363-1.014,0.363s-0.779-0.121-1.002-0.363S373.617,80.754,373.617,80.395z M378.48,80.395c0-0.375,0.111-0.688,0.334-0.938s0.557-0.375,1.002-0.375s0.783,0.125,1.014,0.375s0.346,0.563,0.346,0.938c0,0.359-0.115,0.66-0.346,0.902s-0.568,0.363-1.014,0.363s-0.779-0.121-1.002-0.363S378.48,80.754,378.48,80.395z"/></g><g class="chats_name"><path d="M120.455,35.99h-7.592v5.688h8.873v2.564H109.65V25.758h11.998v2.59h-8.785v5.104h7.592V35.99z"/><path d="M128.566,40.332l2.908-9.826h3.186l-4.76,13.736h-2.68l-4.799-13.736h3.199L128.566,40.332z"/><path d="M144.602,44.242c-0.085-0.161-0.154-0.351-0.21-0.571s-0.104-0.457-0.146-0.711c-0.203,0.211-0.43,0.411-0.68,0.597s-0.525,0.349-0.825,0.489s-0.626,0.25-0.978,0.33s-0.726,0.121-1.123,0.121c-0.686,0-1.316-0.104-1.893-0.311c-0.575-0.208-1.068-0.495-1.479-0.863s-0.732-0.802-0.965-1.301s-0.35-1.041-0.35-1.625c0-0.736,0.141-1.388,0.42-1.955s0.686-1.041,1.219-1.422s1.187-0.671,1.961-0.87s1.656-0.298,2.646-0.298h1.943v-0.901c0-0.711-0.199-1.28-0.598-1.708c-0.397-0.427-1.002-0.641-1.814-0.641c-0.364,0-0.694,0.049-0.99,0.146c-0.297,0.097-0.549,0.229-0.756,0.394s-0.368,0.362-0.482,0.59s-0.172,0.474-0.172,0.736h-3.084c0-0.542,0.133-1.064,0.399-1.568s0.646-0.952,1.136-1.346c0.491-0.394,1.086-0.709,1.784-0.946s1.479-0.355,2.343-0.355c0.77,0,1.48,0.1,2.133,0.298c0.651,0.199,1.214,0.495,1.688,0.889c0.475,0.394,0.843,0.884,1.105,1.473c0.262,0.588,0.393,1.276,0.393,2.063v6.094c0,1.236,0.174,2.222,0.521,2.958v0.216H144.602z M141.211,42.021c0.355,0,0.688-0.046,0.997-0.14s0.589-0.216,0.838-0.368s0.468-0.328,0.653-0.527c0.187-0.199,0.335-0.4,0.445-0.603v-2.59h-1.664c-1.143,0-2.001,0.199-2.576,0.597c-0.576,0.398-0.863,0.96-0.863,1.688c0,0.279,0.046,0.538,0.139,0.774c0.094,0.237,0.233,0.442,0.42,0.616c0.186,0.173,0.412,0.309,0.679,0.406S140.855,42.021,141.211,42.021z"/><path d="M166.895,39.481c0-0.373-0.056-0.705-0.166-0.997c-0.109-0.292-0.311-0.561-0.603-0.806s-0.694-0.48-1.206-0.705s-1.17-0.459-1.975-0.705c-0.88-0.262-1.692-0.563-2.438-0.901c-0.744-0.338-1.385-0.732-1.923-1.181s-0.958-0.965-1.263-1.549s-0.457-1.252-0.457-2.006c0-0.745,0.158-1.43,0.476-2.057s0.764-1.168,1.339-1.625c0.576-0.457,1.266-0.813,2.07-1.066c0.804-0.254,1.692-0.381,2.666-0.381c1.041,0,1.976,0.15,2.805,0.451c0.83,0.3,1.53,0.709,2.102,1.225s1.01,1.115,1.314,1.796s0.457,1.407,0.457,2.177h-3.199c0-0.449-0.07-0.861-0.21-1.238s-0.354-0.703-0.642-0.978c-0.287-0.275-0.651-0.489-1.092-0.641c-0.439-0.152-0.96-0.229-1.561-0.229c-0.567,0-1.059,0.063-1.473,0.19c-0.415,0.127-0.76,0.305-1.035,0.533s-0.479,0.5-0.609,0.813s-0.197,0.652-0.197,1.016c0,0.686,0.324,1.257,0.972,1.714s1.636,0.88,2.964,1.27c1.041,0.305,1.943,0.643,2.705,1.016s1.395,0.793,1.897,1.263s0.878,0.999,1.124,1.587c0.245,0.588,0.367,1.25,0.367,1.987c0,0.779-0.154,1.479-0.463,2.101s-0.749,1.151-1.32,1.587s-1.264,0.77-2.076,1.003s-1.718,0.349-2.717,0.349c-0.889,0-1.764-0.121-2.627-0.362s-1.639-0.605-2.324-1.092s-1.237-1.094-1.656-1.822s-0.629-1.583-0.629-2.564h3.213c0,0.584,0.104,1.085,0.311,1.504s0.49,0.762,0.851,1.028s0.785,0.461,1.276,0.584c0.49,0.123,1.02,0.184,1.586,0.184c1.117,0,1.957-0.227,2.521-0.679S166.895,40.226,166.895,39.481z"/><path d="M180.947,42.896c-0.432,0.508-0.965,0.901-1.6,1.181s-1.388,0.419-2.26,0.419c-0.677,0-1.293-0.095-1.847-0.286s-1.03-0.491-1.429-0.901c-0.397-0.411-0.706-0.939-0.926-1.587c-0.221-0.647-0.33-1.424-0.33-2.33v-8.887h3.084v8.912c0,0.5,0.06,0.912,0.178,1.238c0.119,0.326,0.277,0.588,0.477,0.787s0.43,0.338,0.691,0.419c0.263,0.081,0.538,0.121,0.826,0.121c0.795,0,1.438-0.144,1.93-0.432c0.49-0.288,0.858-0.681,1.104-1.181v-9.864h3.086v13.736h-2.908L180.947,42.896z"/><path d="M189.975,30.506l0.088,1.435c0.457-0.533,1.014-0.948,1.67-1.244s1.42-0.444,2.291-0.444c0.838,0,1.588,0.167,2.248,0.501s1.168,0.87,1.523,1.606c0.457-0.643,1.034-1.155,1.732-1.536s1.525-0.571,2.482-0.571c0.711,0,1.346,0.095,1.904,0.286s1.029,0.491,1.415,0.901s0.681,0.938,0.889,1.581s0.312,1.417,0.312,2.323v8.899h-3.086V35.33c0-0.508-0.057-0.925-0.171-1.25s-0.279-0.586-0.495-0.781s-0.475-0.33-0.774-0.406s-0.642-0.114-1.022-0.114c-0.702,0-1.275,0.188-1.72,0.565s-0.755,0.87-0.933,1.479c0,0.042,0.002,0.087,0.006,0.133s0.006,0.091,0.006,0.133v9.153h-3.084v-8.874c0-0.482-0.058-0.889-0.172-1.219s-0.279-0.597-0.495-0.8s-0.476-0.349-0.78-0.438s-0.648-0.133-1.029-0.133c-0.66,0-1.203,0.135-1.631,0.406s-0.76,0.639-0.996,1.104v9.953h-3.086V30.506H189.975z"/><path d="M212.598,30.506l0.088,1.435c0.457-0.533,1.014-0.948,1.67-1.244s1.42-0.444,2.291-0.444c0.838,0,1.588,0.167,2.248,0.501s1.168,0.87,1.523,1.606c0.457-0.643,1.034-1.155,1.732-1.536s1.525-0.571,2.482-0.571c0.711,0,1.346,0.095,1.904,0.286s1.029,0.491,1.415,0.901s0.681,0.938,0.889,1.581s0.312,1.417,0.312,2.323v8.899h-3.086V35.33c0-0.508-0.057-0.925-0.171-1.25s-0.279-0.586-0.495-0.781s-0.475-0.33-0.774-0.406s-0.642-0.114-1.022-0.114c-0.702,0-1.275,0.188-1.72,0.565s-0.755,0.87-0.933,1.479c0,0.042,0.002,0.087,0.006,0.133s0.006,0.091,0.006,0.133v9.153h-3.084v-8.874c0-0.482-0.058-0.889-0.172-1.219s-0.279-0.597-0.495-0.8s-0.476-0.349-0.78-0.438s-0.648-0.133-1.029-0.133c-0.66,0-1.203,0.135-1.631,0.406s-0.76,0.639-0.996,1.104v9.953h-3.086V30.506H212.598z"/><path d="M238.369,44.496c-1.016,0-1.93-0.169-2.742-0.508s-1.503-0.804-2.07-1.396c-0.566-0.592-1.002-1.295-1.307-2.107s-0.457-1.688-0.457-2.628v-0.508c0-1.083,0.16-2.063,0.482-2.939c0.321-0.876,0.762-1.621,1.32-2.234s1.217-1.087,1.974-1.422s1.572-0.501,2.444-0.501c0.998,0,1.865,0.167,2.602,0.501s1.346,0.802,1.828,1.403s0.843,1.316,1.08,2.146c0.236,0.83,0.355,1.739,0.355,2.729v1.32h-8.977c0.043,0.533,0.154,1.024,0.337,1.473s0.43,0.836,0.743,1.162c0.313,0.326,0.684,0.582,1.11,0.768s0.912,0.279,1.454,0.279c0.762,0,1.424-0.152,1.986-0.457s1.052-0.724,1.467-1.257l1.662,1.587c-0.22,0.33-0.492,0.649-0.818,0.958s-0.707,0.584-1.143,0.825s-0.929,0.436-1.479,0.584C239.672,44.422,239.055,44.496,238.369,44.496z M238,32.728c-0.846,0-1.529,0.296-2.05,0.889s-0.853,1.417-0.997,2.476h5.879v-0.229c-0.025-0.406-0.092-0.798-0.197-1.174s-0.269-0.711-0.488-1.003c-0.221-0.292-0.506-0.525-0.857-0.698S238.508,32.728,238,32.728z"/><path d="M253.463,33.324c-0.203-0.034-0.408-0.059-0.615-0.076s-0.421-0.025-0.641-0.025c-0.745,0-1.351,0.144-1.816,0.432c-0.465,0.288-0.813,0.686-1.041,1.193v9.395h-3.084V30.506h2.945l0.076,1.536c0.347-0.559,0.775-0.997,1.288-1.314s1.115-0.476,1.81-0.476c0.178,0,0.379,0.019,0.603,0.057s0.388,0.078,0.489,0.121L253.463,33.324z"/></g><g class="chats_date"><path d="M414.354,45.109h-1.816V33.068l-3.643,1.338v-1.641l5.176-1.943h0.283V45.109z"/><path d="M428.963,45.109h-9.316v-1.299l4.658-5.176c0.43-0.475,0.786-0.895,1.069-1.26s0.508-0.698,0.674-1.001s0.282-0.586,0.347-0.85s0.098-0.532,0.098-0.806c0-0.352-0.055-0.682-0.166-0.991s-0.27-0.578-0.479-0.806s-0.465-0.409-0.771-0.542s-0.658-0.2-1.055-0.2c-0.482,0-0.9,0.072-1.255,0.215s-0.649,0.342-0.884,0.596s-0.41,0.558-0.527,0.913s-0.176,0.747-0.176,1.177h-1.807c0-0.599,0.1-1.166,0.298-1.699s0.493-1,0.884-1.396s0.875-0.711,1.455-0.942s1.25-0.347,2.012-0.347c0.67,0,1.271,0.091,1.802,0.273s0.979,0.441,1.348,0.776s0.649,0.737,0.845,1.206s0.293,0.986,0.293,1.553c0,0.417-0.072,0.836-0.215,1.26s-0.336,0.845-0.576,1.265s-0.523,0.836-0.85,1.25s-0.668,0.819-1.025,1.216l-3.818,4.141h7.139V45.109z"/><path d="M431.004,44.162c0-0.313,0.093-0.573,0.278-0.781s0.464-0.313,0.835-0.313s0.652,0.104,0.845,0.313s0.288,0.469,0.288,0.781c0,0.299-0.096,0.55-0.288,0.752s-0.474,0.303-0.845,0.303s-0.649-0.101-0.835-0.303S431.004,44.461,431.004,44.162z M431.014,35.539c0-0.313,0.093-0.573,0.278-0.781s0.464-0.313,0.835-0.313s0.652,0.104,0.845,0.313s0.288,0.469,0.288,0.781c0,0.299-0.096,0.55-0.288,0.752s-0.474,0.303-0.845,0.303s-0.649-0.101-0.835-0.303S431.014,35.838,431.014,35.539z"/><path d="M438.348,37.121h1.289c0.469,0,0.879-0.062,1.23-0.186s0.645-0.294,0.879-0.513s0.41-0.475,0.527-0.771s0.176-0.62,0.176-0.972c0-0.814-0.205-1.434-0.615-1.86s-1.035-0.64-1.875-0.64c-0.385,0-0.734,0.057-1.05,0.171s-0.586,0.277-0.811,0.488s-0.399,0.469-0.522,0.771s-0.186,0.64-0.186,1.011h-1.807c0-0.547,0.104-1.058,0.313-1.533s0.504-0.89,0.889-1.245s0.845-0.635,1.382-0.84s1.134-0.308,1.792-0.308c0.645,0,1.23,0.086,1.758,0.259s0.979,0.426,1.353,0.762s0.665,0.753,0.874,1.255s0.313,1.084,0.313,1.748c0,0.267-0.044,0.547-0.132,0.84s-0.222,0.58-0.4,0.859s-0.41,0.542-0.693,0.786s-0.62,0.448-1.011,0.61c0.469,0.15,0.861,0.347,1.177,0.591s0.567,0.516,0.757,0.815s0.322,0.615,0.4,0.947s0.117,0.658,0.117,0.977c0,0.664-0.113,1.255-0.342,1.772s-0.543,0.952-0.947,1.304s-0.879,0.62-1.426,0.806s-1.143,0.278-1.787,0.278c-0.619,0-1.201-0.086-1.748-0.259s-1.025-0.426-1.436-0.762s-0.734-0.749-0.972-1.24s-0.356-1.053-0.356-1.685h1.816c0,0.371,0.063,0.708,0.186,1.011s0.303,0.563,0.537,0.781s0.518,0.386,0.85,0.503s0.707,0.176,1.123,0.176s0.791-0.054,1.123-0.161s0.615-0.272,0.85-0.493s0.414-0.498,0.537-0.83s0.186-0.719,0.186-1.162s-0.072-0.827-0.215-1.152s-0.347-0.594-0.61-0.806s-0.581-0.37-0.952-0.474s-0.787-0.156-1.25-0.156h-1.289V37.121z"/><path d="M455.867,39.045c0,1.166-0.104,2.147-0.313,2.944s-0.506,1.442-0.894,1.934s-0.856,0.845-1.406,1.06s-1.171,0.322-1.86,0.322c-0.684,0-1.303-0.107-1.855-0.322s-1.025-0.568-1.416-1.06s-0.693-1.136-0.908-1.934s-0.322-1.779-0.322-2.944v-2.168c0-1.166,0.105-2.142,0.317-2.93s0.513-1.422,0.903-1.904s0.861-0.827,1.411-1.035s1.167-0.313,1.851-0.313c0.689,0,1.313,0.104,1.865,0.313s1.025,0.553,1.416,1.035s0.689,1.117,0.898,1.904s0.313,1.764,0.313,2.93V39.045z M454.061,36.574c0-0.801-0.057-1.481-0.171-2.041s-0.284-1.014-0.513-1.362s-0.51-0.601-0.845-0.757s-0.722-0.234-1.157-0.234c-0.43,0-0.813,0.078-1.147,0.234s-0.615,0.409-0.84,0.757s-0.396,0.802-0.513,1.362s-0.176,1.24-0.176,2.041v2.754c0,0.794,0.059,1.476,0.176,2.046s0.291,1.037,0.522,1.401s0.515,0.631,0.85,0.801s0.718,0.254,1.147,0.254c0.443,0,0.83-0.084,1.162-0.254s0.61-0.436,0.835-0.801s0.392-0.832,0.503-1.401s0.166-1.251,0.166-2.046V36.574z"/></g><g class="chats_sentCheck"><path d="M376.674,41.42l-4.979-5.274L370,37.93l6.674,7.07L391,29.823l-1.684-1.784L376.674,41.42z"/><polygon points="397.903,28.039 385.261,41.42 383.656,39.721 381.967,41.511 385.261,45 399.587,29.823"/></g></svg>