<svg xmlns="http://www.w3.org/2000/svg" viewBox="-299.524 582.862 359.953 204.723"><path d="M-299.524 582.862H60.429v204.723h-359.953z"/><path class="player_background" d="M-299.524 582.862H60.429v204.723h-359.953z"/><g class="player_button"><path d="M-182.256 731.624l-11.518 6.649v-5.649c0-1.1-.71-1.55-1.579-1l-11.007 6.977c-.868.55-.868 1.45 0 2l11.007 6.977c.87.55 1.579.102 1.579-1v-5.649l11.518 6.65c.953.55 1.732.1 1.732-1v-13.953c0-1.101-.779-1.552-1.732-1.002zM-32.759 738.602l-11.008-6.98c-.869-.55-1.578-.1-1.578 1v5.652l-11.517-6.652c-.953-.55-1.733-.1-1.733 1v13.952c0 1.102.78 1.55 1.733 1l11.517-6.646v5.646c0 1.102.71 1.55 1.578 1l11.008-6.974c.867-.548.867-1.448 0-1.998zM-123.94 727.695h-6.183c-.73 0-1.32.588-1.32 1.318v21.028c0 .73.59 1.319 1.32 1.319h6.183c.726 0 1.318-.59 1.318-1.319v-21.028c0-.729-.59-1.318-1.318-1.318zM-108.94 727.695h-6.182c-.73 0-1.32.588-1.32 1.318v21.028c0 .73.59 1.319 1.32 1.319h6.182c.726 0 1.318-.59 1.318-1.319v-21.028c0-.729-.59-1.318-1.318-1.318zM29.169 736.482c0-.743.603-1.348 1.348-1.348h9.086v2.969l4.712-4.087-4.712-4.086v2.902h-9.086a3.654 3.654 0 0 0-3.649 3.649v4.7l2.303-1.995v-2.704h-.002zM41.608 742.715a1.35 1.35 0 0 1-1.347 1.349h-9.086v-2.969l-4.713 4.088 4.713 4.086v-2.904h9.086a3.65 3.65 0 0 0 3.646-3.647v-4.7l-2.3 1.994v2.703h.001z"/></g><g class="player_buttonActive"><path d="M-263.069 731.13l-4.087 4.712h2.962v10.394h2.25v-10.394h2.962zM-271.61 732.296h-2.25v10.394h-2.963l4.087 4.713 4.087-4.713h-2.962z"/></g><path class="player_progressBackground" d="M37.896 667.602h-217.868c.125.504.198 1.028.198 1.57 0 .492-.059.97-.16 1.432h217.83v-3.002z"/><path class="player_progress" d="M-179.972 667.602c-.704-2.864-3.282-4.991-6.364-4.991s-5.66 2.127-6.364 4.99h-84.335v3.003h84.298c.654 2.935 3.27 5.13 6.401 5.13a6.563 6.563 0 0 0 6.562-6.562c0-.542-.073-1.065-.198-1.57z"/><g class="player_actionBarItems"><circle cx="26.726" cy="620.361" r="2.25"/><circle cx="26.726" cy="627.048" r="2.25"/><circle cx="26.726" cy="633.736" r="2.25"/></g><g class="player_time"><path d="M-215.919 643.64h5.283v1.202h-6.761v-11.147h1.478v9.946zM-209.173 634.36c0-.23.07-.423.21-.581.142-.159.349-.238.624-.238s.485.08.628.238.214.351.214.582c0 .228-.07.42-.214.574-.143.152-.352.228-.628.228s-.482-.076-.624-.228a.821.821 0 0 1-.21-.574zm1.531 10.482h-1.418v-8.284h1.418v8.284zM-204.034 636.559l.045 1.042a3.219 3.219 0 0 1 1.072-.878c.418-.211.889-.317 1.41-.317.403 0 .768.055 1.094.166.326.109.603.286.834.528.228.241.407.554.532.933s.189.841.189 1.382v5.429h-1.418v-5.443c0-.323-.036-.597-.107-.824s-.177-.412-.317-.554a1.25 1.25 0 0 0-.522-.315 2.377 2.377 0 0 0-.716-.098c-.46 0-.863.122-1.21.367a2.48 2.48 0 0 0-.812.965v5.902h-1.417v-8.284h1.343v-.001zM-194.411 641.006l-.888.927v2.909h-1.417v-11.76h1.417v7.113l.758-.912 2.581-2.725h1.723l-3.224 3.46 3.599 4.824h-1.662l-2.887-3.836zM-188.769 634.36c0-.23.07-.423.211-.581s.349-.238.623-.238c.278 0 .487.08.63.238s.213.351.213.582c0 .228-.071.42-.214.574-.142.152-.351.228-.629.228-.274 0-.482-.076-.623-.228a.826.826 0 0 1-.21-.574zm1.534 10.482h-1.418v-8.284h1.418v8.284zM-183.63 636.559l.046 1.042a3.209 3.209 0 0 1 1.072-.878c.418-.211.888-.317 1.41-.317.402 0 .767.055 1.094.166.325.109.605.286.834.528.23.241.407.554.532.933s.188.841.188 1.382v5.429h-1.417v-5.443a2.8 2.8 0 0 0-.107-.824 1.354 1.354 0 0 0-.318-.554 1.238 1.238 0 0 0-.521-.315 2.368 2.368 0 0 0-.715-.098 2.05 2.05 0 0 0-1.211.367 2.505 2.505 0 0 0-.813.965v5.902h-1.416v-8.284h1.342v-.001zM-170.744 640.479v4.363h-1.47v-11.147h4.111c.634 0 1.193.084 1.678.252.485.168.893.405 1.22.708.33.302.58.664.75 1.08.173.416.257.872.257 1.367 0 .535-.084 1.013-.256 1.435-.171.421-.421.775-.75 1.062a3.335 3.335 0 0 1-1.22.653c-.485.152-1.045.227-1.679.227h-2.641zm0-1.202h2.641c.43 0 .797-.055 1.107-.162a2.02 2.02 0 0 0 .759-.448c.195-.19.34-.418.431-.68a2.6 2.6 0 0 0 .139-.87 2.52 2.52 0 0 0-.139-.83 1.898 1.898 0 0 0-.431-.709 2.116 2.116 0 0 0-.76-.49c-.309-.123-.677-.183-1.106-.183h-2.641v4.372zM-157.513 644.842a1.555 1.555 0 0 1-.123-.387 7.04 7.04 0 0 1-.077-.486c-.133.139-.282.27-.448.396a3.113 3.113 0 0 1-1.183.55c-.23.054-.471.081-.727.081a3.29 3.29 0 0 1-1.153-.191 2.712 2.712 0 0 1-.88-.52 2.299 2.299 0 0 1-.563-.778 2.34 2.34 0 0 1-.2-.96c0-.444.089-.837.26-1.176.174-.339.422-.624.749-.853.324-.23.714-.403 1.173-.522a6.236 6.236 0 0 1 1.54-.175h1.41v-.652c0-.495-.149-.888-.446-1.182-.295-.293-.731-.44-1.308-.44-.266 0-.509.035-.728.107-.22.07-.407.167-.563.287s-.278.258-.364.417c-.085.157-.13.323-.13.498h-1.424c0-.296.078-.591.233-.882s.376-.552.663-.784c.285-.233.632-.421 1.037-.567.407-.144.86-.217 1.36-.217.449 0 .864.056 1.244.171.38.116.706.288.976.52.27.234.482.523.636.87.153.348.23.753.23 1.217v3.851c0 .282.023.577.072.884.049.31.122.576.219.8v.123h-1.485zm-2.351-1.08c.256 0 .495-.034.72-.106.225-.07.43-.165.614-.279a2.35 2.35 0 0 0 .478-.393c.135-.149.24-.301.317-.46v-1.7h-1.18c-.81 0-1.436.126-1.875.38-.44.251-.658.633-.658 1.144 0 .2.032.386.1.56.066.172.165.323.301.448.135.125.3.224.498.299.196.072.425.108.685.108zM-150.094 637.83c-.122-.02-.236-.035-.34-.043s-.223-.01-.356-.01c-.49 0-.889.106-1.197.32-.31.215-.541.504-.694.865v5.88h-1.418v-8.284h1.38l.023.957c.213-.343.481-.612.802-.813.323-.199.713-.297 1.173-.297.102 0 .219.01.352.034.134.022.225.047.275.072v1.318zM-146.48 641.006l-.888.927v2.909h-1.416v-11.76h1.416v7.113l.758-.912 2.582-2.725h1.722l-3.224 3.46 3.6 4.824h-1.662l-2.887-3.836z"/><g><path d="M-270.32 694.803c0 .773-.07 1.426-.209 1.954-.138.53-.336.958-.593 1.284a2.176 2.176 0 0 1-.934.703 3.396 3.396 0 0 1-1.235.214c-.454 0-.864-.071-1.231-.214s-.681-.377-.94-.703c-.26-.326-.46-.755-.603-1.284-.143-.528-.214-1.18-.214-1.954v-1.438c0-.773.07-1.421.21-1.945.141-.521.34-.942.6-1.264.259-.319.571-.548.937-.687a3.439 3.439 0 0 1 1.23-.208c.457 0 .87.07 1.237.208s.681.367.94.687c.26.32.458.742.596 1.264.139.524.208 1.172.208 1.945v1.438zm-1.2-1.639c0-.53-.038-.983-.113-1.353-.076-.372-.189-.674-.34-.905a1.353 1.353 0 0 0-.56-.502 1.793 1.793 0 0 0-.769-.156c-.285 0-.539.052-.762.156s-.408.27-.558.502c-.149.231-.262.533-.34.905-.078.37-.117.822-.117 1.353v1.828c0 .528.039.979.117 1.357.078.379.193.688.347.932.153.242.341.418.564.53.222.112.476.169.761.169.294 0 .551-.057.771-.168.22-.113.405-.29.554-.531s.26-.553.334-.932c.073-.378.11-.83.11-1.357v-1.828h.001zM-268.7 698.2c0-.207.062-.38.185-.52.123-.137.308-.206.554-.206.247 0 .433.07.561.207.127.14.191.312.191.52 0 .199-.064.365-.19.498s-.315.202-.562.202c-.246 0-.431-.068-.554-.202s-.185-.3-.185-.499zm.006-5.723c0-.207.062-.381.185-.52.124-.137.308-.207.554-.207.247 0 .434.07.561.207.127.139.19.313.19.52a.696.696 0 0 1-.19.499c-.127.135-.314.2-.561.2-.246 0-.43-.065-.554-.2s-.185-.301-.185-.5zM-265.019 694.097l.479-4.705h4.835v1.107h-3.818l-.285 2.574c.168-.101.386-.193.651-.279.266-.087.574-.13.924-.13.432 0 .822.075 1.17.224.348.148.643.36.885.636.242.273.428.605.558.995.13.388.194.822.194 1.303 0 .454-.062.872-.185 1.254s-.308.713-.554.992-.556.497-.93.653c-.374.158-.813.237-1.32.237-.379 0-.739-.052-1.078-.159a2.651 2.651 0 0 1-.904-.481 2.538 2.538 0 0 1-.648-.818 3.117 3.117 0 0 1-.312-1.153h1.134c.074.54.266.947.577 1.223.311.274.722.41 1.231.41.285 0 .538-.05.758-.148.221-.1.407-.242.561-.427a1.93 1.93 0 0 0 .35-.678c.08-.267.12-.564.12-.892 0-.294-.041-.567-.123-.823a1.924 1.924 0 0 0-.363-.665 1.672 1.672 0 0 0-.593-.442 1.912 1.912 0 0 0-.807-.163c-.203 0-.378.014-.525.042s-.279.068-.396.12a1.586 1.586 0 0 0-.32.19c-.098.076-.201.16-.309.25l-.957-.247zM-253.416 689.384v1.019h-.11c-.575 0-1.063.087-1.465.26a2.797 2.797 0 0 0-.992.69 2.94 2.94 0 0 0-.59.987 4.543 4.543 0 0 0-.253 1.153c.26-.297.563-.514.911-.651a3.07 3.07 0 0 1 1.125-.204c.471 0 .876.09 1.215.27.34.18.619.415.84.707a3 3 0 0 1 .489.995c.105.372.16.752.16 1.14 0 .45-.064.87-.189 1.261-.125.393-.31.73-.558 1.019a2.61 2.61 0 0 1-.914.68c-.363.166-.785.25-1.264.25-.51 0-.955-.105-1.335-.316a2.953 2.953 0 0 1-.949-.833c-.253-.345-.442-.732-.567-1.164s-.188-.866-.188-1.304v-.562c0-.442.027-.881.081-1.32.054-.437.148-.856.282-1.258.134-.399.313-.771.535-1.114.222-.344.501-.642.836-.894a3.844 3.844 0 0 1 1.193-.594c.46-.144.993-.215 1.598-.215h.109v-.002zm-1.575 4.252c-.212 0-.415.034-.61.102a2.08 2.08 0 0 0-.962.686 1.779 1.779 0 0 0-.282.51v.44c0 .423.051.796.152 1.117.102.323.238.592.408.811.171.219.366.385.587.496.22.112.449.168.687.168.276 0 .523-.053.739-.157.216-.107.399-.256.548-.447.15-.193.263-.421.34-.686.078-.263.117-.553.117-.867 0-.281-.036-.553-.107-.814a2.163 2.163 0 0 0-.32-.693 1.64 1.64 0 0 0-.539-.482 1.515 1.515 0 0 0-.758-.184z"/></g><g><path d="M14.837 693.528h.855c.313 0 .584-.041.817-.124.232-.082.428-.196.584-.34.154-.146.271-.316.35-.513.078-.196.117-.412.117-.645 0-.54-.137-.952-.409-1.235s-.687-.425-1.244-.425c-.256 0-.486.038-.697.114a1.533 1.533 0 0 0-.537.324c-.15.14-.266.311-.348.512a1.761 1.761 0 0 0-.123.67h-1.2a2.47 2.47 0 0 1 .797-1.844c.257-.235.561-.42.919-.558a3.319 3.319 0 0 1 1.19-.204c.427 0 .816.059 1.165.172.352.114.65.283.899.507.248.222.44.5.58.833.138.332.207.718.207 1.159 0 .178-.03.362-.088.559a2.363 2.363 0 0 1-.727 1.09 2.476 2.476 0 0 1-.672.406c.313.1.573.228.782.391s.377.343.502.542c.127.198.215.408.265.628.055.222.078.438.078.649 0 .44-.074.833-.226 1.176s-.361.632-.63.866a2.806 2.806 0 0 1-.944.535c-.364.123-.76.184-1.188.184-.41 0-.797-.057-1.16-.172s-.68-.283-.953-.505a2.42 2.42 0 0 1-.645-.824c-.16-.326-.236-.699-.236-1.118h1.205c0 .246.041.47.123.671.082.201.201.374.358.52.154.145.343.255.562.334.22.078.469.116.744.116.278 0 .526-.035.746-.107a1.46 1.46 0 0 0 .565-.327c.154-.146.273-.33.355-.55.082-.221.123-.478.123-.771 0-.294-.047-.55-.142-.766a1.405 1.405 0 0 0-.405-.535 1.748 1.748 0 0 0-.632-.313 3.064 3.064 0 0 0-.83-.105h-.856v-.977h.004zM20.632 698.2c0-.207.062-.38.185-.52.123-.137.309-.206.555-.206s.434.07.56.207c.13.14.192.312.192.52 0 .199-.062.365-.191.498-.127.134-.313.202-.56.202-.247 0-.433-.068-.556-.202s-.185-.3-.185-.499zm.008-5.723c0-.207.06-.381.183-.52.123-.137.31-.207.557-.207s.433.07.56.207a.742.742 0 0 1 .192.52c0 .198-.065.364-.192.499s-.314.2-.56.2c-.248 0-.434-.065-.557-.2s-.183-.301-.183-.5zM27.704 698.83H26.5v-7.993l-2.416.889v-1.09l3.434-1.29h.187v9.483zM36.94 691.855c0 .47-.125.89-.373 1.258s-.584.653-1.007.86c.242.105.46.234.658.39.195.156.365.332.506.529.14.195.248.41.324.644.076.234.113.483.113.745 0 .433-.076.815-.23 1.147a2.385 2.385 0 0 1-.635.84 2.822 2.822 0 0 1-.953.516c-.365.117-.76.175-1.184.175s-.818-.058-1.185-.175a2.734 2.734 0 0 1-.953-.515 2.427 2.427 0 0 1-.633-.841 2.724 2.724 0 0 1-.229-1.147c0-.262.035-.511.11-.745s.177-.449.314-.648c.137-.197.3-.376.494-.53.195-.156.412-.285.654-.39a2.469 2.469 0 0 1-.99-.861 2.22 2.22 0 0 1-.363-1.251c0-.41.068-.777.209-1.1.137-.321.33-.593.574-.812.246-.221.541-.39.883-.506s.713-.176 1.113-.176c.403 0 .774.06 1.114.176.337.116.632.284.88.506.248.22.442.49.58.812.141.322.21.689.21 1.099zm-.978 4.401c0-.264-.045-.506-.133-.725-.09-.221-.213-.41-.373-.568-.16-.158-.352-.28-.574-.366s-.467-.13-.735-.13c-.271 0-.52.043-.74.13a1.617 1.617 0 0 0-.562.366c-.155.157-.276.348-.36.568s-.125.461-.125.725c0 .273.041.516.123.727.082.212.2.392.356.542.154.147.346.261.566.34.223.078.475.116.754.116.278 0 .528-.038.75-.116s.41-.192.567-.34c.156-.15.275-.33.359-.542s.127-.454.127-.727zm-.22-4.382c0-.232-.038-.449-.112-.647a1.542 1.542 0 0 0-.324-.516 1.53 1.53 0 0 0-.502-.34 1.641 1.641 0 0 0-.645-.124c-.23 0-.445.038-.64.114a1.398 1.398 0 0 0-.826.836 1.901 1.901 0 0 0-.114.677c0 .242.037.463.113.661a1.384 1.384 0 0 0 .82.833c.194.076.41.114.647.114.238 0 .453-.038.649-.114s.36-.183.5-.324c.136-.14.244-.31.32-.509.076-.198.113-.419.113-.66z"/></g></g><g class="player_actionBarTitle"><path d="M-207.774 620.895h-2.416l-4.704-7.717v7.717h-2.418v-11.728h2.418l4.711 7.733v-7.733h2.409v11.728zM-200.597 620.008c-.274.333-.607.59-.999.773s-.854.274-1.385.274c-.43 0-.82-.06-1.176-.18a2.31 2.31 0 0 1-.914-.573c-.254-.26-.453-.596-.592-1.007s-.21-.902-.21-1.477v-5.639h2.33v5.654c0 .242.03.448.09.62s.15.31.259.415c.11.105.24.181.391.23.152.048.318.071.5.071.418 0 .76-.071 1.023-.217.263-.144.465-.346.604-.603v-6.171h2.335v8.716h-2.19l-.066-.886zM-194.403 612.179l.072.976c.29-.355.643-.632 1.059-.833s.898-.302 1.445-.302c.521 0 .981.103 1.38.313.401.21.712.548.93 1.016a3.11 3.11 0 0 1 1.077-.976c.432-.236.946-.353 1.543-.353.423 0 .81.058 1.156.177.345.118.64.308.885.572.244.262.432.604.563 1.026.132.421.198.939.198 1.55v5.55h-2.336v-5.55c0-.29-.03-.528-.093-.717a1.011 1.011 0 0 0-.262-.438.916.916 0 0 0-.41-.218 2.243 2.243 0 0 0-.55-.06c-.358 0-.66.09-.901.269-.243.18-.424.424-.547.73 0 .027 0 .056.004.088l.003.088v5.808h-2.328v-5.534c0-.29-.03-.53-.09-.717a1.014 1.014 0 0 0-.257-.444.92.92 0 0 0-.414-.225 2.142 2.142 0 0 0-.553-.065c-.344 0-.634.073-.87.217a1.582 1.582 0 0 0-.564.605v6.162h-2.328v-8.716h2.188v.001zM-174.454 616.617a7.24 7.24 0 0 1-.21 1.796 4.184 4.184 0 0 1-.63 1.402 2.964 2.964 0 0 1-1.06.914c-.424.217-.92.325-1.49.325-.505 0-.94-.095-1.31-.285a2.91 2.91 0 0 1-.954-.802l-.104.927h-2.094v-12.371h2.328v4.437c.258-.3.56-.533.907-.696.345-.164.75-.245 1.21-.245.57 0 1.068.11 1.495.329.428.22.783.526 1.067.918.284.392.497.86.636 1.401s.209 1.136.209 1.78v.17zm-2.328-.169c0-.343-.024-.67-.072-.979a2.43 2.43 0 0 0-.262-.81 1.44 1.44 0 0 0-.512-.547c-.214-.134-.488-.202-.82-.202-.393 0-.711.08-.96.238-.245.159-.437.383-.571.673v3.438c.134.29.326.517.572.678.248.16.572.241.974.241.329 0 .598-.063.81-.192s.382-.307.509-.533a2.43 2.43 0 0 0 .261-.81c.048-.314.073-.655.073-1.027v-.168h-.002z"/></g><circle class="player_placeholderBackground" cx="-257.412" cy="627.298" r="22.375"/><g class="player_placeholder"><path d="M-266.108 633.964v-13.27h-.438c-1.185 0-2.146.96-2.146 2.145v13.71c0 1.185.96 2.146 2.146 2.146h13.71c1.184 0 2.145-.96 2.145-2.147v-.437h-13.27a2.146 2.146 0 0 1-2.147-2.147z"/><path d="M-248.003 615.86h-13.709c-1.186 0-2.146.962-2.146 2.146v13.71c0 1.186.961 2.146 2.146 2.146h13.71c1.184 0 2.145-.961 2.145-2.147v-13.709c0-1.184-.96-2.145-2.146-2.145zm-1.845 6.335h-3.417v6.295a2.881 2.881 0 1 1-2.881-2.88c.645 0 1.715.042 1.715.042v-5.624h4.583v2.167z"/></g></svg>