<svg viewBox="0 316.167 480 200" xmlns="http://www.w3.org/2000/svg"><rect y="316.167" width="480" height="200"/><rect class="windowBackgroundGray" y="316.167" width="480" height="200"/><path class="player_placeholder" d="M277.6,369.523H221.2c-5.168,0-9.4,4.231-9.4,9.399v56.4c0,5.168,4.232,9.398,9.4,9.398H277.6c5.168,0,9.4-4.23,9.4-9.398v-56.4C287,373.755,282.768,369.523,277.6,369.523zM268.199,393.022h-14.1v25.851c0,6.485-5.265,11.75-11.75,11.75c-6.487,0-11.75-5.265-11.75-11.75c0-6.485,5.264-11.75,11.75-11.75c2.68,0,5.075,0.89,7.051,2.396v-25.896h18.799V393.022z M202.4,388.323H193v65.8c0,5.168,4.232,9.4,9.4,9.4h65.799v-9.4H202.4V388.323z"/></svg>