<svg xmlns="http://www.w3.org/2000/svg" viewBox="0 0 480 231"><rect class="windowBackgroundWhite" width="480" height="231"/><g class="windowBackgroundWhiteBlueText6"><path d="M184.401,197.453V203h-2.594v-14.93h5.711c0.869,0,1.639,0.118,2.313,0.354c0.674,0.236,1.242,0.566,1.707,0.99s0.818,0.926,1.062,1.507s0.364,1.214,0.364,1.897c0,0.725-0.121,1.373-0.364,1.947s-0.597,1.061-1.062,1.457s-1.033,0.7-1.707,0.912s-1.443,0.318-2.313,0.318H184.401z M184.401,195.371h3.117c0.5,0,0.929-0.062,1.287-0.185c0.359-0.123,0.654-0.298,0.887-0.522c0.232-0.227,0.402-0.494,0.508-0.806c0.105-0.311,0.159-0.651,0.159-1.021c0-0.348-0.054-0.683-0.159-1.004s-0.275-0.607-0.508-0.856c-0.232-0.25-0.527-0.448-0.887-0.595c-0.358-0.147-0.787-0.221-1.287-0.221h-3.117V195.371z"/><path d="M201.761,199.523h-5.783l-1.21,3.477h-2.697l5.641-14.93h2.327l5.649,14.93h-2.707L201.761,199.523zM196.706,197.432h4.328l-2.164-6.193L196.706,197.432z"/><path d="M210.713,195.146l3.435-7.075h2.871l-5.004,9.434V203h-2.604v-5.496l-5.014-9.434h2.881L210.713,195.146z"/><path d="M230.749,199.104c0-0.287-0.044-0.55-0.133-0.789s-0.23-0.458-0.426-0.656c-0.194-0.198-0.449-0.383-0.764-0.555c-0.314-0.17-0.697-0.334-1.148-0.492c-0.656-0.225-1.251-0.473-1.784-0.743c-0.533-0.27-0.987-0.586-1.364-0.948c-0.375-0.362-0.666-0.781-0.871-1.256c-0.205-0.476-0.308-1.031-0.308-1.666c0-0.574,0.091-1.1,0.271-1.574c0.181-0.476,0.439-0.889,0.774-1.241c0.335-0.352,0.738-0.637,1.21-0.856c0.472-0.218,1.001-0.361,1.589-0.43v-2.236h1.641v2.256c0.582,0.082,1.103,0.248,1.564,0.498c0.461,0.249,0.853,0.577,1.174,0.984c0.321,0.406,0.567,0.885,0.738,1.436c0.171,0.55,0.256,1.171,0.256,1.861h-2.48c0-0.432-0.051-0.817-0.149-1.159s-0.241-0.632-0.425-0.872c-0.186-0.238-0.41-0.423-0.678-0.553c-0.266-0.13-0.566-0.195-0.902-0.195c-0.361,0-0.673,0.051-0.933,0.154c-0.26,0.102-0.477,0.244-0.651,0.425c-0.174,0.182-0.303,0.398-0.385,0.651s-0.123,0.53-0.123,0.83c0,0.287,0.041,0.548,0.123,0.779c0.082,0.233,0.221,0.446,0.416,0.642c0.194,0.194,0.454,0.379,0.779,0.554c0.324,0.174,0.727,0.347,1.205,0.518c0.662,0.239,1.258,0.494,1.783,0.764c0.527,0.271,0.975,0.585,1.344,0.943c0.369,0.359,0.652,0.774,0.852,1.246c0.197,0.472,0.297,1.025,0.297,1.661c0,0.602-0.096,1.14-0.287,1.615c-0.191,0.475-0.461,0.885-0.811,1.23c-0.348,0.345-0.771,0.622-1.266,0.83c-0.496,0.209-1.048,0.344-1.656,0.405v2h-1.631v-1.99c-0.547-0.061-1.072-0.19-1.578-0.389s-0.954-0.484-1.344-0.856c-0.39-0.373-0.702-0.845-0.938-1.415c-0.235-0.571-0.354-1.256-0.354-2.057h2.491c0,0.527,0.074,0.965,0.221,1.313c0.146,0.35,0.339,0.626,0.574,0.831c0.236,0.205,0.503,0.351,0.8,0.436c0.298,0.086,0.597,0.128,0.897,0.128c0.779,0,1.372-0.188,1.779-0.563C230.545,200.225,230.749,199.726,230.749,199.104z"/><path d="M242.151,203h-2.48v-11.986l-3.661,1.25v-2.102l5.824-2.143h0.317V203z"/><path d="M248.006,195.597l0.811-7.526h8.018v2.153h-5.947l-0.41,3.568c0.24-0.137,0.56-0.27,0.959-0.399c0.4-0.13,0.859-0.195,1.379-0.195c0.705,0,1.337,0.116,1.897,0.349s1.032,0.567,1.415,1.005s0.677,0.966,0.882,1.584c0.205,0.619,0.308,1.318,0.308,2.098c0,0.69-0.102,1.338-0.303,1.942c-0.201,0.605-0.506,1.132-0.912,1.579c-0.407,0.448-0.918,0.802-1.533,1.062s-1.336,0.39-2.164,0.39c-0.621,0-1.217-0.091-1.783-0.271c-0.568-0.182-1.072-0.449-1.513-0.805c-0.441-0.355-0.802-0.799-1.082-1.328c-0.28-0.53-0.44-1.14-0.481-1.83h2.409c0.096,0.725,0.355,1.279,0.779,1.666c0.424,0.386,0.978,0.579,1.661,0.579c0.403,0,0.757-0.075,1.062-0.226c0.304-0.15,0.557-0.36,0.759-0.631c0.201-0.27,0.354-0.591,0.456-0.964c0.103-0.372,0.153-0.784,0.153-1.235c0-0.424-0.056-0.816-0.169-1.18c-0.112-0.361-0.28-0.675-0.502-0.938c-0.223-0.264-0.499-0.469-0.831-0.615c-0.332-0.147-0.716-0.221-1.153-0.221c-0.287,0-0.538,0.022-0.754,0.066c-0.215,0.045-0.405,0.107-0.569,0.189s-0.314,0.177-0.451,0.282c-0.137,0.106-0.27,0.221-0.399,0.344L248.006,195.597z"/><path d="M269.314,203h-10.038v-1.713l4.859-5.301c0.41-0.451,0.75-0.853,1.021-1.205c0.271-0.352,0.485-0.673,0.646-0.964c0.16-0.29,0.272-0.562,0.338-0.815c0.065-0.252,0.098-0.505,0.098-0.758c0-0.342-0.05-0.658-0.148-0.949c-0.1-0.29-0.243-0.541-0.431-0.754c-0.188-0.211-0.419-0.377-0.692-0.497c-0.273-0.119-0.588-0.179-0.943-0.179c-0.431,0-0.805,0.068-1.123,0.205c-0.317,0.137-0.581,0.326-0.789,0.568c-0.209,0.243-0.366,0.533-0.472,0.872c-0.106,0.338-0.159,0.709-0.159,1.112h-2.491c0-0.656,0.11-1.273,0.333-1.851c0.222-0.578,0.548-1.082,0.979-1.513c0.43-0.431,0.96-0.771,1.589-1.021c0.629-0.249,1.347-0.374,2.153-0.374c0.745,0,1.408,0.098,1.989,0.292c0.581,0.195,1.071,0.471,1.472,0.825c0.399,0.356,0.703,0.788,0.912,1.298c0.209,0.509,0.313,1.075,0.313,1.696c0,0.466-0.074,0.925-0.225,1.38c-0.15,0.454-0.359,0.907-0.626,1.358s-0.585,0.904-0.954,1.358c-0.369,0.455-0.771,0.911-1.209,1.369l-3.333,3.568h6.932V203z"/><path d="M271.477,201.76c0-0.396,0.127-0.727,0.38-0.99c0.253-0.263,0.608-0.395,1.066-0.395c0.465,0,0.823,0.132,1.077,0.395c0.252,0.264,0.379,0.594,0.379,0.99c0,0.389-0.127,0.712-0.379,0.969c-0.254,0.256-0.612,0.385-1.077,0.385c-0.226,0-0.429-0.035-0.61-0.104c-0.182-0.067-0.333-0.164-0.456-0.287s-0.218-0.266-0.282-0.43S271.477,201.951,271.477,201.76z"/><path d="M287.115,203h-10.038v-1.713l4.859-5.301c0.41-0.451,0.75-0.853,1.021-1.205c0.271-0.352,0.485-0.673,0.646-0.964c0.16-0.29,0.272-0.562,0.338-0.815c0.065-0.252,0.098-0.505,0.098-0.758c0-0.342-0.05-0.658-0.148-0.949c-0.1-0.29-0.243-0.541-0.431-0.754c-0.188-0.211-0.419-0.377-0.692-0.497c-0.273-0.119-0.588-0.179-0.943-0.179c-0.431,0-0.805,0.068-1.123,0.205c-0.317,0.137-0.581,0.326-0.789,0.568c-0.209,0.243-0.366,0.533-0.472,0.872c-0.106,0.338-0.159,0.709-0.159,1.112h-2.491c0-0.656,0.11-1.273,0.333-1.851c0.222-0.578,0.548-1.082,0.979-1.513c0.43-0.431,0.96-0.771,1.589-1.021c0.629-0.249,1.347-0.374,2.153-0.374c0.745,0,1.408,0.098,1.989,0.292c0.581,0.195,1.071,0.471,1.472,0.825c0.399,0.356,0.703,0.788,0.912,1.298c0.209,0.509,0.313,1.075,0.313,1.696c0,0.466-0.074,0.925-0.225,1.38c-0.15,0.454-0.359,0.907-0.626,1.358s-0.585,0.904-0.954,1.358c-0.369,0.455-0.771,0.911-1.209,1.369l-3.333,3.568h6.932V203z"/><path d="M298.743,196.715c0,1.183-0.116,2.186-0.349,3.009c-0.232,0.824-0.561,1.494-0.984,2.01c-0.424,0.517-0.935,0.891-1.533,1.123s-1.267,0.349-2.005,0.349c-0.73,0-1.397-0.116-1.999-0.349s-1.118-0.606-1.548-1.123c-0.432-0.516-0.765-1.186-1-2.01c-0.236-0.823-0.354-1.826-0.354-3.009v-2.41c0-1.183,0.115-2.184,0.348-3.004s0.563-1.485,0.99-1.995c0.427-0.509,0.941-0.876,1.543-1.103c0.602-0.225,1.268-0.338,2-0.338c0.738,0,1.408,0.113,2.01,0.338c0.602,0.227,1.115,0.594,1.543,1.103c0.427,0.51,0.757,1.175,0.989,1.995s0.349,1.821,0.349,3.004V196.715z M296.25,193.926c0-0.76-0.053-1.396-0.158-1.913c-0.106-0.516-0.262-0.933-0.467-1.251c-0.205-0.317-0.456-0.547-0.754-0.687c-0.297-0.141-0.637-0.21-1.02-0.21s-0.724,0.069-1.021,0.21c-0.298,0.14-0.549,0.369-0.754,0.687c-0.205,0.318-0.36,0.735-0.467,1.251c-0.106,0.517-0.159,1.153-0.159,1.913v3.147c0,0.752,0.055,1.392,0.164,1.917c0.109,0.527,0.268,0.954,0.473,1.282s0.457,0.567,0.758,0.718s0.643,0.226,1.025,0.226c0.391,0,0.732-0.075,1.025-0.226c0.295-0.15,0.542-0.39,0.744-0.718c0.201-0.328,0.354-0.755,0.456-1.282c0.103-0.525,0.153-1.165,0.153-1.917V193.926z"/></g><g class="windowBackgroundWhiteBlackText"><path d="M39.852,81.328h-5.32V96H31.59V81.328h-5.273v-2.391h13.535V81.328z"/><path d="M38.844,89.543c0-0.922,0.135-1.775,0.404-2.561s0.656-1.467,1.16-2.045s1.119-1.031,1.846-1.359s1.551-0.492,2.473-0.492c0.93,0,1.762,0.164,2.496,0.492s1.354,0.781,1.857,1.359s0.889,1.26,1.154,2.045s0.398,1.639,0.398,2.561v0.246c0,0.922-0.133,1.777-0.398,2.566s-0.65,1.471-1.154,2.045s-1.121,1.023-1.852,1.348s-1.557,0.486-2.479,0.486c-0.93,0-1.76-0.162-2.49-0.486s-1.348-0.773-1.852-1.348s-0.891-1.256-1.16-2.045s-0.404-1.645-0.404-2.566V89.543zM41.692,89.789c0,0.57,0.059,1.109,0.176,1.617s0.301,0.951,0.551,1.33s0.568,0.678,0.955,0.896s0.846,0.328,1.377,0.328c0.523,0,0.979-0.109,1.365-0.328s0.703-0.518,0.949-0.896s0.43-0.822,0.551-1.33s0.182-1.047,0.182-1.617v-0.246c0-0.563-0.061-1.096-0.182-1.6s-0.307-0.945-0.557-1.324s-0.568-0.682-0.955-0.908s-0.846-0.34-1.377-0.34s-0.986,0.113-1.365,0.34s-0.693,0.529-0.943,0.908s-0.434,0.82-0.551,1.324s-0.176,1.037-0.176,1.6V89.789z"/><path d="M56.61,80.238v3.082h2.238v2.109H56.61v7.078c0,0.289,0.031,0.523,0.094,0.703s0.152,0.318,0.27,0.416s0.256,0.164,0.416,0.199s0.338,0.053,0.533,0.053s0.385-0.014,0.568-0.041s0.326-0.053,0.428-0.076v2.203c-0.227,0.063-0.49,0.123-0.791,0.182s-0.662,0.088-1.084,0.088c-0.469,0-0.904-0.063-1.307-0.188s-0.75-0.328-1.043-0.609s-0.521-0.648-0.686-1.102s-0.246-1.008-0.246-1.664V85.43h-2.086V83.32h2.086v-3.082H56.61z"/><path d="M68.598,96c-0.078-0.148-0.143-0.324-0.193-0.527s-0.096-0.422-0.135-0.656c-0.188,0.195-0.396,0.379-0.627,0.551s-0.484,0.322-0.762,0.451s-0.578,0.23-0.902,0.305s-0.67,0.111-1.037,0.111c-0.633,0-1.215-0.096-1.746-0.287s-0.986-0.457-1.365-0.797s-0.676-0.74-0.891-1.201s-0.322-0.961-0.322-1.5c0-0.68,0.129-1.281,0.387-1.805s0.633-0.961,1.125-1.313s1.096-0.619,1.811-0.803s1.529-0.275,2.443-0.275h1.793v-0.832c0-0.656-0.184-1.182-0.551-1.576s-0.926-0.592-1.676-0.592c-0.336,0-0.641,0.045-0.914,0.135s-0.506,0.211-0.697,0.363s-0.34,0.334-0.445,0.545s-0.158,0.438-0.158,0.68h-2.848c0-0.5,0.123-0.982,0.369-1.447s0.596-0.879,1.049-1.242s1.002-0.654,1.646-0.873s1.365-0.328,2.162-0.328c0.711,0,1.367,0.092,1.969,0.275s1.121,0.457,1.559,0.82s0.777,0.816,1.02,1.359s0.363,1.178,0.363,1.904v5.625c0,1.141,0.16,2.051,0.48,2.73V96H68.598z M65.469,93.949c0.328,0,0.635-0.043,0.92-0.129s0.543-0.199,0.773-0.34s0.432-0.303,0.604-0.486s0.309-0.369,0.41-0.557v-2.391h-1.535c-1.055,0-1.848,0.184-2.379,0.551s-0.797,0.887-0.797,1.559c0,0.258,0.043,0.496,0.129,0.715s0.215,0.408,0.387,0.568s0.381,0.285,0.627,0.375S65.141,93.949,65.469,93.949z"/><path d="M77.036,96h-2.848V78h2.848V96z"/><path d="M373.887,91.547c0-0.328-0.051-0.629-0.152-0.902s-0.264-0.523-0.486-0.75s-0.514-0.438-0.873-0.633s-0.797-0.383-1.313-0.563c-0.75-0.258-1.43-0.541-2.039-0.85s-1.129-0.67-1.559-1.084s-0.762-0.893-0.996-1.436s-0.352-1.178-0.352-1.904c0-0.656,0.104-1.256,0.311-1.799s0.502-1.016,0.885-1.418s0.844-0.729,1.383-0.979s1.145-0.414,1.816-0.492v-2.555h1.875v2.578c0.664,0.094,1.26,0.283,1.787,0.568s0.975,0.66,1.342,1.125s0.648,1.012,0.844,1.641s0.293,1.338,0.293,2.127h-2.836c0-0.492-0.057-0.934-0.17-1.324s-0.275-0.723-0.486-0.996s-0.469-0.484-0.773-0.633s-0.648-0.223-1.031-0.223c-0.414,0-0.77,0.059-1.066,0.176s-0.545,0.279-0.744,0.486s-0.346,0.455-0.439,0.744s-0.141,0.605-0.141,0.949c0,0.328,0.047,0.625,0.141,0.891s0.252,0.51,0.475,0.732s0.52,0.434,0.891,0.633s0.83,0.396,1.377,0.592c0.758,0.273,1.438,0.564,2.039,0.873s1.113,0.668,1.535,1.078s0.746,0.885,0.973,1.424s0.34,1.172,0.34,1.898c0,0.688-0.109,1.303-0.328,1.846s-0.527,1.012-0.926,1.406s-0.881,0.711-1.447,0.949s-1.197,0.393-1.893,0.463v2.285h-1.863v-2.273c-0.625-0.07-1.227-0.219-1.805-0.445s-1.09-0.553-1.535-0.979s-0.803-0.965-1.072-1.617s-0.404-1.436-0.404-2.35h2.848c0,0.602,0.084,1.102,0.252,1.5s0.387,0.715,0.656,0.949s0.574,0.4,0.914,0.498s0.682,0.146,1.025,0.146c0.891,0,1.568-0.215,2.033-0.645S373.887,92.258,373.887,91.547z"/><path d="M386.918,96h-2.836V82.301l-4.184,1.43v-2.402l6.656-2.449h0.363V96z"/><path d="M393.61,87.539l0.926-8.602h9.164v2.461h-6.797l-0.469,4.078c0.273-0.156,0.639-0.309,1.096-0.457s0.982-0.223,1.576-0.223c0.805,0,1.527,0.133,2.168,0.398s1.18,0.648,1.617,1.148s0.773,1.104,1.008,1.811s0.352,1.506,0.352,2.396c0,0.789-0.115,1.529-0.346,2.221s-0.578,1.293-1.043,1.805s-1.049,0.916-1.752,1.213s-1.527,0.445-2.473,0.445c-0.711,0-1.391-0.104-2.039-0.311s-1.225-0.514-1.729-0.92s-0.916-0.912-1.236-1.518s-0.504-1.303-0.551-2.092h2.754c0.109,0.828,0.406,1.463,0.891,1.904s1.117,0.662,1.898,0.662c0.461,0,0.865-0.086,1.213-0.258s0.637-0.412,0.867-0.721s0.404-0.676,0.521-1.102s0.176-0.896,0.176-1.412c0-0.484-0.064-0.934-0.193-1.348s-0.32-0.771-0.574-1.072s-0.57-0.535-0.949-0.703s-0.818-0.252-1.318-0.252c-0.328,0-0.615,0.025-0.861,0.076s-0.463,0.123-0.65,0.217s-0.359,0.201-0.516,0.322s-0.309,0.252-0.457,0.393L393.61,87.539z"/><path d="M417.961,96h-11.473v-1.957l5.555-6.059c0.469-0.516,0.857-0.975,1.166-1.377s0.555-0.77,0.738-1.102s0.313-0.643,0.387-0.932s0.111-0.578,0.111-0.867c0-0.391-0.057-0.752-0.17-1.084s-0.277-0.619-0.492-0.861s-0.479-0.432-0.791-0.568s-0.672-0.205-1.078-0.205c-0.492,0-0.92,0.078-1.283,0.234s-0.664,0.373-0.902,0.65s-0.418,0.609-0.539,0.996s-0.182,0.811-0.182,1.271h-2.848c0-0.75,0.127-1.455,0.381-2.115s0.627-1.236,1.119-1.729s1.098-0.881,1.816-1.166s1.539-0.428,2.461-0.428c0.852,0,1.609,0.111,2.273,0.334s1.225,0.537,1.682,0.943s0.805,0.9,1.043,1.482s0.357,1.229,0.357,1.939c0,0.531-0.086,1.057-0.258,1.576s-0.41,1.037-0.715,1.553s-0.668,1.033-1.09,1.553s-0.883,1.041-1.383,1.564l-3.809,4.078h7.922V96z"/><path d="M420.434,94.582c0-0.453,0.145-0.83,0.434-1.131S421.563,93,422.086,93c0.531,0,0.941,0.15,1.23,0.451s0.434,0.678,0.434,1.131c0,0.445-0.145,0.814-0.434,1.107s-0.699,0.439-1.23,0.439c-0.258,0-0.49-0.039-0.697-0.117s-0.381-0.188-0.521-0.328s-0.248-0.305-0.322-0.492S420.434,94.801,420.434,94.582z"/><path d="M438.305,96h-11.473v-1.957l5.555-6.059c0.469-0.516,0.857-0.975,1.166-1.377s0.555-0.77,0.738-1.102s0.313-0.643,0.387-0.932s0.111-0.578,0.111-0.867c0-0.391-0.057-0.752-0.17-1.084s-0.277-0.619-0.492-0.861s-0.479-0.432-0.791-0.568s-0.672-0.205-1.078-0.205c-0.492,0-0.92,0.078-1.283,0.234s-0.664,0.373-0.902,0.65s-0.418,0.609-0.539,0.996s-0.182,0.811-0.182,1.271h-2.848c0-0.75,0.127-1.455,0.381-2.115s0.627-1.236,1.119-1.729s1.098-0.881,1.816-1.166s1.539-0.428,2.461-0.428c0.852,0,1.609,0.111,2.273,0.334s1.225,0.537,1.682,0.943s0.805,0.9,1.043,1.482s0.357,1.229,0.357,1.939c0,0.531-0.086,1.057-0.258,1.576s-0.41,1.037-0.715,1.553s-0.668,1.033-1.09,1.553s-0.883,1.041-1.383,1.564l-3.809,4.078h7.922V96z"/><path d="M451.594,88.816c0,1.352-0.133,2.498-0.398,3.439s-0.641,1.707-1.125,2.297s-1.068,1.018-1.752,1.283s-1.447,0.398-2.291,0.398c-0.836,0-1.598-0.133-2.285-0.398s-1.277-0.693-1.77-1.283s-0.873-1.355-1.143-2.297s-0.404-2.088-0.404-3.439v-2.754c0-1.352,0.133-2.496,0.398-3.434s0.643-1.697,1.131-2.279s1.076-1.002,1.764-1.26s1.449-0.387,2.285-0.387c0.844,0,1.609,0.129,2.297,0.387s1.275,0.678,1.764,1.26s0.865,1.342,1.131,2.279s0.398,2.082,0.398,3.434V88.816z M448.747,85.629c0-0.867-0.061-1.596-0.182-2.186s-0.299-1.066-0.533-1.43s-0.521-0.625-0.861-0.785s-0.729-0.24-1.166-0.24s-0.826,0.08-1.166,0.24s-0.627,0.422-0.861,0.785s-0.412,0.84-0.533,1.43s-0.182,1.318-0.182,2.186v3.598c0,0.859,0.063,1.59,0.188,2.191s0.305,1.09,0.539,1.465s0.523,0.648,0.867,0.82s0.734,0.258,1.172,0.258c0.445,0,0.836-0.086,1.172-0.258s0.619-0.445,0.85-0.82s0.404-0.863,0.521-1.465s0.176-1.332,0.176-2.191V85.629z"/><path d="M33.665,155.145l4.875-14.074H41l-6.328,17.063H32.68l-6.316-17.063h2.449L33.665,155.145z"/><path d="M42.958,142.09c0-0.352,0.107-0.648,0.322-0.891s0.533-0.363,0.955-0.363s0.742,0.121,0.961,0.363s0.328,0.539,0.328,0.891s-0.109,0.645-0.328,0.879s-0.539,0.352-0.961,0.352s-0.74-0.117-0.955-0.352S42.958,142.441,42.958,142.09z M45.301,158.133h-2.168v-12.68h2.168V158.133z"/><path d="M56.153,154.77c0-0.234-0.035-0.455-0.105-0.662s-0.209-0.402-0.416-0.586s-0.502-0.354-0.885-0.51s-0.887-0.301-1.512-0.434c-0.703-0.148-1.336-0.324-1.898-0.527s-1.041-0.447-1.436-0.732s-0.697-0.623-0.908-1.014s-0.316-0.848-0.316-1.371c0-0.5,0.111-0.975,0.334-1.424s0.537-0.844,0.943-1.184s0.898-0.609,1.477-0.809s1.223-0.299,1.934-0.299c0.758,0,1.436,0.104,2.033,0.311s1.105,0.49,1.523,0.85s0.736,0.779,0.955,1.26s0.328,0.994,0.328,1.541h-2.18c0-0.258-0.059-0.518-0.176-0.779s-0.289-0.496-0.516-0.703s-0.504-0.375-0.832-0.504S53.793,147,53.364,147c-0.453,0-0.838,0.053-1.154,0.158s-0.576,0.246-0.779,0.422s-0.352,0.375-0.445,0.598s-0.141,0.451-0.141,0.686s0.039,0.445,0.117,0.633s0.227,0.357,0.445,0.51s0.518,0.293,0.896,0.422s0.869,0.26,1.471,0.393c0.773,0.18,1.445,0.383,2.016,0.609s1.043,0.49,1.418,0.791s0.654,0.646,0.838,1.037s0.275,0.844,0.275,1.359c0,0.555-0.115,1.063-0.346,1.523s-0.561,0.855-0.99,1.184s-0.945,0.584-1.547,0.768s-1.27,0.275-2.004,0.275c-0.844,0-1.588-0.117-2.232-0.352s-1.186-0.545-1.623-0.932s-0.77-0.828-0.996-1.324s-0.34-1.006-0.34-1.529h2.168c0.023,0.445,0.131,0.818,0.322,1.119s0.432,0.545,0.721,0.732s0.605,0.32,0.949,0.398s0.688,0.117,1.031,0.117c0.445,0,0.836-0.047,1.172-0.141s0.619-0.223,0.85-0.387s0.404-0.357,0.521-0.58S56.153,155.027,56.153,154.77z"/><path d="M68.973,158.133c-0.078-0.156-0.141-0.354-0.188-0.592s-0.086-0.486-0.117-0.744c-0.203,0.211-0.432,0.412-0.686,0.604s-0.531,0.359-0.832,0.504s-0.627,0.258-0.979,0.34s-0.723,0.123-1.113,0.123c-0.648,0-1.236-0.098-1.764-0.293s-0.977-0.461-1.348-0.797s-0.658-0.732-0.861-1.189s-0.305-0.947-0.305-1.471c0-0.68,0.133-1.279,0.398-1.799s0.646-0.955,1.143-1.307s1.096-0.617,1.799-0.797s1.488-0.27,2.355-0.27h2.156v-0.996c0-0.758-0.227-1.361-0.68-1.811s-1.121-0.674-2.004-0.674c-0.406,0-0.777,0.055-1.113,0.164s-0.623,0.256-0.861,0.439s-0.424,0.396-0.557,0.639s-0.199,0.496-0.199,0.762h-2.18c0-0.453,0.119-0.902,0.357-1.348s0.576-0.846,1.014-1.201s0.967-0.645,1.588-0.867s1.314-0.334,2.08-0.334c0.688,0,1.322,0.088,1.904,0.264s1.08,0.441,1.494,0.797s0.738,0.799,0.973,1.33s0.352,1.152,0.352,1.863v5.895c0,0.43,0.037,0.881,0.111,1.354s0.186,0.881,0.334,1.225v0.188H68.973z M65.375,156.48c0.391,0,0.758-0.055,1.102-0.164s0.656-0.252,0.938-0.428s0.525-0.377,0.732-0.604s0.369-0.461,0.486-0.703v-2.602h-1.805c-1.242,0-2.199,0.193-2.871,0.58s-1.008,0.971-1.008,1.752c0,0.305,0.051,0.59,0.152,0.855s0.256,0.494,0.463,0.686s0.461,0.344,0.762,0.457S64.977,156.48,65.375,156.48z"/><path d="M82.368,146.613l-3.539-1.055l0.539-1.77l3.539,1.313l-0.105-4.031h1.793l-0.117,4.09l3.48-1.289l0.539,1.781l-3.598,1.066l2.32,3.176l-1.453,1.102l-2.18-3.375l-2.109,3.293l-1.465-1.066L82.368,146.613z"/><path d="M99.407,152.402h2.367v1.77h-2.367v3.961h-2.18v-3.961h-7.77v-1.277l7.641-11.824h2.309V152.402z M91.918,152.402h5.309v-8.367l-0.258,0.469L91.918,152.402z"/><path d="M114.911,158.133h-11.18v-1.559l5.59-6.211c0.516-0.57,0.943-1.074,1.283-1.512s0.609-0.838,0.809-1.201s0.338-0.703,0.416-1.02s0.117-0.639,0.117-0.967c0-0.422-0.066-0.818-0.199-1.189s-0.324-0.693-0.574-0.967s-0.559-0.49-0.926-0.65s-0.789-0.24-1.266-0.24c-0.578,0-1.08,0.086-1.506,0.258s-0.779,0.41-1.061,0.715s-0.492,0.67-0.633,1.096s-0.211,0.896-0.211,1.412h-2.168c0-0.719,0.119-1.398,0.357-2.039s0.592-1.199,1.061-1.676s1.051-0.854,1.746-1.131s1.5-0.416,2.414-0.416c0.805,0,1.525,0.109,2.162,0.328s1.176,0.529,1.617,0.932s0.779,0.885,1.014,1.447s0.352,1.184,0.352,1.863c0,0.5-0.086,1.004-0.258,1.512s-0.402,1.014-0.691,1.518s-0.629,1.004-1.02,1.5s-0.801,0.982-1.23,1.459l-4.582,4.969h8.566V158.133z"/><path d="M126.36,152.402h2.367v1.77h-2.367v3.961h-2.18v-3.961h-7.77v-1.277l7.641-11.824h2.309V152.402z M118.872,152.402h5.309v-8.367l-0.258,0.469L118.872,152.402z"/><path d="M141.864,158.133h-11.18v-1.559l5.59-6.211c0.516-0.57,0.943-1.074,1.283-1.512s0.609-0.838,0.809-1.201s0.338-0.703,0.416-1.02s0.117-0.639,0.117-0.967c0-0.422-0.066-0.818-0.199-1.189s-0.324-0.693-0.574-0.967s-0.559-0.49-0.926-0.65s-0.789-0.24-1.266-0.24c-0.578,0-1.08,0.086-1.506,0.258s-0.779,0.41-1.061,0.715s-0.492,0.67-0.633,1.096s-0.211,0.896-0.211,1.412h-2.168c0-0.719,0.119-1.398,0.357-2.039s0.592-1.199,1.061-1.676s1.051-0.854,1.746-1.131s1.5-0.416,2.414-0.416c0.805,0,1.525,0.109,2.162,0.328s1.176,0.529,1.617,0.932s0.779,0.885,1.014,1.447s0.352,1.184,0.352,1.863c0,0.5-0.086,1.004-0.258,1.512s-0.402,1.014-0.691,1.518s-0.629,1.004-1.02,1.5s-0.801,0.982-1.23,1.459l-4.582,4.969h8.566V158.133z"/></g><g class="windowBackgroundWhiteGrayText2"><path d="M39.559,20.789h-5.484V36h-2.238V20.789h-5.473v-1.852h13.195V20.789z"/><path d="M48.254,36c-0.078-0.156-0.141-0.354-0.188-0.592s-0.086-0.486-0.117-0.744c-0.203,0.211-0.432,0.412-0.686,0.604s-0.531,0.359-0.832,0.504s-0.627,0.258-0.979,0.34s-0.723,0.123-1.113,0.123c-0.648,0-1.236-0.098-1.764-0.293s-0.977-0.461-1.348-0.797s-0.658-0.732-0.861-1.189s-0.305-0.947-0.305-1.471c0-0.68,0.133-1.279,0.398-1.799s0.646-0.955,1.143-1.307s1.096-0.617,1.799-0.797s1.488-0.27,2.355-0.27h2.156v-0.996c0-0.758-0.227-1.361-0.68-1.811s-1.121-0.674-2.004-0.674c-0.406,0-0.777,0.055-1.113,0.164s-0.623,0.256-0.861,0.439s-0.424,0.396-0.557,0.639S42.5,26.57,42.5,26.836h-2.18c0-0.453,0.119-0.902,0.357-1.348s0.576-0.846,1.014-1.201s0.967-0.645,1.588-0.867s1.314-0.334,2.08-0.334c0.688,0,1.322,0.088,1.904,0.264s1.08,0.441,1.494,0.797s0.738,0.799,0.973,1.33s0.352,1.152,0.352,1.863v5.895c0,0.43,0.037,0.881,0.111,1.354s0.186,0.881,0.334,1.225V36H48.254z M44.657,34.348c0.391,0,0.758-0.055,1.102-0.164s0.656-0.252,0.938-0.428s0.525-0.377,0.732-0.604s0.369-0.461,0.486-0.703v-2.602H46.11c-1.242,0-2.199,0.193-2.871,0.58s-1.008,0.971-1.008,1.752c0,0.305,0.051,0.59,0.152,0.855s0.256,0.494,0.463,0.686s0.461,0.344,0.762,0.457S44.258,34.348,44.657,34.348z"/><path d="M57.735,27.949l2.813-4.629h2.531l-4.148,6.27L63.208,36H60.7l-2.93-4.746L54.84,36h-2.52l4.277-6.41l-4.148-6.27h2.508L57.735,27.949z"/><path d="M70.403,36.234c-0.883,0-1.682-0.152-2.396-0.457s-1.326-0.729-1.834-1.271S65.274,33.316,65,32.566s-0.41-1.57-0.41-2.461v-0.492c0-1.031,0.154-1.953,0.463-2.766s0.721-1.496,1.236-2.051s1.105-0.979,1.77-1.271s1.355-0.439,2.074-0.439c0.906,0,1.688,0.158,2.344,0.475s1.197,0.752,1.623,1.307s0.74,1.211,0.943,1.969s0.305,1.582,0.305,2.473v0.973h-8.59c0.016,0.586,0.111,1.133,0.287,1.641s0.426,0.949,0.75,1.324s0.715,0.672,1.172,0.891s0.975,0.328,1.553,0.328c0.766,0,1.414-0.156,1.945-0.469s0.996-0.727,1.395-1.242l1.324,1.031c-0.203,0.313-0.449,0.615-0.738,0.908s-0.627,0.555-1.014,0.785s-0.83,0.414-1.33,0.551S71.036,36.234,70.403,36.234zM70.133,24.867c-0.438,0-0.84,0.08-1.207,0.24s-0.695,0.393-0.984,0.697s-0.529,0.684-0.721,1.137s-0.322,0.973-0.393,1.559h6.352v-0.164c-0.023-0.422-0.092-0.84-0.205-1.254s-0.289-0.785-0.527-1.113s-0.545-0.594-0.92-0.797S70.688,24.867,70.133,24.867z"/><path d="M85.239,32.637c0-0.234-0.035-0.455-0.105-0.662s-0.209-0.402-0.416-0.586s-0.502-0.354-0.885-0.51s-0.887-0.301-1.512-0.434c-0.703-0.148-1.336-0.324-1.898-0.527s-1.041-0.447-1.436-0.732s-0.697-0.623-0.908-1.014s-0.316-0.848-0.316-1.371c0-0.5,0.111-0.975,0.334-1.424s0.537-0.844,0.943-1.184s0.898-0.609,1.477-0.809s1.223-0.299,1.934-0.299c0.758,0,1.436,0.104,2.033,0.311s1.105,0.49,1.523,0.85s0.736,0.779,0.955,1.26s0.328,0.994,0.328,1.541h-2.18c0-0.258-0.059-0.518-0.176-0.779s-0.289-0.496-0.516-0.703s-0.504-0.375-0.832-0.504s-0.707-0.193-1.137-0.193c-0.453,0-0.838,0.053-1.154,0.158s-0.576,0.246-0.779,0.422s-0.352,0.375-0.445,0.598s-0.141,0.451-0.141,0.686s0.039,0.445,0.117,0.633s0.227,0.357,0.445,0.51s0.518,0.293,0.896,0.422s0.869,0.26,1.471,0.393c0.773,0.18,1.445,0.383,2.016,0.609s1.043,0.49,1.418,0.791s0.654,0.646,0.838,1.037s0.275,0.844,0.275,1.359c0,0.555-0.115,1.063-0.346,1.523s-0.561,0.855-0.99,1.184s-0.945,0.584-1.547,0.768s-1.27,0.275-2.004,0.275c-0.844,0-1.588-0.117-2.232-0.352s-1.186-0.545-1.623-0.932s-0.77-0.828-0.996-1.324s-0.34-1.006-0.34-1.529h2.168c0.023,0.445,0.131,0.818,0.322,1.119s0.432,0.545,0.721,0.732s0.605,0.32,0.949,0.398s0.688,0.117,1.031,0.117c0.445,0,0.836-0.047,1.172-0.141s0.619-0.223,0.85-0.387s0.404-0.357,0.521-0.58S85.239,32.895,85.239,32.637z"/><path d="M405.821,31.605c0-0.352-0.059-0.676-0.176-0.973s-0.307-0.574-0.568-0.832s-0.602-0.496-1.02-0.715s-0.932-0.43-1.541-0.633c-0.742-0.227-1.408-0.49-1.998-0.791s-1.092-0.654-1.506-1.061s-0.73-0.875-0.949-1.406s-0.328-1.145-0.328-1.84c0-0.648,0.098-1.24,0.293-1.775s0.475-1,0.838-1.395s0.803-0.715,1.318-0.961s1.098-0.408,1.746-0.486v-2.566h1.746v2.578c1.313,0.18,2.334,0.73,3.064,1.652s1.096,2.184,1.096,3.785h-2.156c0-0.523-0.063-1.004-0.188-1.441s-0.311-0.816-0.557-1.137s-0.551-0.57-0.914-0.75s-0.779-0.27-1.248-0.27c-0.492,0-0.918,0.066-1.277,0.199s-0.656,0.318-0.891,0.557s-0.41,0.525-0.527,0.861s-0.176,0.707-0.176,1.113c0,0.375,0.055,0.713,0.164,1.014s0.293,0.576,0.551,0.826s0.602,0.486,1.031,0.709s0.969,0.439,1.617,0.65c0.75,0.242,1.418,0.514,2.004,0.814s1.08,0.65,1.482,1.049s0.709,0.859,0.92,1.383s0.316,1.129,0.316,1.816c0,0.68-0.105,1.289-0.316,1.828s-0.514,1.004-0.908,1.395s-0.871,0.703-1.43,0.938s-1.182,0.387-1.869,0.457v2.238h-1.734v-2.238c-0.602-0.055-1.182-0.191-1.74-0.41s-1.055-0.535-1.488-0.949s-0.779-0.939-1.037-1.576s-0.387-1.4-0.387-2.291h2.168c0,0.664,0.098,1.215,0.293,1.652s0.451,0.785,0.768,1.043s0.668,0.438,1.055,0.539s0.775,0.152,1.166,0.152c0.523,0,0.988-0.064,1.395-0.193s0.75-0.313,1.031-0.551s0.496-0.527,0.645-0.867S405.821,32.027,405.821,31.605z"/><path d="M417.809,36h-2.18V21.551l-4.371,1.605v-1.969l6.211-2.332h0.34V36z"/><path d="M424.43,34.863c0-0.375,0.111-0.688,0.334-0.938s0.557-0.375,1.002-0.375s0.783,0.125,1.014,0.375s0.346,0.563,0.346,0.938c0,0.359-0.115,0.66-0.346,0.902s-0.568,0.363-1.014,0.363s-0.779-0.121-1.002-0.363S424.43,35.223,424.43,34.863z"/><path d="M441.176,28.723c0,1.398-0.125,2.576-0.375,3.533s-0.607,1.73-1.072,2.32s-1.027,1.014-1.688,1.271s-1.404,0.387-2.232,0.387c-0.82,0-1.563-0.129-2.227-0.387s-1.23-0.682-1.699-1.271s-0.832-1.363-1.09-2.32s-0.387-2.135-0.387-3.533v-2.602c0-1.398,0.127-2.57,0.381-3.516s0.615-1.707,1.084-2.285s1.033-0.992,1.693-1.242s1.4-0.375,2.221-0.375c0.828,0,1.574,0.125,2.238,0.375s1.23,0.664,1.699,1.242s0.828,1.34,1.078,2.285s0.375,2.117,0.375,3.516V28.723z M439.008,25.758c0-0.961-0.068-1.777-0.205-2.449s-0.342-1.217-0.615-1.635s-0.611-0.721-1.014-0.908s-0.865-0.281-1.389-0.281c-0.516,0-0.975,0.094-1.377,0.281s-0.738,0.49-1.008,0.908s-0.475,0.963-0.615,1.635s-0.211,1.488-0.211,2.449v3.305c0,0.953,0.07,1.771,0.211,2.455s0.35,1.244,0.627,1.682s0.617,0.758,1.02,0.961s0.861,0.305,1.377,0.305c0.531,0,0.996-0.102,1.395-0.305s0.732-0.523,1.002-0.961s0.471-0.998,0.604-1.682s0.199-1.502,0.199-2.455V25.758z"/><path d="M454.653,28.723c0,1.398-0.125,2.576-0.375,3.533s-0.607,1.73-1.072,2.32s-1.027,1.014-1.688,1.271s-1.404,0.387-2.232,0.387c-0.82,0-1.563-0.129-2.227-0.387s-1.23-0.682-1.699-1.271s-0.832-1.363-1.09-2.32s-0.387-2.135-0.387-3.533v-2.602c0-1.398,0.127-2.57,0.381-3.516s0.615-1.707,1.084-2.285s1.033-0.992,1.693-1.242s1.4-0.375,2.221-0.375c0.828,0,1.574,0.125,2.238,0.375s1.23,0.664,1.699,1.242s0.828,1.34,1.078,2.285s0.375,2.117,0.375,3.516V28.723z M452.485,25.758c0-0.961-0.068-1.777-0.205-2.449s-0.342-1.217-0.615-1.635s-0.611-0.721-1.014-0.908s-0.865-0.281-1.389-0.281c-0.516,0-0.975,0.094-1.377,0.281s-0.738,0.49-1.008,0.908s-0.475,0.963-0.615,1.635s-0.211,1.488-0.211,2.449v3.305c0,0.953,0.07,1.771,0.211,2.455s0.35,1.244,0.627,1.682s0.617,0.758,1.02,0.961s0.861,0.305,1.377,0.305c0.531,0,0.996-0.102,1.395-0.305s0.732-0.523,1.002-0.961s0.471-0.998,0.604-1.682s0.199-1.502,0.199-2.455V25.758z"/></g><rect class="divider" x="0" y="117" width="480" height="1"/><image opacity="0.15" width="480" height="9" href="player_seekBarBackground-shadow.png" transform="matrix(0.9999 0 0 0.9999 0.0308 149.6016)"/></svg>