<svg xmlns="http://www.w3.org/2000/svg" viewBox="0 0 480 350"><rect class="windowBackgroundWhite" width="480" height="350"/><g class="windowBackgroundWhiteBlackText"><path d="M96.774,79.932l0.492,3.375l0.721-3.041l5.063-17.859h2.848l4.939,17.859l0.703,3.094l0.545-3.445l3.973-17.508h3.393L113.245,88h-3.076l-5.273-18.65l-0.404-1.951l-0.404,1.951L98.62,88h-3.076l-6.188-25.594h3.375L96.774,79.932z"/><path d="M125.936,71.284c0.68-0.832,1.494-1.482,2.443-1.951s2.01-0.703,3.182-0.703c0.926,0,1.764,0.126,2.514,0.378s1.389,0.656,1.916,1.213s0.935,1.271,1.222,2.145s0.431,1.931,0.431,3.173V88h-3.252V75.502c0-0.738-0.082-1.368-0.246-1.89s-0.407-0.946-0.729-1.274s-0.721-0.568-1.195-0.721s-1.022-0.229-1.644-0.229c-1.055,0-1.98,0.281-2.777,0.844s-1.418,1.301-1.863,2.215V88h-3.252V61h3.252V71.284z"/><path d="M154.254,88c-0.117-0.234-0.211-0.53-0.281-0.888s-0.129-0.729-0.176-1.116c-0.305,0.316-0.647,0.618-1.028,0.905s-0.797,0.539-1.248,0.756s-0.94,0.387-1.468,0.51s-1.084,0.185-1.67,0.185c-0.973,0-1.854-0.146-2.646-0.439s-1.465-0.691-2.021-1.195s-0.987-1.099-1.292-1.784s-0.457-1.421-0.457-2.206c0-1.02,0.199-1.919,0.598-2.698s0.97-1.433,1.714-1.96s1.644-0.926,2.698-1.195s2.232-0.404,3.533-0.404h3.234v-1.494c0-1.137-0.34-2.042-1.02-2.716s-1.682-1.011-3.006-1.011c-0.609,0-1.166,0.082-1.67,0.246s-0.935,0.384-1.292,0.659s-0.636,0.595-0.835,0.958s-0.299,0.744-0.299,1.143h-3.27c0-0.68,0.179-1.354,0.536-2.021s0.864-1.269,1.521-1.802s1.45-0.967,2.382-1.301s1.972-0.501,3.12-0.501c1.031,0,1.983,0.132,2.856,0.396s1.62,0.662,2.241,1.195s1.107,1.198,1.459,1.995s0.527,1.729,0.527,2.795v8.842c0,0.645,0.056,1.321,0.167,2.03s0.278,1.321,0.501,1.837V88H154.254z M148.858,85.522c0.586,0,1.137-0.082,1.652-0.246s0.984-0.378,1.406-0.642s0.788-0.565,1.099-0.905s0.554-0.691,0.729-1.055v-3.902h-2.707c-1.863,0-3.299,0.29-4.307,0.87s-1.512,1.456-1.512,2.628c0,0.457,0.076,0.885,0.229,1.283s0.384,0.741,0.694,1.028s0.691,0.516,1.143,0.686S148.26,85.522,148.858,85.522z"/><path d="M166.506,64.375v4.605h3.551v2.514h-3.551V83.29c0,0.492,0.059,0.888,0.176,1.187s0.272,0.53,0.466,0.694s0.416,0.272,0.668,0.325s0.513,0.079,0.782,0.079s0.554-0.026,0.853-0.079s0.53-0.097,0.694-0.132V88c-0.258,0.07-0.592,0.146-1.002,0.229s-0.908,0.123-1.494,0.123c-0.598,0-1.163-0.085-1.696-0.255s-0.999-0.454-1.397-0.853s-0.715-0.923-0.949-1.573s-0.352-1.45-0.352-2.399V71.495h-3.463v-2.514h3.463v-4.605H166.506z"/><path d="M182.784,63.936c0-0.527,0.161-0.973,0.483-1.336s0.8-0.545,1.433-0.545s1.113,0.182,1.441,0.545s0.492,0.809,0.492,1.336s-0.164,0.967-0.492,1.318s-0.809,0.527-1.441,0.527s-1.11-0.176-1.433-0.527S182.784,64.463,182.784,63.936z M186.299,88h-3.252v-19.02h3.252V88z"/><path d="M202.577,82.956c0-0.352-0.053-0.683-0.158-0.993s-0.313-0.604-0.624-0.879s-0.753-0.53-1.327-0.765s-1.33-0.451-2.268-0.65c-1.055-0.223-2.004-0.486-2.848-0.791s-1.562-0.671-2.153-1.099s-1.046-0.935-1.362-1.521s-0.475-1.271-0.475-2.057c0-0.75,0.167-1.462,0.501-2.136s0.806-1.266,1.415-1.775s1.348-0.914,2.215-1.213s1.834-0.448,2.9-0.448c1.137,0,2.153,0.155,3.05,0.466s1.658,0.735,2.285,1.274s1.104,1.169,1.433,1.89s0.492,1.491,0.492,2.312h-3.27c0-0.387-0.088-0.776-0.264-1.169s-0.434-0.744-0.773-1.055s-0.756-0.563-1.248-0.756s-1.061-0.29-1.705-0.29c-0.68,0-1.257,0.079-1.731,0.237s-0.864,0.369-1.169,0.633s-0.527,0.563-0.668,0.896s-0.211,0.677-0.211,1.028s0.059,0.668,0.176,0.949s0.34,0.536,0.668,0.765s0.776,0.439,1.345,0.633s1.304,0.39,2.206,0.589c1.16,0.27,2.168,0.574,3.023,0.914s1.564,0.735,2.127,1.187s0.981,0.97,1.257,1.556s0.413,1.266,0.413,2.039c0,0.832-0.173,1.594-0.519,2.285s-0.841,1.283-1.485,1.775s-1.418,0.876-2.32,1.151s-1.904,0.413-3.006,0.413c-1.266,0-2.382-0.176-3.349-0.527s-1.778-0.817-2.435-1.397s-1.154-1.242-1.494-1.986s-0.51-1.509-0.51-2.294h3.252c0.035,0.668,0.196,1.228,0.483,1.679s0.647,0.817,1.081,1.099s0.908,0.48,1.424,0.598s1.031,0.176,1.547,0.176c0.668,0,1.254-0.07,1.758-0.211s0.929-0.334,1.274-0.58s0.606-0.536,0.782-0.87S202.577,83.342,202.577,82.956z"/><path d="M230.719,88c-0.117-0.234-0.211-0.53-0.281-0.888s-0.129-0.729-0.176-1.116c-0.305,0.316-0.647,0.618-1.028,0.905s-0.797,0.539-1.248,0.756s-0.94,0.387-1.468,0.51s-1.084,0.185-1.67,0.185c-0.973,0-1.854-0.146-2.646-0.439s-1.465-0.691-2.021-1.195s-0.987-1.099-1.292-1.784s-0.457-1.421-0.457-2.206c0-1.02,0.199-1.919,0.598-2.698s0.97-1.433,1.714-1.96s1.644-0.926,2.698-1.195s2.232-0.404,3.533-0.404h3.234v-1.494c0-1.137-0.34-2.042-1.02-2.716s-1.682-1.011-3.006-1.011c-0.609,0-1.166,0.082-1.67,0.246s-0.935,0.384-1.292,0.659s-0.636,0.595-0.835,0.958s-0.299,0.744-0.299,1.143h-3.27c0-0.68,0.179-1.354,0.536-2.021s0.864-1.269,1.521-1.802s1.45-0.967,2.382-1.301s1.972-0.501,3.12-0.501c1.031,0,1.983,0.132,2.856,0.396s1.62,0.662,2.241,1.195s1.107,1.198,1.459,1.995s0.527,1.729,0.527,2.795v8.842c0,0.645,0.056,1.321,0.167,2.03s0.278,1.321,0.501,1.837V88H230.719z M225.323,85.522c0.586,0,1.137-0.082,1.652-0.246s0.984-0.378,1.406-0.642s0.788-0.565,1.099-0.905s0.554-0.691,0.729-1.055v-3.902h-2.707c-1.863,0-3.299,0.29-4.307,0.87s-1.512,1.456-1.512,2.628c0,0.457,0.076,0.885,0.229,1.283s0.384,0.741,0.694,1.028s0.691,0.516,1.143,0.686S224.725,85.522,225.323,85.522z"/><path d="M266.807,79.879c-0.141,1.207-0.436,2.329-0.887,3.366s-1.076,1.934-1.873,2.689s-1.77,1.348-2.918,1.775s-2.49,0.642-4.025,0.642c-1.512,0-2.883-0.281-4.113-0.844s-2.281-1.362-3.154-2.399s-1.547-2.282-2.021-3.735s-0.713-3.076-0.713-4.869v-2.566c0-1.793,0.24-3.419,0.721-4.878s1.166-2.707,2.057-3.744s1.973-1.84,3.244-2.408s2.697-0.853,4.279-0.853c1.441,0,2.719,0.211,3.832,0.633s2.061,1.011,2.84,1.767s1.396,1.658,1.854,2.707s0.75,2.206,0.879,3.472h-3.393c-0.129-0.891-0.328-1.693-0.598-2.408s-0.641-1.324-1.115-1.828s-1.064-0.891-1.768-1.16s-1.547-0.404-2.531-0.404c-1.137,0-2.135,0.22-2.996,0.659s-1.582,1.055-2.162,1.846s-1.018,1.746-1.311,2.865s-0.439,2.353-0.439,3.7v2.602c0,1.254,0.133,2.432,0.396,3.533s0.664,2.065,1.203,2.892s1.225,1.477,2.057,1.951s1.816,0.712,2.953,0.712c1.078,0,1.986-0.129,2.725-0.387s1.352-0.63,1.838-1.116s0.863-1.084,1.133-1.793s0.475-1.515,0.615-2.417H266.807z"/><path d="M274.154,71.284c0.68-0.832,1.494-1.482,2.443-1.951s2.01-0.703,3.182-0.703c0.926,0,1.764,0.126,2.514,0.378s1.389,0.656,1.916,1.213s0.936,1.271,1.223,2.145s0.43,1.931,0.43,3.173V88h-3.252V75.502c0-0.738-0.082-1.368-0.246-1.89s-0.406-0.946-0.729-1.274s-0.721-0.568-1.195-0.721s-1.023-0.229-1.645-0.229c-1.055,0-1.98,0.281-2.777,0.844s-1.418,1.301-1.863,2.215V88h-3.252V61h3.252V71.284z"/><path d="M302.473,88c-0.117-0.234-0.211-0.53-0.281-0.888s-0.129-0.729-0.176-1.116c-0.305,0.316-0.646,0.618-1.027,0.905s-0.797,0.539-1.248,0.756s-0.941,0.387-1.469,0.51s-1.084,0.185-1.67,0.185c-0.973,0-1.854-0.146-2.645-0.439s-1.465-0.691-2.021-1.195s-0.988-1.099-1.293-1.784s-0.457-1.421-0.457-2.206c0-1.02,0.199-1.919,0.598-2.698s0.971-1.433,1.715-1.96s1.643-0.926,2.697-1.195s2.232-0.404,3.533-0.404h3.234v-1.494c0-1.137-0.34-2.042-1.02-2.716s-1.682-1.011-3.006-1.011c-0.609,0-1.166,0.082-1.67,0.246s-0.934,0.384-1.291,0.659s-0.637,0.595-0.836,0.958s-0.299,0.744-0.299,1.143h-3.27c0-0.68,0.18-1.354,0.537-2.021s0.863-1.269,1.52-1.802s1.451-0.967,2.383-1.301s1.971-0.501,3.119-0.501c1.031,0,1.984,0.132,2.857,0.396s1.619,0.662,2.24,1.195s1.107,1.198,1.459,1.995s0.527,1.729,0.527,2.795v8.842c0,0.645,0.057,1.321,0.168,2.03s0.277,1.321,0.5,1.837V88H302.473z M297.076,85.522c0.586,0,1.137-0.082,1.652-0.246s0.984-0.378,1.406-0.642s0.789-0.565,1.1-0.905s0.553-0.691,0.729-1.055v-3.902h-2.707c-1.863,0-3.299,0.29-4.307,0.87s-1.512,1.456-1.512,2.628c0,0.457,0.076,0.885,0.229,1.283s0.385,0.741,0.695,1.028s0.691,0.516,1.143,0.686S296.479,85.522,297.076,85.522z"/><path d="M313.389,68.981l0.105,2.391c0.68-0.855,1.5-1.526,2.461-2.013s2.039-0.729,3.234-0.729c0.926,0,1.764,0.126,2.514,0.378s1.389,0.656,1.916,1.213s0.936,1.271,1.223,2.145s0.43,1.931,0.43,3.173V88h-3.252V75.502c0-0.738-0.082-1.368-0.246-1.89s-0.406-0.946-0.729-1.274s-0.721-0.568-1.195-0.721s-1.023-0.229-1.645-0.229c-1.055,0-1.98,0.281-2.777,0.844s-1.418,1.301-1.863,2.215V88h-3.252v-19.02H313.389z"/><path d="M333.252,68.981l0.105,2.391c0.68-0.855,1.5-1.526,2.461-2.013s2.039-0.729,3.234-0.729c0.926,0,1.764,0.126,2.514,0.378s1.389,0.656,1.916,1.213s0.936,1.271,1.223,2.145s0.43,1.931,0.43,3.173V88h-3.252V75.502c0-0.738-0.082-1.368-0.246-1.89s-0.406-0.946-0.729-1.274s-0.721-0.568-1.195-0.721s-1.023-0.229-1.645-0.229c-1.055,0-1.98,0.281-2.777,0.844s-1.418,1.301-1.863,2.215V88h-3.252v-19.02H333.252z"/><path d="M357.932,88.352c-1.324,0-2.521-0.229-3.594-0.686s-1.99-1.093-2.752-1.907s-1.348-1.784-1.758-2.909s-0.615-2.355-0.615-3.691V78.42c0-1.547,0.232-2.93,0.695-4.148s1.08-2.244,1.854-3.076s1.658-1.468,2.654-1.907s2.033-0.659,3.111-0.659c1.359,0,2.531,0.237,3.516,0.712s1.797,1.128,2.436,1.96s1.109,1.816,1.414,2.953s0.457,2.373,0.457,3.709v1.459h-12.885c0.023,0.879,0.168,1.699,0.432,2.461s0.639,1.424,1.125,1.986s1.072,1.008,1.758,1.336s1.461,0.492,2.328,0.492c1.148,0,2.121-0.234,2.918-0.703s1.494-1.09,2.092-1.863l1.986,1.547c-0.305,0.469-0.674,0.923-1.107,1.362s-0.939,0.832-1.52,1.178s-1.246,0.621-1.996,0.826S358.881,88.352,357.932,88.352zM357.527,71.301c-0.656,0-1.26,0.12-1.811,0.36s-1.043,0.589-1.477,1.046s-0.793,1.025-1.08,1.705s-0.484,1.459-0.59,2.338h9.527v-0.246c-0.035-0.633-0.137-1.26-0.307-1.881s-0.434-1.178-0.791-1.67s-0.818-0.891-1.381-1.195S358.359,71.301,357.527,71.301z"/><path d="M372.645,88h-3.252V61h3.252V88z"/><path d="M381.662,80.793c0.012-0.844,0.07-1.564,0.176-2.162s0.275-1.143,0.51-1.635s0.543-0.97,0.924-1.433s0.852-0.981,1.414-1.556c0.398-0.41,0.783-0.8,1.152-1.169s0.691-0.75,0.967-1.143s0.494-0.817,0.658-1.274s0.246-0.984,0.246-1.582c0-1.23-0.322-2.194-0.967-2.892s-1.582-1.046-2.813-1.046c-0.516,0-1.01,0.067-1.484,0.202s-0.896,0.346-1.266,0.633s-0.666,0.65-0.889,1.09s-0.334,0.964-0.334,1.573h-3.252c0.012-0.996,0.205-1.887,0.58-2.672s0.885-1.45,1.529-1.995s1.404-0.961,2.277-1.248s1.818-0.431,2.838-0.431c1.125,0,2.125,0.155,2.998,0.466s1.607,0.756,2.205,1.336s1.053,1.283,1.363,2.109s0.465,1.749,0.465,2.769c0,0.797-0.123,1.541-0.369,2.232s-0.576,1.351-0.992,1.978s-0.889,1.219-1.416,1.775s-1.072,1.099-1.635,1.626c-0.645,0.598-1.078,1.271-1.301,2.021s-0.334,1.559-0.334,2.426H381.662z M381.521,86.366c0-0.527,0.162-0.97,0.484-1.327s0.799-0.536,1.432-0.536s1.113,0.179,1.441,0.536s0.492,0.8,0.492,1.327s-0.164,0.964-0.492,1.31s-0.809,0.519-1.441,0.519s-1.109-0.173-1.432-0.519S381.521,86.893,381.521,86.366z"/></g><g class="windowBackgroundWhiteGrayText2"><path d="M109.536,135.253c-0.094,0.805-0.291,1.553-0.592,2.244s-0.717,1.289-1.248,1.793s-1.18,0.898-1.945,1.184s-1.66,0.428-2.684,0.428c-1.008,0-1.922-0.188-2.742-0.563s-1.521-0.908-2.104-1.6s-1.031-1.521-1.348-2.49s-0.475-2.051-0.475-3.246v-1.711c0-1.195,0.16-2.279,0.48-3.252s0.777-1.805,1.371-2.496s1.314-1.227,2.162-1.605s1.799-0.568,2.854-0.568c0.961,0,1.813,0.141,2.555,0.422s1.373,0.674,1.893,1.178s0.932,1.105,1.236,1.805s0.5,1.471,0.586,2.314h-2.262c-0.086-0.594-0.219-1.129-0.398-1.605s-0.428-0.883-0.744-1.219s-0.709-0.594-1.178-0.773s-1.031-0.27-1.688-0.27c-0.758,0-1.424,0.146-1.998,0.439s-1.055,0.703-1.441,1.23s-0.678,1.164-0.873,1.91s-0.293,1.568-0.293,2.467v1.734c0,0.836,0.088,1.621,0.264,2.355s0.443,1.377,0.803,1.928s0.816,0.984,1.371,1.301s1.211,0.475,1.969,0.475c0.719,0,1.324-0.086,1.816-0.258s0.9-0.42,1.225-0.744s0.576-0.723,0.756-1.195s0.316-1.01,0.41-1.611H109.536z"/><path d="M114.434,129.523c0.453-0.555,0.996-0.988,1.629-1.301s1.34-0.469,2.121-0.469c0.617,0,1.176,0.084,1.676,0.252s0.926,0.438,1.277,0.809s0.623,0.848,0.814,1.43s0.287,1.287,0.287,2.115v8.309h-2.168v-8.332c0-0.492-0.055-0.912-0.164-1.26s-0.271-0.631-0.486-0.85s-0.48-0.379-0.797-0.48s-0.682-0.152-1.096-0.152c-0.703,0-1.32,0.188-1.852,0.563s-0.945,0.867-1.242,1.477v9.035h-2.168v-18h2.168V129.523z"/><path d="M133.313,140.667c-0.078-0.156-0.141-0.354-0.188-0.592s-0.086-0.486-0.117-0.744c-0.203,0.211-0.432,0.412-0.686,0.604s-0.531,0.359-0.832,0.504s-0.627,0.258-0.979,0.34s-0.723,0.123-1.113,0.123c-0.648,0-1.236-0.098-1.764-0.293s-0.977-0.461-1.348-0.797s-0.658-0.732-0.861-1.189s-0.305-0.947-0.305-1.471c0-0.68,0.133-1.279,0.398-1.799s0.646-0.955,1.143-1.307s1.096-0.617,1.799-0.797s1.488-0.27,2.355-0.27h2.156v-0.996c0-0.758-0.227-1.361-0.68-1.811s-1.121-0.674-2.004-0.674c-0.406,0-0.777,0.055-1.113,0.164s-0.623,0.256-0.861,0.439s-0.424,0.396-0.557,0.639s-0.199,0.496-0.199,0.762h-2.18c0-0.453,0.119-0.902,0.357-1.348s0.576-0.846,1.014-1.201s0.967-0.645,1.588-0.867s1.314-0.334,2.08-0.334c0.688,0,1.322,0.088,1.904,0.264s1.08,0.441,1.494,0.797s0.738,0.799,0.973,1.33s0.352,1.152,0.352,1.863v5.895c0,0.43,0.037,0.881,0.111,1.354s0.186,0.881,0.334,1.225v0.188H133.313z M129.715,139.015c0.391,0,0.758-0.055,1.102-0.164s0.656-0.252,0.938-0.428s0.525-0.377,0.732-0.604s0.369-0.461,0.486-0.703v-2.602h-1.805c-1.242,0-2.199,0.193-2.871,0.58s-1.008,0.971-1.008,1.752c0,0.305,0.051,0.59,0.152,0.855s0.256,0.494,0.463,0.686s0.461,0.344,0.762,0.457S129.317,139.015,129.715,139.015z"/><path d="M140.59,127.988l0.07,1.594c0.453-0.57,1-1.018,1.641-1.342s1.359-0.486,2.156-0.486c0.617,0,1.176,0.084,1.676,0.252s0.926,0.438,1.277,0.809s0.623,0.848,0.814,1.43s0.287,1.287,0.287,2.115v8.309h-2.168v-8.332c0-0.492-0.055-0.912-0.164-1.26s-0.271-0.631-0.486-0.85s-0.48-0.379-0.797-0.48s-0.682-0.152-1.096-0.152c-0.703,0-1.32,0.188-1.852,0.563s-0.945,0.867-1.242,1.477v9.035h-2.168v-12.68H140.59z"/><path d="M153.833,127.988l0.07,1.594c0.453-0.57,1-1.018,1.641-1.342s1.359-0.486,2.156-0.486c0.617,0,1.176,0.084,1.676,0.252s0.926,0.438,1.277,0.809s0.623,0.848,0.814,1.43s0.287,1.287,0.287,2.115v8.309h-2.168v-8.332c0-0.492-0.055-0.912-0.164-1.26s-0.271-0.631-0.486-0.85s-0.48-0.379-0.797-0.48s-0.682-0.152-1.096-0.152c-0.703,0-1.32,0.188-1.852,0.563s-0.945,0.867-1.242,1.477v9.035h-2.168v-12.68H153.833z"/><path d="M170.286,140.902c-0.883,0-1.682-0.152-2.396-0.457s-1.326-0.729-1.834-1.271s-0.898-1.189-1.172-1.939s-0.41-1.57-0.41-2.461v-0.492c0-1.031,0.154-1.953,0.463-2.766s0.721-1.496,1.236-2.051s1.105-0.979,1.77-1.271s1.355-0.439,2.074-0.439c0.906,0,1.688,0.158,2.344,0.475s1.197,0.752,1.623,1.307s0.74,1.211,0.943,1.969s0.305,1.582,0.305,2.473v0.973h-8.59c0.016,0.586,0.111,1.133,0.287,1.641s0.426,0.949,0.75,1.324s0.715,0.672,1.172,0.891s0.975,0.328,1.553,0.328c0.766,0,1.414-0.156,1.945-0.469s0.996-0.727,1.395-1.242l1.324,1.031c-0.203,0.313-0.449,0.615-0.738,0.908s-0.627,0.555-1.014,0.785s-0.83,0.414-1.33,0.551S170.918,140.902,170.286,140.902zM170.016,129.535c-0.438,0-0.84,0.08-1.207,0.24s-0.695,0.393-0.984,0.697s-0.529,0.684-0.721,1.137s-0.322,0.973-0.393,1.559h6.352v-0.164c-0.023-0.422-0.092-0.84-0.205-1.254s-0.289-0.785-0.527-1.113s-0.545-0.594-0.92-0.797S170.571,129.535,170.016,129.535z"/><path d="M180.094,140.667h-2.168v-18h2.168V140.667z"/><path d="M190.946,137.304c0-0.234-0.035-0.455-0.105-0.662s-0.209-0.402-0.416-0.586s-0.502-0.354-0.885-0.51s-0.887-0.301-1.512-0.434c-0.703-0.148-1.336-0.324-1.898-0.527s-1.041-0.447-1.436-0.732s-0.697-0.623-0.908-1.014s-0.316-0.848-0.316-1.371c0-0.5,0.111-0.975,0.334-1.424s0.537-0.844,0.943-1.184s0.898-0.609,1.477-0.809s1.223-0.299,1.934-0.299c0.758,0,1.436,0.104,2.033,0.311s1.105,0.49,1.523,0.85s0.736,0.779,0.955,1.26s0.328,0.994,0.328,1.541h-2.18c0-0.258-0.059-0.518-0.176-0.779s-0.289-0.496-0.516-0.703s-0.504-0.375-0.832-0.504s-0.707-0.193-1.137-0.193c-0.453,0-0.838,0.053-1.154,0.158s-0.576,0.246-0.779,0.422s-0.352,0.375-0.445,0.598s-0.141,0.451-0.141,0.686s0.039,0.445,0.117,0.633s0.227,0.357,0.445,0.51s0.518,0.293,0.896,0.422s0.869,0.26,1.471,0.393c0.773,0.18,1.445,0.383,2.016,0.609s1.043,0.49,1.418,0.791s0.654,0.646,0.838,1.037s0.275,0.844,0.275,1.359c0,0.555-0.115,1.063-0.346,1.523s-0.561,0.855-0.99,1.184s-0.945,0.584-1.547,0.768s-1.27,0.275-2.004,0.275c-0.844,0-1.588-0.117-2.232-0.352s-1.186-0.545-1.623-0.932s-0.77-0.828-0.996-1.324s-0.34-1.006-0.34-1.529h2.168c0.023,0.445,0.131,0.818,0.322,1.119s0.432,0.545,0.721,0.732s0.605,0.32,0.949,0.398s0.688,0.117,1.031,0.117c0.445,0,0.836-0.047,1.172-0.141s0.619-0.223,0.85-0.387s0.404-0.357,0.521-0.58S190.946,137.562,190.946,137.304z"/><path d="M209.708,140.667c-0.078-0.156-0.141-0.354-0.188-0.592s-0.086-0.486-0.117-0.744c-0.203,0.211-0.432,0.412-0.686,0.604s-0.531,0.359-0.832,0.504s-0.627,0.258-0.979,0.34s-0.723,0.123-1.113,0.123c-0.648,0-1.236-0.098-1.764-0.293s-0.977-0.461-1.348-0.797s-0.658-0.732-0.861-1.189s-0.305-0.947-0.305-1.471c0-0.68,0.133-1.279,0.398-1.799s0.646-0.955,1.143-1.307s1.096-0.617,1.799-0.797s1.488-0.27,2.355-0.27h2.156v-0.996c0-0.758-0.227-1.361-0.68-1.811s-1.121-0.674-2.004-0.674c-0.406,0-0.777,0.055-1.113,0.164s-0.623,0.256-0.861,0.439s-0.424,0.396-0.557,0.639s-0.199,0.496-0.199,0.762h-2.18c0-0.453,0.119-0.902,0.357-1.348s0.576-0.846,1.014-1.201s0.967-0.645,1.588-0.867s1.314-0.334,2.08-0.334c0.688,0,1.322,0.088,1.904,0.264s1.08,0.441,1.494,0.797s0.738,0.799,0.973,1.33s0.352,1.152,0.352,1.863v5.895c0,0.43,0.037,0.881,0.111,1.354s0.186,0.881,0.334,1.225v0.188H209.708z M206.11,139.015c0.391,0,0.758-0.055,1.102-0.164s0.656-0.252,0.938-0.428s0.525-0.377,0.732-0.604s0.369-0.461,0.486-0.703v-2.602h-1.805c-1.242,0-2.199,0.193-2.871,0.58s-1.008,0.971-1.008,1.752c0,0.305,0.051,0.59,0.152,0.855s0.256,0.494,0.463,0.686s0.461,0.344,0.762,0.457S205.711,139.015,206.11,139.015z"/><path d="M221.063,129.933c-0.188-0.031-0.361-0.053-0.521-0.064s-0.342-0.018-0.545-0.018c-0.75,0-1.361,0.164-1.834,0.492s-0.826,0.77-1.061,1.324v9h-2.168v-12.68h2.109l0.035,1.465c0.328-0.523,0.738-0.938,1.23-1.242s1.09-0.457,1.793-0.457c0.156,0,0.336,0.018,0.539,0.053s0.344,0.072,0.422,0.111V129.933z"/><path d="M228.094,140.902c-0.883,0-1.682-0.152-2.396-0.457s-1.326-0.729-1.834-1.271s-0.898-1.189-1.172-1.939s-0.41-1.57-0.41-2.461v-0.492c0-1.031,0.154-1.953,0.463-2.766s0.721-1.496,1.236-2.051s1.105-0.979,1.77-1.271s1.355-0.439,2.074-0.439c0.906,0,1.688,0.158,2.344,0.475s1.197,0.752,1.623,1.307s0.74,1.211,0.943,1.969s0.305,1.582,0.305,2.473v0.973h-8.59c0.016,0.586,0.111,1.133,0.287,1.641s0.426,0.949,0.75,1.324s0.715,0.672,1.172,0.891s0.975,0.328,1.553,0.328c0.766,0,1.414-0.156,1.945-0.469s0.996-0.727,1.395-1.242l1.324,1.031c-0.203,0.313-0.449,0.615-0.738,0.908s-0.627,0.555-1.014,0.785s-0.83,0.414-1.33,0.551S228.727,140.902,228.094,140.902zM227.825,129.535c-0.438,0-0.84,0.08-1.207,0.24s-0.695,0.393-0.984,0.697s-0.529,0.684-0.721,1.137s-0.322,0.973-0.393,1.559h6.352v-0.164c-0.023-0.422-0.092-0.84-0.205-1.254s-0.289-0.785-0.527-1.113s-0.545-0.594-0.92-0.797S228.379,129.535,227.825,129.535z"/><path d="M249.316,140.667c-0.078-0.156-0.141-0.354-0.188-0.592s-0.086-0.486-0.117-0.744c-0.203,0.211-0.432,0.412-0.686,0.604s-0.531,0.359-0.832,0.504s-0.627,0.258-0.979,0.34s-0.723,0.123-1.113,0.123c-0.648,0-1.236-0.098-1.764-0.293s-0.977-0.461-1.348-0.797s-0.658-0.732-0.861-1.189s-0.305-0.947-0.305-1.471c0-0.68,0.133-1.279,0.398-1.799s0.646-0.955,1.143-1.307s1.096-0.617,1.799-0.797s1.488-0.27,2.355-0.27h2.156v-0.996c0-0.758-0.227-1.361-0.68-1.811s-1.121-0.674-2.004-0.674c-0.406,0-0.777,0.055-1.113,0.164s-0.623,0.256-0.861,0.439s-0.424,0.396-0.557,0.639s-0.199,0.496-0.199,0.762h-2.18c0-0.453,0.119-0.902,0.357-1.348s0.576-0.846,1.014-1.201s0.967-0.645,1.588-0.867s1.314-0.334,2.08-0.334c0.688,0,1.322,0.088,1.904,0.264s1.08,0.441,1.494,0.797s0.738,0.799,0.973,1.33s0.352,1.152,0.352,1.863v5.895c0,0.43,0.037,0.881,0.111,1.354s0.186,0.881,0.334,1.225v0.188H249.316z M245.719,139.015c0.391,0,0.758-0.055,1.102-0.164s0.656-0.252,0.938-0.428s0.525-0.377,0.732-0.604s0.369-0.461,0.486-0.703v-2.602h-1.805c-1.242,0-2.199,0.193-2.871,0.58s-1.008,0.971-1.008,1.752c0,0.305,0.051,0.59,0.152,0.855s0.256,0.494,0.463,0.686s0.461,0.344,0.762,0.457S245.32,139.015,245.719,139.015z"/><path d="M262.535,127.988l0.07,1.594c0.453-0.57,1-1.018,1.641-1.342s1.359-0.486,2.156-0.486c0.617,0,1.176,0.084,1.676,0.252s0.926,0.438,1.277,0.809s0.623,0.848,0.814,1.43s0.287,1.287,0.287,2.115v8.309h-2.168v-8.332c0-0.492-0.055-0.912-0.164-1.26s-0.271-0.631-0.486-0.85s-0.48-0.379-0.797-0.48s-0.682-0.152-1.096-0.152c-0.703,0-1.32,0.188-1.852,0.563s-0.945,0.867-1.242,1.477v9.035h-2.168v-12.68H262.535z"/><path d="M278.988,140.902c-0.883,0-1.682-0.152-2.396-0.457s-1.326-0.729-1.834-1.271s-0.898-1.189-1.172-1.939s-0.41-1.57-0.41-2.461v-0.492c0-1.031,0.154-1.953,0.463-2.766s0.721-1.496,1.236-2.051s1.105-0.979,1.77-1.271s1.355-0.439,2.074-0.439c0.906,0,1.688,0.158,2.344,0.475s1.197,0.752,1.623,1.307s0.74,1.211,0.943,1.969s0.305,1.582,0.305,2.473v0.973h-8.59c0.016,0.586,0.111,1.133,0.287,1.641s0.426,0.949,0.75,1.324s0.715,0.672,1.172,0.891s0.975,0.328,1.553,0.328c0.766,0,1.414-0.156,1.945-0.469s0.996-0.727,1.395-1.242l1.324,1.031c-0.203,0.313-0.449,0.615-0.738,0.908s-0.627,0.555-1.014,0.785s-0.83,0.414-1.33,0.551S279.621,140.902,278.988,140.902zM278.719,129.535c-0.438,0-0.84,0.08-1.207,0.24s-0.695,0.393-0.984,0.697s-0.529,0.684-0.721,1.137s-0.322,0.973-0.393,1.559h6.352v-0.164c-0.023-0.422-0.092-0.84-0.205-1.254s-0.289-0.785-0.527-1.113s-0.545-0.594-0.92-0.797S279.273,129.535,278.719,129.535z"/><path d="M297.668,137.679l2.438-9.691h2.168l-3.691,12.68h-1.758l-3.082-9.609l-3,9.609h-1.758l-3.68-12.68h2.156l2.496,9.492l2.953-9.492h1.746L297.668,137.679z"/><path d="M313.359,124.917v3.07h2.367v1.676h-2.367v7.863c0,0.328,0.039,0.592,0.117,0.791s0.182,0.354,0.311,0.463s0.277,0.182,0.445,0.217s0.342,0.053,0.521,0.053s0.369-0.018,0.568-0.053s0.354-0.064,0.463-0.088v1.758c-0.172,0.047-0.395,0.098-0.668,0.152s-0.605,0.082-0.996,0.082c-0.398,0-0.775-0.057-1.131-0.17s-0.666-0.303-0.932-0.568s-0.477-0.615-0.633-1.049s-0.234-0.967-0.234-1.6v-7.852h-2.309v-1.676h2.309v-3.07H313.359z"/><path d="M317.449,134.21c0-0.922,0.135-1.775,0.404-2.561s0.652-1.467,1.148-2.045s1.1-1.031,1.811-1.359s1.508-0.492,2.391-0.492c0.898,0,1.705,0.164,2.42,0.492s1.322,0.781,1.822,1.359s0.883,1.26,1.148,2.045s0.398,1.639,0.398,2.561v0.258c0,0.922-0.133,1.775-0.398,2.561s-0.648,1.465-1.148,2.039s-1.105,1.023-1.816,1.348s-1.512,0.486-2.402,0.486s-1.691-0.162-2.402-0.486s-1.316-0.773-1.816-1.348s-0.885-1.254-1.154-2.039s-0.404-1.639-0.404-2.561V134.21z M319.629,134.468c0,0.633,0.074,1.23,0.223,1.793s0.373,1.057,0.674,1.482s0.676,0.764,1.125,1.014s0.975,0.375,1.576,0.375c0.594,0,1.117-0.125,1.57-0.375s0.828-0.588,1.125-1.014s0.521-0.92,0.674-1.482s0.229-1.16,0.229-1.793v-0.258c0-0.625-0.076-1.221-0.229-1.787s-0.379-1.063-0.68-1.488s-0.678-0.766-1.131-1.02s-0.98-0.381-1.582-0.381c-0.594,0-1.113,0.127-1.559,0.381s-0.818,0.594-1.119,1.02s-0.525,0.922-0.674,1.488s-0.223,1.162-0.223,1.787V134.468z"/><path d="M331.137,134.21c0-0.922,0.135-1.775,0.404-2.561s0.652-1.467,1.148-2.045s1.1-1.031,1.811-1.359s1.508-0.492,2.391-0.492c0.898,0,1.705,0.164,2.42,0.492s1.322,0.781,1.822,1.359s0.883,1.26,1.148,2.045s0.398,1.639,0.398,2.561v0.258c0,0.922-0.133,1.775-0.398,2.561s-0.648,1.465-1.148,2.039s-1.105,1.023-1.816,1.348s-1.512,0.486-2.402,0.486s-1.691-0.162-2.402-0.486s-1.316-0.773-1.816-1.348s-0.885-1.254-1.154-2.039s-0.404-1.639-0.404-2.561V134.21z M333.316,134.468c0,0.633,0.074,1.23,0.223,1.793s0.373,1.057,0.674,1.482s0.676,0.764,1.125,1.014s0.975,0.375,1.576,0.375c0.594,0,1.117-0.125,1.57-0.375s0.828-0.588,1.125-1.014s0.521-0.92,0.674-1.482s0.229-1.16,0.229-1.793v-0.258c0-0.625-0.076-1.221-0.229-1.787s-0.379-1.063-0.68-1.488s-0.678-0.766-1.131-1.02s-0.98-0.381-1.582-0.381c-0.594,0-1.113,0.127-1.559,0.381s-0.818,0.594-1.119,1.02s-0.525,0.922-0.674,1.488s-0.223,1.162-0.223,1.787V134.468z"/><path d="M347.754,140.667h-2.168v-18h2.168V140.667z"/><path d="M358.23,140.667v-11.004h-2.004v-1.676h2.004v-1.336c0-0.68,0.096-1.283,0.287-1.811s0.467-0.971,0.826-1.33s0.797-0.631,1.313-0.814s1.098-0.275,1.746-0.275c0.5,0,0.996,0.066,1.488,0.199l-0.117,1.758c-0.164-0.031-0.35-0.057-0.557-0.076s-0.412-0.029-0.615-0.029c-0.703,0-1.246,0.205-1.629,0.615s-0.574,0.998-0.574,1.764v1.336h2.707v1.676h-2.707v11.004H358.23z"/><path d="M364.922,134.21c0-0.922,0.135-1.775,0.404-2.561s0.652-1.467,1.148-2.045s1.1-1.031,1.811-1.359s1.508-0.492,2.391-0.492c0.898,0,1.705,0.164,2.42,0.492s1.322,0.781,1.822,1.359s0.883,1.26,1.148,2.045s0.398,1.639,0.398,2.561v0.258c0,0.922-0.133,1.775-0.398,2.561s-0.648,1.465-1.148,2.039s-1.105,1.023-1.816,1.348s-1.512,0.486-2.402,0.486s-1.691-0.162-2.402-0.486s-1.316-0.773-1.816-1.348s-0.885-1.254-1.154-2.039s-0.404-1.639-0.404-2.561V134.21z M367.102,134.468c0,0.633,0.074,1.23,0.223,1.793s0.373,1.057,0.674,1.482s0.676,0.764,1.125,1.014s0.975,0.375,1.576,0.375c0.594,0,1.117-0.125,1.57-0.375s0.828-0.588,1.125-1.014s0.521-0.92,0.674-1.482s0.229-1.16,0.229-1.793v-0.258c0-0.625-0.076-1.221-0.229-1.787s-0.379-1.063-0.68-1.488s-0.678-0.766-1.131-1.02s-0.98-0.381-1.582-0.381c-0.594,0-1.113,0.127-1.559,0.381s-0.818,0.594-1.119,1.02s-0.525,0.922-0.674,1.488s-0.223,1.162-0.223,1.787V134.468z"/><path d="M385.313,129.933c-0.188-0.031-0.361-0.053-0.521-0.064s-0.342-0.018-0.545-0.018c-0.75,0-1.361,0.164-1.834,0.492s-0.826,0.77-1.061,1.324v9h-2.168v-12.68h2.109l0.035,1.465c0.328-0.523,0.738-0.938,1.23-1.242s1.09-0.457,1.793-0.457c0.156,0,0.336,0.018,0.539,0.053s0.344,0.072,0.422,0.111V129.933z"/><path d="M55.542,163.268c0,0.93-0.109,1.787-0.328,2.572s-0.539,1.465-0.961,2.039s-0.938,1.021-1.547,1.342s-1.305,0.48-2.086,0.48c-0.836,0-1.559-0.146-2.168-0.439s-1.125-0.713-1.547-1.26l-0.105,1.465h-1.992v-18h2.168v6.715c0.422-0.523,0.93-0.926,1.523-1.207s1.293-0.422,2.098-0.422c0.797,0,1.502,0.156,2.115,0.469s1.129,0.752,1.547,1.318s0.736,1.246,0.955,2.039s0.328,1.674,0.328,2.643V163.268z M53.374,163.022c0-0.633-0.059-1.229-0.176-1.787s-0.307-1.049-0.568-1.471s-0.604-0.756-1.025-1.002s-0.938-0.369-1.547-0.369c-0.398,0-0.758,0.051-1.078,0.152s-0.607,0.242-0.861,0.422s-0.475,0.391-0.662,0.633s-0.348,0.504-0.48,0.785v5.484c0.141,0.281,0.307,0.543,0.498,0.785s0.414,0.453,0.668,0.633s0.541,0.32,0.861,0.422s0.68,0.152,1.078,0.152c0.586,0,1.086-0.121,1.5-0.363s0.754-0.57,1.02-0.984s0.461-0.9,0.586-1.459s0.188-1.154,0.188-1.787V163.022z"/><path d="M64.401,158.733c-0.188-0.031-0.361-0.053-0.521-0.064s-0.342-0.018-0.545-0.018c-0.75,0-1.361,0.164-1.834,0.492s-0.826,0.77-1.061,1.324v9h-2.168v-12.68h2.109l0.035,1.465c0.328-0.523,0.738-0.938,1.23-1.242s1.09-0.457,1.793-0.457c0.156,0,0.336,0.018,0.539,0.053s0.344,0.072,0.422,0.111V158.733z"/><path d="M65.584,163.01c0-0.922,0.135-1.775,0.404-2.561s0.652-1.467,1.148-2.045s1.1-1.031,1.811-1.359s1.508-0.492,2.391-0.492c0.898,0,1.705,0.164,2.42,0.492s1.322,0.781,1.822,1.359s0.883,1.26,1.148,2.045s0.398,1.639,0.398,2.561v0.258c0,0.922-0.133,1.775-0.398,2.561s-0.648,1.465-1.148,2.039s-1.105,1.023-1.816,1.348s-1.512,0.486-2.402,0.486s-1.691-0.162-2.402-0.486s-1.316-0.773-1.816-1.348s-0.885-1.254-1.154-2.039s-0.404-1.639-0.404-2.561V163.01z M67.764,163.268c0,0.633,0.074,1.23,0.223,1.793s0.373,1.057,0.674,1.482s0.676,0.764,1.125,1.014s0.975,0.375,1.576,0.375c0.594,0,1.117-0.125,1.57-0.375s0.828-0.588,1.125-1.014s0.521-0.92,0.674-1.482s0.229-1.16,0.229-1.793v-0.258c0-0.625-0.076-1.221-0.229-1.787s-0.379-1.063-0.68-1.488s-0.678-0.766-1.131-1.02s-0.98-0.381-1.582-0.381c-0.594,0-1.113,0.127-1.559,0.381s-0.818,0.594-1.119,1.02s-0.525,0.922-0.674,1.488s-0.223,1.162-0.223,1.787V163.268z"/><path d="M87.674,169.467c-0.078-0.156-0.141-0.354-0.188-0.592s-0.086-0.486-0.117-0.744c-0.203,0.211-0.432,0.412-0.686,0.604s-0.531,0.359-0.832,0.504s-0.627,0.258-0.979,0.34s-0.723,0.123-1.113,0.123c-0.648,0-1.236-0.098-1.764-0.293s-0.977-0.461-1.348-0.797s-0.658-0.732-0.861-1.189s-0.305-0.947-0.305-1.471c0-0.68,0.133-1.279,0.398-1.799s0.646-0.955,1.143-1.307s1.096-0.617,1.799-0.797s1.488-0.27,2.355-0.27h2.156v-0.996c0-0.758-0.227-1.361-0.68-1.811s-1.121-0.674-2.004-0.674c-0.406,0-0.777,0.055-1.113,0.164s-0.623,0.256-0.861,0.439s-0.424,0.396-0.557,0.639s-0.199,0.496-0.199,0.762h-2.18c0-0.453,0.119-0.902,0.357-1.348s0.576-0.846,1.014-1.201s0.967-0.645,1.588-0.867s1.314-0.334,2.08-0.334c0.688,0,1.322,0.088,1.904,0.264s1.08,0.441,1.494,0.797s0.738,0.799,0.973,1.33s0.352,1.152,0.352,1.863v5.895c0,0.43,0.037,0.881,0.111,1.354s0.186,0.881,0.334,1.225v0.188H87.674z M84.077,167.815c0.391,0,0.758-0.055,1.102-0.164s0.656-0.252,0.938-0.428s0.525-0.377,0.732-0.604s0.369-0.461,0.486-0.703v-2.602H85.53c-1.242,0-2.199,0.193-2.871,0.58s-1.008,0.971-1.008,1.752c0,0.305,0.051,0.59,0.152,0.855s0.256,0.494,0.463,0.686s0.461,0.344,0.762,0.457S83.678,167.815,84.077,167.815z"/><path d="M92.374,163.022c0-0.969,0.119-1.85,0.357-2.643s0.576-1.473,1.014-2.039s0.963-1.006,1.576-1.318s1.299-0.469,2.057-0.469c0.773,0,1.449,0.131,2.027,0.393s1.078,0.639,1.5,1.131v-6.609h2.168v18h-1.992l-0.105-1.359c-0.422,0.516-0.93,0.91-1.523,1.184s-1.293,0.41-2.098,0.41c-0.742,0-1.42-0.16-2.033-0.48s-1.139-0.768-1.576-1.342s-0.775-1.254-1.014-2.039s-0.357-1.643-0.357-2.572V163.022z M94.542,163.268c0,0.633,0.064,1.229,0.193,1.787s0.33,1.045,0.604,1.459s0.621,0.742,1.043,0.984s0.926,0.363,1.512,0.363c0.383,0,0.727-0.045,1.031-0.135s0.58-0.217,0.826-0.381s0.465-0.359,0.656-0.586s0.357-0.477,0.498-0.75v-5.824c-0.141-0.258-0.305-0.496-0.492-0.715s-0.404-0.408-0.65-0.568s-0.521-0.285-0.826-0.375s-0.645-0.135-1.02-0.135c-0.594,0-1.104,0.123-1.529,0.369s-0.775,0.58-1.049,1.002s-0.475,0.912-0.604,1.471s-0.193,1.154-0.193,1.787V163.268z"/><path d="M111.522,167.932c0.383,0,0.75-0.063,1.102-0.188s0.662-0.297,0.932-0.516s0.488-0.479,0.656-0.779s0.268-0.627,0.299-0.979h2.051c-0.031,0.563-0.186,1.1-0.463,1.611s-0.643,0.961-1.096,1.348s-0.979,0.695-1.576,0.926s-1.232,0.346-1.904,0.346c-0.953,0-1.783-0.17-2.49-0.51s-1.295-0.799-1.764-1.377s-0.818-1.25-1.049-2.016s-0.346-1.574-0.346-2.426v-0.492c0-0.852,0.115-1.66,0.346-2.426s0.58-1.438,1.049-2.016s1.055-1.037,1.758-1.377s1.531-0.51,2.484-0.51c0.742,0,1.416,0.117,2.021,0.352s1.129,0.557,1.57,0.967s0.787,0.896,1.037,1.459s0.391,1.168,0.422,1.816h-2.051c-0.031-0.391-0.123-0.756-0.275-1.096s-0.357-0.637-0.615-0.891s-0.564-0.455-0.92-0.604s-0.752-0.223-1.189-0.223c-0.672,0-1.229,0.133-1.67,0.398s-0.797,0.615-1.066,1.049s-0.459,0.922-0.568,1.465s-0.164,1.088-0.164,1.635v0.492c0,0.563,0.055,1.115,0.164,1.658s0.297,1.029,0.563,1.459s0.621,0.777,1.066,1.043S110.842,167.932,111.522,167.932z"/><path d="M126.827,169.467c-0.078-0.156-0.141-0.354-0.188-0.592s-0.086-0.486-0.117-0.744c-0.203,0.211-0.432,0.412-0.686,0.604s-0.531,0.359-0.832,0.504s-0.627,0.258-0.979,0.34s-0.723,0.123-1.113,0.123c-0.648,0-1.236-0.098-1.764-0.293s-0.977-0.461-1.348-0.797s-0.658-0.732-0.861-1.189s-0.305-0.947-0.305-1.471c0-0.68,0.133-1.279,0.398-1.799s0.646-0.955,1.143-1.307s1.096-0.617,1.799-0.797s1.488-0.27,2.355-0.27h2.156v-0.996c0-0.758-0.227-1.361-0.68-1.811s-1.121-0.674-2.004-0.674c-0.406,0-0.777,0.055-1.113,0.164s-0.623,0.256-0.861,0.439s-0.424,0.396-0.557,0.639s-0.199,0.496-0.199,0.762h-2.18c0-0.453,0.119-0.902,0.357-1.348s0.576-0.846,1.014-1.201s0.967-0.645,1.588-0.867s1.314-0.334,2.08-0.334c0.688,0,1.322,0.088,1.904,0.264s1.08,0.441,1.494,0.797s0.738,0.799,0.973,1.33s0.352,1.152,0.352,1.863v5.895c0,0.43,0.037,0.881,0.111,1.354s0.186,0.881,0.334,1.225v0.188H126.827z M123.229,167.815c0.391,0,0.758-0.055,1.102-0.164s0.656-0.252,0.938-0.428s0.525-0.377,0.732-0.604s0.369-0.461,0.486-0.703v-2.602h-1.805c-1.242,0-2.199,0.193-2.871,0.58s-1.008,0.971-1.008,1.752c0,0.305,0.051,0.59,0.152,0.855s0.256,0.494,0.463,0.686s0.461,0.344,0.762,0.457S122.831,167.815,123.229,167.815z"/><path d="M139.436,166.104c0-0.234-0.035-0.455-0.105-0.662s-0.209-0.402-0.416-0.586s-0.502-0.354-0.885-0.51s-0.887-0.301-1.512-0.434c-0.703-0.148-1.336-0.324-1.898-0.527s-1.041-0.447-1.436-0.732s-0.697-0.623-0.908-1.014s-0.316-0.848-0.316-1.371c0-0.5,0.111-0.975,0.334-1.424s0.537-0.844,0.943-1.184s0.898-0.609,1.477-0.809s1.223-0.299,1.934-0.299c0.758,0,1.436,0.104,2.033,0.311s1.105,0.49,1.523,0.85s0.736,0.779,0.955,1.26s0.328,0.994,0.328,1.541h-2.18c0-0.258-0.059-0.518-0.176-0.779s-0.289-0.496-0.516-0.703s-0.504-0.375-0.832-0.504s-0.707-0.193-1.137-0.193c-0.453,0-0.838,0.053-1.154,0.158s-0.576,0.246-0.779,0.422s-0.352,0.375-0.445,0.598s-0.141,0.451-0.141,0.686s0.039,0.445,0.117,0.633s0.227,0.357,0.445,0.51s0.518,0.293,0.896,0.422s0.869,0.26,1.471,0.393c0.773,0.18,1.445,0.383,2.016,0.609s1.043,0.49,1.418,0.791s0.654,0.646,0.838,1.037s0.275,0.844,0.275,1.359c0,0.555-0.115,1.063-0.346,1.523s-0.561,0.855-0.99,1.184s-0.945,0.584-1.547,0.768s-1.27,0.275-2.004,0.275c-0.844,0-1.588-0.117-2.232-0.352s-1.186-0.545-1.623-0.932s-0.77-0.828-0.996-1.324s-0.34-1.006-0.34-1.529h2.168c0.023,0.445,0.131,0.818,0.322,1.119s0.432,0.545,0.721,0.732s0.605,0.32,0.949,0.398s0.688,0.117,1.031,0.117c0.445,0,0.836-0.047,1.172-0.141s0.619-0.223,0.85-0.387s0.404-0.357,0.521-0.58S139.436,166.362,139.436,166.104z"/><path d="M147.37,153.717v3.07h2.367v1.676h-2.367v7.863c0,0.328,0.039,0.592,0.117,0.791s0.182,0.354,0.311,0.463s0.277,0.182,0.445,0.217s0.342,0.053,0.521,0.053s0.369-0.018,0.568-0.053s0.354-0.064,0.463-0.088v1.758c-0.172,0.047-0.395,0.098-0.668,0.152s-0.605,0.082-0.996,0.082c-0.398,0-0.775-0.057-1.131-0.17s-0.666-0.303-0.932-0.568s-0.477-0.615-0.633-1.049s-0.234-0.967-0.234-1.6v-7.852h-2.309v-1.676h2.309v-3.07H147.37z"/><path d="M152.28,153.424c0-0.352,0.107-0.648,0.322-0.891s0.533-0.363,0.955-0.363s0.742,0.121,0.961,0.363s0.328,0.539,0.328,0.891s-0.109,0.645-0.328,0.879s-0.539,0.352-0.961,0.352s-0.74-0.117-0.955-0.352S152.28,153.776,152.28,153.424z M154.624,169.467h-2.168v-12.68h2.168V169.467z"/><path d="M160.143,156.788l0.07,1.594c0.453-0.57,1-1.018,1.641-1.342s1.359-0.486,2.156-0.486c0.617,0,1.176,0.084,1.676,0.252s0.926,0.438,1.277,0.809s0.623,0.848,0.814,1.43s0.287,1.287,0.287,2.115v8.309h-2.168v-8.332c0-0.492-0.055-0.912-0.164-1.26s-0.271-0.631-0.486-0.85s-0.48-0.379-0.797-0.48s-0.682-0.152-1.096-0.152c-0.703,0-1.32,0.188-1.852,0.563s-0.945,0.867-1.242,1.477v9.035h-2.168v-12.68H160.143z"/><path d="M170.819,163.022c0-0.969,0.115-1.85,0.346-2.643s0.563-1.473,0.996-2.039s0.959-1.006,1.576-1.318s1.313-0.469,2.086-0.469c0.805,0,1.504,0.141,2.098,0.422s1.102,0.688,1.523,1.219l0.105-1.406h1.98v12.41c0,0.836-0.131,1.58-0.393,2.232s-0.631,1.203-1.107,1.652s-1.043,0.791-1.699,1.025s-1.383,0.352-2.18,0.352c-0.328,0-0.705-0.037-1.131-0.111s-0.855-0.195-1.289-0.363s-0.85-0.393-1.248-0.674s-0.738-0.629-1.02-1.043l1.125-1.301c0.266,0.328,0.539,0.602,0.82,0.82s0.564,0.395,0.85,0.527s0.574,0.229,0.867,0.287s0.584,0.088,0.873,0.088c0.508,0,0.969-0.072,1.383-0.217s0.768-0.361,1.061-0.65s0.518-0.643,0.674-1.061s0.234-0.904,0.234-1.459v-1.102c-0.422,0.484-0.924,0.855-1.506,1.113s-1.264,0.387-2.045,0.387c-0.758,0-1.443-0.16-2.057-0.48s-1.137-0.768-1.57-1.342s-0.768-1.254-1.002-2.039s-0.352-1.643-0.352-2.572V163.022z M172.999,163.268c0,0.633,0.064,1.229,0.193,1.787s0.328,1.045,0.598,1.459s0.615,0.742,1.037,0.984s0.926,0.363,1.512,0.363c0.383,0,0.729-0.047,1.037-0.141s0.586-0.223,0.832-0.387s0.463-0.359,0.65-0.586s0.352-0.477,0.492-0.75v-5.789c-0.141-0.258-0.305-0.498-0.492-0.721s-0.404-0.416-0.65-0.58s-0.521-0.291-0.826-0.381s-0.645-0.135-1.02-0.135c-0.594,0-1.102,0.123-1.523,0.369s-0.77,0.58-1.043,1.002s-0.475,0.912-0.604,1.471s-0.193,1.154-0.193,1.787V163.268z"/><path d="M194.889,166.292l2.953-9.504h2.32l-5.098,14.637c-0.117,0.313-0.27,0.652-0.457,1.02s-0.432,0.709-0.732,1.025s-0.662,0.582-1.084,0.797s-0.918,0.322-1.488,0.322c-0.086,0-0.188-0.008-0.305-0.023s-0.234-0.033-0.352-0.053s-0.227-0.039-0.328-0.059s-0.18-0.037-0.234-0.053v-1.758c0.031,0.008,0.074,0.014,0.129,0.018s0.111,0.008,0.17,0.012s0.113,0.008,0.164,0.012s0.092,0.006,0.123,0.006c0.367,0,0.691-0.035,0.973-0.105s0.531-0.186,0.75-0.346s0.408-0.373,0.568-0.639s0.307-0.594,0.439-0.984l0.48-1.289l-4.523-12.539h2.367L194.889,166.292z"/><path d="M201.346,163.01c0-0.922,0.135-1.775,0.404-2.561s0.652-1.467,1.148-2.045s1.1-1.031,1.811-1.359s1.508-0.492,2.391-0.492c0.898,0,1.705,0.164,2.42,0.492s1.322,0.781,1.822,1.359s0.883,1.26,1.148,2.045s0.398,1.639,0.398,2.561v0.258c0,0.922-0.133,1.775-0.398,2.561s-0.648,1.465-1.148,2.039s-1.105,1.023-1.816,1.348s-1.512,0.486-2.402,0.486s-1.691-0.162-2.402-0.486s-1.316-0.773-1.816-1.348s-0.885-1.254-1.154-2.039s-0.404-1.639-0.404-2.561V163.01z M203.526,163.268c0,0.633,0.074,1.23,0.223,1.793s0.373,1.057,0.674,1.482s0.676,0.764,1.125,1.014s0.975,0.375,1.576,0.375c0.594,0,1.117-0.125,1.57-0.375s0.828-0.588,1.125-1.014s0.521-0.92,0.674-1.482s0.229-1.16,0.229-1.793v-0.258c0-0.625-0.076-1.221-0.229-1.787s-0.379-1.063-0.68-1.488s-0.678-0.766-1.131-1.02s-0.98-0.381-1.582-0.381c-0.594,0-1.113,0.127-1.559,0.381s-0.818,0.594-1.119,1.02s-0.525,0.922-0.674,1.488s-0.223,1.162-0.223,1.787V163.268z"/><path d="M223.436,168.213c-0.398,0.469-0.902,0.834-1.512,1.096s-1.344,0.393-2.203,0.393c-0.625,0-1.191-0.088-1.699-0.264s-0.945-0.453-1.313-0.832s-0.65-0.867-0.85-1.465s-0.299-1.318-0.299-2.162v-8.191h2.168v8.215c0,0.57,0.066,1.041,0.199,1.412s0.309,0.664,0.527,0.879s0.469,0.363,0.75,0.445s0.57,0.123,0.867,0.123c0.883,0,1.592-0.168,2.127-0.504s0.928-0.785,1.178-1.348v-9.223h2.168v12.68h-2.063L223.436,168.213z"/><path d="M234.967,158.733c-0.188-0.031-0.361-0.053-0.521-0.064s-0.342-0.018-0.545-0.018c-0.75,0-1.361,0.164-1.834,0.492s-0.826,0.77-1.061,1.324v9h-2.168v-12.68h2.109l0.035,1.465c0.328-0.523,0.738-0.938,1.23-1.242s1.09-0.457,1.793-0.457c0.156,0,0.336,0.018,0.539,0.053s0.344,0.072,0.422,0.111V158.733z"/><path d="M244.939,156.788l0.059,1.406c0.438-0.516,0.967-0.918,1.588-1.207s1.346-0.434,2.174-0.434c0.82,0,1.545,0.162,2.174,0.486s1.111,0.842,1.447,1.553c0.422-0.609,0.971-1.102,1.646-1.477s1.475-0.563,2.396-0.563c0.68,0,1.281,0.088,1.805,0.264s0.967,0.451,1.33,0.826s0.639,0.852,0.826,1.43s0.281,1.266,0.281,2.063v8.332h-2.168v-8.344c0-0.531-0.064-0.973-0.193-1.324s-0.311-0.633-0.545-0.844s-0.52-0.357-0.855-0.439s-0.707-0.123-1.113-0.123c-0.445,0-0.84,0.07-1.184,0.211s-0.639,0.33-0.885,0.568s-0.441,0.52-0.586,0.844s-0.236,0.67-0.275,1.037v8.414h-2.18v-8.332c0-0.492-0.064-0.912-0.193-1.26s-0.311-0.631-0.545-0.85s-0.518-0.379-0.85-0.48s-0.705-0.152-1.119-0.152c-0.773,0-1.395,0.168-1.863,0.504s-0.82,0.773-1.055,1.313v9.258h-2.168v-12.68H244.939z"/><path d="M269.197,169.702c-0.883,0-1.682-0.152-2.396-0.457s-1.326-0.729-1.834-1.271s-0.898-1.189-1.172-1.939s-0.41-1.57-0.41-2.461v-0.492c0-1.031,0.154-1.953,0.463-2.766s0.721-1.496,1.236-2.051s1.105-0.979,1.77-1.271s1.355-0.439,2.074-0.439c0.906,0,1.688,0.158,2.344,0.475s1.197,0.752,1.623,1.307s0.74,1.211,0.943,1.969s0.305,1.582,0.305,2.473v0.973h-8.59c0.016,0.586,0.111,1.133,0.287,1.641s0.426,0.949,0.75,1.324s0.715,0.672,1.172,0.891s0.975,0.328,1.553,0.328c0.766,0,1.414-0.156,1.945-0.469s0.996-0.727,1.395-1.242l1.324,1.031c-0.203,0.313-0.449,0.615-0.738,0.908s-0.627,0.555-1.014,0.785s-0.83,0.414-1.33,0.551S269.83,169.702,269.197,169.702zM268.928,158.334c-0.438,0-0.84,0.08-1.207,0.24s-0.695,0.393-0.984,0.697s-0.529,0.684-0.721,1.137s-0.322,0.973-0.393,1.559h6.352v-0.164c-0.023-0.422-0.092-0.84-0.205-1.254s-0.289-0.785-0.527-1.113s-0.545-0.594-0.92-0.797S269.482,158.334,268.928,158.334z"/><path d="M284.033,166.104c0-0.234-0.035-0.455-0.105-0.662s-0.209-0.402-0.416-0.586s-0.502-0.354-0.885-0.51s-0.887-0.301-1.512-0.434c-0.703-0.148-1.336-0.324-1.898-0.527s-1.041-0.447-1.436-0.732s-0.697-0.623-0.908-1.014s-0.316-0.848-0.316-1.371c0-0.5,0.111-0.975,0.334-1.424s0.537-0.844,0.943-1.184s0.898-0.609,1.477-0.809s1.223-0.299,1.934-0.299c0.758,0,1.436,0.104,2.033,0.311s1.105,0.49,1.523,0.85s0.736,0.779,0.955,1.26s0.328,0.994,0.328,1.541h-2.18c0-0.258-0.059-0.518-0.176-0.779s-0.289-0.496-0.516-0.703s-0.504-0.375-0.832-0.504s-0.707-0.193-1.137-0.193c-0.453,0-0.838,0.053-1.154,0.158s-0.576,0.246-0.779,0.422s-0.352,0.375-0.445,0.598s-0.141,0.451-0.141,0.686s0.039,0.445,0.117,0.633s0.227,0.357,0.445,0.51s0.518,0.293,0.896,0.422s0.869,0.26,1.471,0.393c0.773,0.18,1.445,0.383,2.016,0.609s1.043,0.49,1.418,0.791s0.654,0.646,0.838,1.037s0.275,0.844,0.275,1.359c0,0.555-0.115,1.063-0.346,1.523s-0.561,0.855-0.99,1.184s-0.945,0.584-1.547,0.768s-1.27,0.275-2.004,0.275c-0.844,0-1.588-0.117-2.232-0.352s-1.186-0.545-1.623-0.932s-0.77-0.828-0.996-1.324s-0.34-1.006-0.34-1.529h2.168c0.023,0.445,0.131,0.818,0.322,1.119s0.432,0.545,0.721,0.732s0.605,0.32,0.949,0.398s0.688,0.117,1.031,0.117c0.445,0,0.836-0.047,1.172-0.141s0.619-0.223,0.85-0.387s0.404-0.357,0.521-0.58S284.033,166.362,284.033,166.104z"/><path d="M296.408,166.104c0-0.234-0.035-0.455-0.105-0.662s-0.209-0.402-0.416-0.586s-0.502-0.354-0.885-0.51s-0.887-0.301-1.512-0.434c-0.703-0.148-1.336-0.324-1.898-0.527s-1.041-0.447-1.436-0.732s-0.697-0.623-0.908-1.014s-0.316-0.848-0.316-1.371c0-0.5,0.111-0.975,0.334-1.424s0.537-0.844,0.943-1.184s0.898-0.609,1.477-0.809s1.223-0.299,1.934-0.299c0.758,0,1.436,0.104,2.033,0.311s1.105,0.49,1.523,0.85s0.736,0.779,0.955,1.26s0.328,0.994,0.328,1.541h-2.18c0-0.258-0.059-0.518-0.176-0.779s-0.289-0.496-0.516-0.703s-0.504-0.375-0.832-0.504s-0.707-0.193-1.137-0.193c-0.453,0-0.838,0.053-1.154,0.158s-0.576,0.246-0.779,0.422s-0.352,0.375-0.445,0.598s-0.141,0.451-0.141,0.686s0.039,0.445,0.117,0.633s0.227,0.357,0.445,0.51s0.518,0.293,0.896,0.422s0.869,0.26,1.471,0.393c0.773,0.18,1.445,0.383,2.016,0.609s1.043,0.49,1.418,0.791s0.654,0.646,0.838,1.037s0.275,0.844,0.275,1.359c0,0.555-0.115,1.063-0.346,1.523s-0.561,0.855-0.99,1.184s-0.945,0.584-1.547,0.768s-1.27,0.275-2.004,0.275c-0.844,0-1.588-0.117-2.232-0.352s-1.186-0.545-1.623-0.932s-0.77-0.828-0.996-1.324s-0.34-1.006-0.34-1.529h2.168c0.023,0.445,0.131,0.818,0.322,1.119s0.432,0.545,0.721,0.732s0.605,0.32,0.949,0.398s0.688,0.117,1.031,0.117c0.445,0,0.836-0.047,1.172-0.141s0.619-0.223,0.85-0.387s0.404-0.357,0.521-0.58S296.408,166.362,296.408,166.104z"/><path d="M309.229,169.467c-0.078-0.156-0.141-0.354-0.188-0.592s-0.086-0.486-0.117-0.744c-0.203,0.211-0.432,0.412-0.686,0.604s-0.531,0.359-0.832,0.504s-0.627,0.258-0.979,0.34s-0.723,0.123-1.113,0.123c-0.648,0-1.236-0.098-1.764-0.293s-0.977-0.461-1.348-0.797s-0.658-0.732-0.861-1.189s-0.305-0.947-0.305-1.471c0-0.68,0.133-1.279,0.398-1.799s0.646-0.955,1.143-1.307s1.096-0.617,1.799-0.797s1.488-0.27,2.355-0.27h2.156v-0.996c0-0.758-0.227-1.361-0.68-1.811s-1.121-0.674-2.004-0.674c-0.406,0-0.777,0.055-1.113,0.164s-0.623,0.256-0.861,0.439s-0.424,0.396-0.557,0.639s-0.199,0.496-0.199,0.762h-2.18c0-0.453,0.119-0.902,0.357-1.348s0.576-0.846,1.014-1.201s0.967-0.645,1.588-0.867s1.314-0.334,2.08-0.334c0.688,0,1.322,0.088,1.904,0.264s1.08,0.441,1.494,0.797s0.738,0.799,0.973,1.33s0.352,1.152,0.352,1.863v5.895c0,0.43,0.037,0.881,0.111,1.354s0.186,0.881,0.334,1.225v0.188H309.229z M305.631,167.815c0.391,0,0.758-0.055,1.102-0.164s0.656-0.252,0.938-0.428s0.525-0.377,0.732-0.604s0.369-0.461,0.486-0.703v-2.602h-1.805c-1.242,0-2.199,0.193-2.871,0.58s-1.008,0.971-1.008,1.752c0,0.305,0.051,0.59,0.152,0.855s0.256,0.494,0.463,0.686s0.461,0.344,0.762,0.457S305.232,167.815,305.631,167.815z"/><path d="M313.939,163.022c0-0.969,0.115-1.85,0.346-2.643s0.563-1.473,0.996-2.039s0.959-1.006,1.576-1.318s1.313-0.469,2.086-0.469c0.805,0,1.504,0.141,2.098,0.422s1.102,0.688,1.523,1.219l0.105-1.406h1.98v12.41c0,0.836-0.131,1.58-0.393,2.232s-0.631,1.203-1.107,1.652s-1.043,0.791-1.699,1.025s-1.383,0.352-2.18,0.352c-0.328,0-0.705-0.037-1.131-0.111s-0.855-0.195-1.289-0.363s-0.85-0.393-1.248-0.674s-0.738-0.629-1.02-1.043l1.125-1.301c0.266,0.328,0.539,0.602,0.82,0.82s0.564,0.395,0.85,0.527s0.574,0.229,0.867,0.287s0.584,0.088,0.873,0.088c0.508,0,0.969-0.072,1.383-0.217s0.768-0.361,1.061-0.65s0.518-0.643,0.674-1.061s0.234-0.904,0.234-1.459v-1.102c-0.422,0.484-0.924,0.855-1.506,1.113s-1.264,0.387-2.045,0.387c-0.758,0-1.443-0.16-2.057-0.48s-1.137-0.768-1.57-1.342s-0.768-1.254-1.002-2.039s-0.352-1.643-0.352-2.572V163.022z M316.119,163.268c0,0.633,0.064,1.229,0.193,1.787s0.328,1.045,0.598,1.459s0.615,0.742,1.037,0.984s0.926,0.363,1.512,0.363c0.383,0,0.729-0.047,1.037-0.141s0.586-0.223,0.832-0.387s0.463-0.359,0.65-0.586s0.352-0.477,0.492-0.75v-5.789c-0.141-0.258-0.305-0.498-0.492-0.721s-0.404-0.416-0.65-0.58s-0.521-0.291-0.826-0.381s-0.645-0.135-1.02-0.135c-0.594,0-1.102,0.123-1.523,0.369s-0.77,0.58-1.043,1.002s-0.475,0.912-0.604,1.471s-0.193,1.154-0.193,1.787V163.268z"/><path d="M333.182,169.702c-0.883,0-1.682-0.152-2.396-0.457s-1.326-0.729-1.834-1.271s-0.898-1.189-1.172-1.939s-0.41-1.57-0.41-2.461v-0.492c0-1.031,0.154-1.953,0.463-2.766s0.721-1.496,1.236-2.051s1.105-0.979,1.77-1.271s1.355-0.439,2.074-0.439c0.906,0,1.688,0.158,2.344,0.475s1.197,0.752,1.623,1.307s0.74,1.211,0.943,1.969s0.305,1.582,0.305,2.473v0.973h-8.59c0.016,0.586,0.111,1.133,0.287,1.641s0.426,0.949,0.75,1.324s0.715,0.672,1.172,0.891s0.975,0.328,1.553,0.328c0.766,0,1.414-0.156,1.945-0.469s0.996-0.727,1.395-1.242l1.324,1.031c-0.203,0.313-0.449,0.615-0.738,0.908s-0.627,0.555-1.014,0.785s-0.83,0.414-1.33,0.551S333.814,169.702,333.182,169.702zM332.912,158.334c-0.438,0-0.84,0.08-1.207,0.24s-0.695,0.393-0.984,0.697s-0.529,0.684-0.721,1.137s-0.322,0.973-0.393,1.559h6.352v-0.164c-0.023-0.422-0.092-0.84-0.205-1.254s-0.289-0.785-0.527-1.113s-0.545-0.594-0.92-0.797S333.467,158.334,332.912,158.334z"/><path d="M348.018,166.104c0-0.234-0.035-0.455-0.105-0.662s-0.209-0.402-0.416-0.586s-0.502-0.354-0.885-0.51s-0.887-0.301-1.512-0.434c-0.703-0.148-1.336-0.324-1.898-0.527s-1.041-0.447-1.436-0.732s-0.697-0.623-0.908-1.014s-0.316-0.848-0.316-1.371c0-0.5,0.111-0.975,0.334-1.424s0.537-0.844,0.943-1.184s0.898-0.609,1.477-0.809s1.223-0.299,1.934-0.299c0.758,0,1.436,0.104,2.033,0.311s1.105,0.49,1.523,0.85s0.736,0.779,0.955,1.26s0.328,0.994,0.328,1.541h-2.18c0-0.258-0.059-0.518-0.176-0.779s-0.289-0.496-0.516-0.703s-0.504-0.375-0.832-0.504s-0.707-0.193-1.137-0.193c-0.453,0-0.838,0.053-1.154,0.158s-0.576,0.246-0.779,0.422s-0.352,0.375-0.445,0.598s-0.141,0.451-0.141,0.686s0.039,0.445,0.117,0.633s0.227,0.357,0.445,0.51s0.518,0.293,0.896,0.422s0.869,0.26,1.471,0.393c0.773,0.18,1.445,0.383,2.016,0.609s1.043,0.49,1.418,0.791s0.654,0.646,0.838,1.037s0.275,0.844,0.275,1.359c0,0.555-0.115,1.063-0.346,1.523s-0.561,0.855-0.99,1.184s-0.945,0.584-1.547,0.768s-1.27,0.275-2.004,0.275c-0.844,0-1.588-0.117-2.232-0.352s-1.186-0.545-1.623-0.932s-0.77-0.828-0.996-1.324s-0.34-1.006-0.34-1.529h2.168c0.023,0.445,0.131,0.818,0.322,1.119s0.432,0.545,0.721,0.732s0.605,0.32,0.949,0.398s0.688,0.117,1.031,0.117c0.445,0,0.836-0.047,1.172-0.141s0.619-0.223,0.85-0.387s0.404-0.357,0.521-0.58S348.018,166.362,348.018,166.104z"/><path d="M361.893,153.717v3.07h2.367v1.676h-2.367v7.863c0,0.328,0.039,0.592,0.117,0.791s0.182,0.354,0.311,0.463s0.277,0.182,0.445,0.217s0.342,0.053,0.521,0.053s0.369-0.018,0.568-0.053s0.354-0.064,0.463-0.088v1.758c-0.172,0.047-0.395,0.098-0.668,0.152s-0.605,0.082-0.996,0.082c-0.398,0-0.775-0.057-1.131-0.17s-0.666-0.303-0.932-0.568s-0.477-0.615-0.633-1.049s-0.234-0.967-0.234-1.6v-7.852h-2.309v-1.676h2.309v-3.07H361.893z"/><path d="M365.982,163.01c0-0.922,0.135-1.775,0.404-2.561s0.652-1.467,1.148-2.045s1.1-1.031,1.811-1.359s1.508-0.492,2.391-0.492c0.898,0,1.705,0.164,2.42,0.492s1.322,0.781,1.822,1.359s0.883,1.26,1.148,2.045s0.398,1.639,0.398,2.561v0.258c0,0.922-0.133,1.775-0.398,2.561s-0.648,1.465-1.148,2.039s-1.105,1.023-1.816,1.348s-1.512,0.486-2.402,0.486s-1.691-0.162-2.402-0.486s-1.316-0.773-1.816-1.348s-0.885-1.254-1.154-2.039s-0.404-1.639-0.404-2.561V163.01z M368.162,163.268c0,0.633,0.074,1.23,0.223,1.793s0.373,1.057,0.674,1.482s0.676,0.764,1.125,1.014s0.975,0.375,1.576,0.375c0.594,0,1.117-0.125,1.57-0.375s0.828-0.588,1.125-1.014s0.521-0.92,0.674-1.482s0.229-1.16,0.229-1.793v-0.258c0-0.625-0.076-1.221-0.229-1.787s-0.379-1.063-0.68-1.488s-0.678-0.766-1.131-1.02s-0.98-0.381-1.582-0.381c-0.594,0-1.113,0.127-1.559,0.381s-0.818,0.594-1.119,1.02s-0.525,0.922-0.674,1.488s-0.223,1.162-0.223,1.787V163.268z"/><path d="M388.541,169.467h-2.168v-18h2.168V169.467z"/><path d="M399.838,169.467c-0.078-0.156-0.141-0.354-0.188-0.592s-0.086-0.486-0.117-0.744c-0.203,0.211-0.432,0.412-0.686,0.604s-0.531,0.359-0.832,0.504s-0.627,0.258-0.979,0.34s-0.723,0.123-1.113,0.123c-0.648,0-1.236-0.098-1.764-0.293s-0.977-0.461-1.348-0.797s-0.658-0.732-0.861-1.189s-0.305-0.947-0.305-1.471c0-0.68,0.133-1.279,0.398-1.799s0.646-0.955,1.143-1.307s1.096-0.617,1.799-0.797s1.488-0.27,2.355-0.27h2.156v-0.996c0-0.758-0.227-1.361-0.68-1.811s-1.121-0.674-2.004-0.674c-0.406,0-0.777,0.055-1.113,0.164s-0.623,0.256-0.861,0.439s-0.424,0.396-0.557,0.639s-0.199,0.496-0.199,0.762h-2.18c0-0.453,0.119-0.902,0.357-1.348s0.576-0.846,1.014-1.201s0.967-0.645,1.588-0.867s1.314-0.334,2.08-0.334c0.688,0,1.322,0.088,1.904,0.264s1.08,0.441,1.494,0.797s0.738,0.799,0.973,1.33s0.352,1.152,0.352,1.863v5.895c0,0.43,0.037,0.881,0.111,1.354s0.186,0.881,0.334,1.225v0.188H399.838z M396.24,167.815c0.391,0,0.758-0.055,1.102-0.164s0.656-0.252,0.938-0.428s0.525-0.377,0.732-0.604s0.369-0.461,0.486-0.703v-2.602h-1.805c-1.242,0-2.199,0.193-2.871,0.58s-1.008,0.971-1.008,1.752c0,0.305,0.051,0.59,0.152,0.855s0.256,0.494,0.463,0.686s0.461,0.344,0.762,0.457S395.842,167.815,396.24,167.815z"/><path d="M411.193,158.733c-0.188-0.031-0.361-0.053-0.521-0.064s-0.342-0.018-0.545-0.018c-0.75,0-1.361,0.164-1.834,0.492s-0.826,0.77-1.061,1.324v9h-2.168v-12.68h2.109l0.035,1.465c0.328-0.523,0.738-0.938,1.23-1.242s1.09-0.457,1.793-0.457c0.156,0,0.336,0.018,0.539,0.053s0.344,0.072,0.422,0.111V158.733z"/><path d="M412.447,163.022c0-0.969,0.115-1.85,0.346-2.643s0.563-1.473,0.996-2.039s0.959-1.006,1.576-1.318s1.313-0.469,2.086-0.469c0.805,0,1.504,0.141,2.098,0.422s1.102,0.688,1.523,1.219l0.105-1.406h1.98v12.41c0,0.836-0.131,1.58-0.393,2.232s-0.631,1.203-1.107,1.652s-1.043,0.791-1.699,1.025s-1.383,0.352-2.18,0.352c-0.328,0-0.705-0.037-1.131-0.111s-0.855-0.195-1.289-0.363s-0.85-0.393-1.248-0.674s-0.738-0.629-1.02-1.043l1.125-1.301c0.266,0.328,0.539,0.602,0.82,0.82s0.564,0.395,0.85,0.527s0.574,0.229,0.867,0.287s0.584,0.088,0.873,0.088c0.508,0,0.969-0.072,1.383-0.217s0.768-0.361,1.061-0.65s0.518-0.643,0.674-1.061s0.234-0.904,0.234-1.459v-1.102c-0.422,0.484-0.924,0.855-1.506,1.113s-1.264,0.387-2.045,0.387c-0.758,0-1.443-0.16-2.057-0.48s-1.137-0.768-1.57-1.342s-0.768-1.254-1.002-2.039s-0.352-1.643-0.352-2.572V163.022z M414.627,163.268c0,0.633,0.064,1.229,0.193,1.787s0.328,1.045,0.598,1.459s0.615,0.742,1.037,0.984s0.926,0.363,1.512,0.363c0.383,0,0.729-0.047,1.037-0.141s0.586-0.223,0.832-0.387s0.463-0.359,0.65-0.586s0.352-0.477,0.492-0.75v-5.789c-0.141-0.258-0.305-0.498-0.492-0.721s-0.404-0.416-0.65-0.58s-0.521-0.291-0.826-0.381s-0.645-0.135-1.02-0.135c-0.594,0-1.102,0.123-1.523,0.369s-0.77,0.58-1.043,1.002s-0.475,0.912-0.604,1.471s-0.193,1.154-0.193,1.787V163.268z"/><path d="M431.689,169.702c-0.883,0-1.682-0.152-2.396-0.457s-1.326-0.729-1.834-1.271s-0.898-1.189-1.172-1.939s-0.41-1.57-0.41-2.461v-0.492c0-1.031,0.154-1.953,0.463-2.766s0.721-1.496,1.236-2.051s1.105-0.979,1.77-1.271s1.355-0.439,2.074-0.439c0.906,0,1.688,0.158,2.344,0.475s1.197,0.752,1.623,1.307s0.74,1.211,0.943,1.969s0.305,1.582,0.305,2.473v0.973h-8.59c0.016,0.586,0.111,1.133,0.287,1.641s0.426,0.949,0.75,1.324s0.715,0.672,1.172,0.891s0.975,0.328,1.553,0.328c0.766,0,1.414-0.156,1.945-0.469s0.996-0.727,1.395-1.242l1.324,1.031c-0.203,0.313-0.449,0.615-0.738,0.908s-0.627,0.555-1.014,0.785s-0.83,0.414-1.33,0.551S432.322,169.702,431.689,169.702zM431.42,158.334c-0.438,0-0.84,0.08-1.207,0.24s-0.695,0.393-0.984,0.697s-0.529,0.684-0.721,1.137s-0.322,0.973-0.393,1.559h6.352v-0.164c-0.023-0.422-0.092-0.84-0.205-1.254s-0.289-0.785-0.527-1.113s-0.545-0.594-0.92-0.797S431.975,158.334,431.42,158.334z"/><path d="M192.018,198.267c-0.078-0.156-0.141-0.354-0.188-0.592s-0.086-0.486-0.117-0.744c-0.203,0.211-0.432,0.412-0.686,0.604s-0.531,0.359-0.832,0.504s-0.627,0.258-0.979,0.34s-0.723,0.123-1.113,0.123c-0.648,0-1.236-0.098-1.764-0.293s-0.977-0.461-1.348-0.797s-0.658-0.732-0.861-1.189s-0.305-0.947-0.305-1.471c0-0.68,0.133-1.279,0.398-1.799s0.646-0.955,1.143-1.307s1.096-0.617,1.799-0.797s1.488-0.27,2.355-0.27h2.156v-0.996c0-0.758-0.227-1.361-0.68-1.811s-1.121-0.674-2.004-0.674c-0.406,0-0.777,0.055-1.113,0.164s-0.623,0.256-0.861,0.439s-0.424,0.396-0.557,0.639s-0.199,0.496-0.199,0.762h-2.18c0-0.453,0.119-0.902,0.357-1.348s0.576-0.846,1.014-1.201s0.967-0.645,1.588-0.867s1.314-0.334,2.08-0.334c0.688,0,1.322,0.088,1.904,0.264s1.08,0.441,1.494,0.797s0.738,0.799,0.973,1.33s0.352,1.152,0.352,1.863v5.895c0,0.43,0.037,0.881,0.111,1.354s0.186,0.881,0.334,1.225v0.188H192.018z M188.42,196.615c0.391,0,0.758-0.055,1.102-0.164s0.656-0.252,0.938-0.428s0.525-0.377,0.732-0.604s0.369-0.461,0.486-0.703v-2.602h-1.805c-1.242,0-2.199,0.193-2.871,0.58s-1.008,0.971-1.008,1.752c0,0.305,0.051,0.59,0.152,0.855s0.256,0.494,0.463,0.686s0.461,0.344,0.762,0.457S188.022,196.615,188.42,196.615z"/><path d="M205.073,197.013c-0.398,0.469-0.902,0.834-1.512,1.096s-1.344,0.393-2.203,0.393c-0.625,0-1.191-0.088-1.699-0.264s-0.945-0.453-1.313-0.832s-0.65-0.867-0.85-1.465s-0.299-1.318-0.299-2.162v-8.191h2.168v8.215c0,0.57,0.066,1.041,0.199,1.412s0.309,0.664,0.527,0.879s0.469,0.363,0.75,0.445s0.57,0.123,0.867,0.123c0.883,0,1.592-0.168,2.127-0.504s0.928-0.785,1.178-1.348v-9.223h2.168v12.68h-2.063L205.073,197.013z"/><path d="M209.948,191.822c0-0.969,0.119-1.85,0.357-2.643s0.576-1.473,1.014-2.039s0.963-1.006,1.576-1.318s1.299-0.469,2.057-0.469c0.773,0,1.449,0.131,2.027,0.393s1.078,0.639,1.5,1.131v-6.609h2.168v18h-1.992l-0.105-1.359c-0.422,0.516-0.93,0.91-1.523,1.184s-1.293,0.41-2.098,0.41c-0.742,0-1.42-0.16-2.033-0.48s-1.139-0.768-1.576-1.342s-0.775-1.254-1.014-2.039s-0.357-1.643-0.357-2.572V191.822z M212.116,192.068c0,0.633,0.064,1.229,0.193,1.787s0.33,1.045,0.604,1.459s0.621,0.742,1.043,0.984s0.926,0.363,1.512,0.363c0.383,0,0.727-0.045,1.031-0.135s0.58-0.217,0.826-0.381s0.465-0.359,0.656-0.586s0.357-0.477,0.498-0.75v-5.824c-0.141-0.258-0.305-0.496-0.492-0.715s-0.404-0.408-0.65-0.568s-0.521-0.285-0.826-0.375s-0.645-0.135-1.02-0.135c-0.594,0-1.104,0.123-1.529,0.369s-0.775,0.58-1.049,1.002s-0.475,0.912-0.604,1.471s-0.193,1.154-0.193,1.787V192.068z"/><path d="M224.022,182.224c0-0.352,0.107-0.648,0.322-0.891s0.533-0.363,0.955-0.363s0.742,0.121,0.961,0.363s0.328,0.539,0.328,0.891s-0.109,0.645-0.328,0.879s-0.539,0.352-0.961,0.352s-0.74-0.117-0.955-0.352S224.022,182.576,224.022,182.224z M226.366,198.267h-2.168v-12.68h2.168V198.267z"/><path d="M235.096,198.501c-0.883,0-1.682-0.152-2.396-0.457s-1.326-0.729-1.834-1.271s-0.898-1.189-1.172-1.939s-0.41-1.57-0.41-2.461v-0.492c0-1.031,0.154-1.953,0.463-2.766s0.721-1.496,1.236-2.051s1.105-0.979,1.77-1.271s1.355-0.439,2.074-0.439c0.906,0,1.688,0.158,2.344,0.475s1.197,0.752,1.623,1.307s0.74,1.211,0.943,1.969s0.305,1.582,0.305,2.473v0.973h-8.59c0.016,0.586,0.111,1.133,0.287,1.641s0.426,0.949,0.75,1.324s0.715,0.672,1.172,0.891s0.975,0.328,1.553,0.328c0.766,0,1.414-0.156,1.945-0.469s0.996-0.727,1.395-1.242l1.324,1.031c-0.203,0.313-0.449,0.615-0.738,0.908s-0.627,0.555-1.014,0.785s-0.83,0.414-1.33,0.551S235.729,198.501,235.096,198.501zM234.827,187.134c-0.438,0-0.84,0.08-1.207,0.24s-0.695,0.393-0.984,0.697s-0.529,0.684-0.721,1.137s-0.322,0.973-0.393,1.559h6.352v-0.164c-0.023-0.422-0.092-0.84-0.205-1.254s-0.289-0.785-0.527-1.113s-0.545-0.594-0.92-0.797S235.381,187.134,234.827,187.134z"/><path d="M244.6,185.587l0.07,1.594c0.453-0.57,1-1.018,1.641-1.342s1.359-0.486,2.156-0.486c0.617,0,1.176,0.084,1.676,0.252s0.926,0.438,1.277,0.809s0.623,0.848,0.814,1.43s0.287,1.287,0.287,2.115v8.309h-2.168v-8.332c0-0.492-0.055-0.912-0.164-1.26s-0.271-0.631-0.486-0.85s-0.48-0.379-0.797-0.48s-0.682-0.152-1.096-0.152c-0.703,0-1.32,0.188-1.852,0.563s-0.945,0.867-1.242,1.477v9.035h-2.168v-12.68H244.6z"/><path d="M260.877,196.732c0.383,0,0.75-0.063,1.102-0.188s0.662-0.297,0.932-0.516s0.488-0.479,0.656-0.779s0.268-0.627,0.299-0.979h2.051c-0.031,0.563-0.186,1.1-0.463,1.611s-0.643,0.961-1.096,1.348s-0.979,0.695-1.576,0.926s-1.232,0.346-1.904,0.346c-0.953,0-1.783-0.17-2.49-0.51s-1.295-0.799-1.764-1.377s-0.818-1.25-1.049-2.016s-0.346-1.574-0.346-2.426v-0.492c0-0.852,0.115-1.66,0.346-2.426s0.58-1.438,1.049-2.016s1.055-1.037,1.758-1.377s1.531-0.51,2.484-0.51c0.742,0,1.416,0.117,2.021,0.352s1.129,0.557,1.57,0.967s0.787,0.896,1.037,1.459s0.391,1.168,0.422,1.816h-2.051c-0.031-0.391-0.123-0.756-0.275-1.096s-0.357-0.637-0.615-0.891s-0.564-0.455-0.92-0.604s-0.752-0.223-1.189-0.223c-0.672,0-1.229,0.133-1.67,0.398s-0.797,0.615-1.066,1.049s-0.459,0.922-0.568,1.465s-0.164,1.088-0.164,1.635v0.492c0,0.563,0.055,1.115,0.164,1.658s0.297,1.029,0.563,1.459s0.621,0.777,1.066,1.043S260.197,196.732,260.877,196.732z"/><path d="M273.615,198.501c-0.883,0-1.682-0.152-2.396-0.457s-1.326-0.729-1.834-1.271s-0.898-1.189-1.172-1.939s-0.41-1.57-0.41-2.461v-0.492c0-1.031,0.154-1.953,0.463-2.766s0.721-1.496,1.236-2.051s1.105-0.979,1.77-1.271s1.355-0.439,2.074-0.439c0.906,0,1.688,0.158,2.344,0.475s1.197,0.752,1.623,1.307s0.74,1.211,0.943,1.969s0.305,1.582,0.305,2.473v0.973h-8.59c0.016,0.586,0.111,1.133,0.287,1.641s0.426,0.949,0.75,1.324s0.715,0.672,1.172,0.891s0.975,0.328,1.553,0.328c0.766,0,1.414-0.156,1.945-0.469s0.996-0.727,1.395-1.242l1.324,1.031c-0.203,0.313-0.449,0.615-0.738,0.908s-0.627,0.555-1.014,0.785s-0.83,0.414-1.33,0.551S274.248,198.501,273.615,198.501zM273.346,187.134c-0.438,0-0.84,0.08-1.207,0.24s-0.695,0.393-0.984,0.697s-0.529,0.684-0.721,1.137s-0.322,0.973-0.393,1.559h6.352v-0.164c-0.023-0.422-0.092-0.84-0.205-1.254s-0.289-0.785-0.527-1.113s-0.545-0.594-0.92-0.797S273.9,187.134,273.346,187.134z"/><path d="M288.451,194.904c0-0.234-0.035-0.455-0.105-0.662s-0.209-0.402-0.416-0.586s-0.502-0.354-0.885-0.51s-0.887-0.301-1.512-0.434c-0.703-0.148-1.336-0.324-1.898-0.527s-1.041-0.447-1.436-0.732s-0.697-0.623-0.908-1.014s-0.316-0.848-0.316-1.371c0-0.5,0.111-0.975,0.334-1.424s0.537-0.844,0.943-1.184s0.898-0.609,1.477-0.809s1.223-0.299,1.934-0.299c0.758,0,1.436,0.104,2.033,0.311s1.105,0.49,1.523,0.85s0.736,0.779,0.955,1.26s0.328,0.994,0.328,1.541h-2.18c0-0.258-0.059-0.518-0.176-0.779s-0.289-0.496-0.516-0.703s-0.504-0.375-0.832-0.504s-0.707-0.193-1.137-0.193c-0.453,0-0.838,0.053-1.154,0.158s-0.576,0.246-0.779,0.422s-0.352,0.375-0.445,0.598s-0.141,0.451-0.141,0.686s0.039,0.445,0.117,0.633s0.227,0.357,0.445,0.51s0.518,0.293,0.896,0.422s0.869,0.26,1.471,0.393c0.773,0.18,1.445,0.383,2.016,0.609s1.043,0.49,1.418,0.791s0.654,0.646,0.838,1.037s0.275,0.844,0.275,1.359c0,0.555-0.115,1.063-0.346,1.523s-0.561,0.855-0.99,1.184s-0.945,0.584-1.547,0.768s-1.27,0.275-2.004,0.275c-0.844,0-1.588-0.117-2.232-0.352s-1.186-0.545-1.623-0.932s-0.77-0.828-0.996-1.324s-0.34-1.006-0.34-1.529h2.168c0.023,0.445,0.131,0.818,0.322,1.119s0.432,0.545,0.721,0.732s0.605,0.32,0.949,0.398s0.688,0.117,1.031,0.117c0.445,0,0.836-0.047,1.172-0.141s0.619-0.223,0.85-0.387s0.404-0.357,0.521-0.58S288.451,195.162,288.451,194.904z"/><path d="M293.49,197.13c0-0.375,0.111-0.688,0.334-0.938s0.557-0.375,1.002-0.375s0.783,0.125,1.014,0.375s0.346,0.563,0.346,0.938c0,0.359-0.115,0.66-0.346,0.902s-0.568,0.363-1.014,0.363s-0.779-0.121-1.002-0.363S293.49,197.49,293.49,197.13z"/></g><g class="windowBackgroundWhiteBlueText5"><path d="M154.207,268.449c-0.078,0.836-0.273,1.607-0.586,2.314s-0.746,1.318-1.301,1.834s-1.232,0.918-2.033,1.207s-1.725,0.434-2.771,0.434s-1.994-0.189-2.842-0.568s-1.57-0.918-2.168-1.617s-1.057-1.545-1.377-2.537s-0.48-2.105-0.48-3.34v-1.383c0-1.227,0.164-2.338,0.492-3.334s0.797-1.846,1.406-2.549s1.346-1.246,2.209-1.629s1.83-0.574,2.9-0.574c1.016,0,1.914,0.146,2.695,0.439s1.443,0.699,1.986,1.219s0.969,1.139,1.277,1.857s0.506,1.504,0.592,2.355h-2.953c-0.063-0.539-0.17-1.023-0.322-1.453s-0.369-0.795-0.65-1.096s-0.637-0.529-1.066-0.686s-0.949-0.234-1.559-0.234c-0.672,0-1.26,0.127-1.764,0.381s-0.924,0.621-1.26,1.102s-0.588,1.072-0.756,1.775s-0.252,1.504-0.252,2.402v1.406c0,0.852,0.074,1.625,0.223,2.32s0.379,1.291,0.691,1.787s0.715,0.881,1.207,1.154s1.082,0.41,1.77,0.41c0.641,0,1.182-0.074,1.623-0.223s0.807-0.367,1.096-0.656s0.514-0.645,0.674-1.066s0.275-0.906,0.346-1.453H154.207z"/><path d="M163.125,267.429h-3.305v6.574h-2.965v-17.063h6c0.977,0,1.848,0.111,2.613,0.334s1.412,0.551,1.939,0.984s0.928,0.971,1.201,1.611s0.41,1.383,0.41,2.227c0,1.141-0.275,2.096-0.826,2.865s-1.318,1.361-2.303,1.775l3.832,7.113v0.152h-3.176L163.125,267.429z M159.82,265.05h3.047c0.531,0,0.996-0.07,1.395-0.211s0.73-0.336,0.996-0.586s0.465-0.547,0.598-0.891s0.199-0.723,0.199-1.137c0-0.438-0.063-0.834-0.188-1.189s-0.316-0.66-0.574-0.914s-0.588-0.449-0.99-0.586s-0.885-0.205-1.447-0.205h-3.035V265.05z"/><path d="M181.805,266.386h-7.008v5.25h8.191v2.367h-11.156v-17.063h11.074v2.391h-8.109v4.711h7.008V266.386z"/><path d="M194.953,270.031h-6.609l-1.383,3.973h-3.082l6.445-17.063h2.66l6.457,17.063h-3.094L194.953,270.031zM189.176,267.64h4.945l-2.473-7.078L189.176,267.64z"/><path d="M212.297,259.332h-5.32v14.672h-2.941v-14.672h-5.273v-2.391h13.535V259.332z"/><path d="M224.508,266.386H217.5v5.25h8.191v2.367h-11.156v-17.063h11.074v2.391H217.5v4.711h7.008V266.386z"/><path d="M247.102,268.449c-0.078,0.836-0.273,1.607-0.586,2.314s-0.746,1.318-1.301,1.834s-1.232,0.918-2.033,1.207s-1.725,0.434-2.771,0.434s-1.994-0.189-2.842-0.568s-1.57-0.918-2.168-1.617s-1.057-1.545-1.377-2.537s-0.48-2.105-0.48-3.34v-1.383c0-1.227,0.164-2.338,0.492-3.334s0.797-1.846,1.406-2.549s1.346-1.246,2.209-1.629s1.83-0.574,2.9-0.574c1.016,0,1.914,0.146,2.695,0.439s1.443,0.699,1.986,1.219s0.969,1.139,1.277,1.857s0.506,1.504,0.592,2.355h-2.953c-0.063-0.539-0.17-1.023-0.322-1.453s-0.369-0.795-0.65-1.096s-0.637-0.529-1.066-0.686s-0.949-0.234-1.559-0.234c-0.672,0-1.26,0.127-1.764,0.381s-0.924,0.621-1.26,1.102s-0.588,1.072-0.756,1.775s-0.252,1.504-0.252,2.402v1.406c0,0.852,0.074,1.625,0.223,2.32s0.379,1.291,0.691,1.787s0.715,0.881,1.207,1.154s1.082,0.41,1.77,0.41c0.641,0,1.182-0.074,1.623-0.223s0.807-0.367,1.096-0.656s0.514-0.645,0.674-1.066s0.275-0.906,0.346-1.453H247.102z"/><path d="M263.297,274.003h-2.953v-7.582h-7.629v7.582h-2.965v-17.063h2.965v7.102h7.629v-7.102h2.953V274.003z"/><path d="M276.563,270.031h-6.609l-1.383,3.973h-3.082l6.445-17.063h2.66l6.457,17.063h-3.094L276.563,270.031zM270.785,267.64h4.945l-2.473-7.078L270.785,267.64z"/><path d="M296.52,274.003h-2.965l-7.605-12.105v12.105h-2.965v-17.063h2.965l7.629,12.152v-12.152h2.941V274.003z"/><path d="M313.559,274.003h-2.965l-7.605-12.105v12.105h-2.965v-17.063h2.965l7.629,12.152v-12.152h2.941V274.003z"/><path d="M327.035,266.386h-7.008v5.25h8.191v2.367h-11.156v-17.063h11.074v2.391h-8.109v4.711h7.008V266.386z"/><path d="M333.598,271.636h7.746v2.367h-10.711v-17.063h2.965V271.636z"/></g></svg>